<svg width="300" height="300" viewBox="0 0 300 300" fill="none" xmlns="http://www.w3.org/2000/svg">
<rect x="0.5" y="0.5" width="299" height="299" rx="149.5" fill="white" fill-opacity="0.07" stroke="url(#paint0_linear_3867_302)"/>
<path d="M108.056 237.163C108.056 236.079 108.056 235.171 108.056 234.263C108.086 209.954 108.081 185.64 108.161 161.33C108.226 140.899 124.565 122.865 144.866 120.552C158.54 118.992 170.369 122.925 180.045 132.607C187.806 140.372 192.275 149.878 192.336 161.009C192.471 185.905 192.421 210.807 192.436 235.703C192.436 236.114 192.356 236.526 192.295 237.158H108.056V237.163Z" fill="#6546A6"/>
<path d="M193.831 140.315C203.814 137.667 212.517 139.352 220.182 145.512C227.461 151.361 230.987 159.132 230.987 168.487C230.987 184.871 230.967 201.254 231.052 217.638C231.062 219.75 230.626 220.562 228.319 220.527C219.625 220.392 210.932 220.392 202.238 220.527C199.846 220.567 199.344 219.714 199.359 217.512C199.449 201.881 199.309 186.25 199.464 170.619C199.57 160.266 199.244 150.057 193.831 140.31V140.315Z" fill="#6546A6"/>
<path d="M100.963 220.327H69.6656C69.6154 219.324 69.5352 218.441 69.5352 217.553C69.5352 201.18 69.5352 184.806 69.5552 168.433C69.5803 150.76 84.1177 137.532 101.655 139.243C103.215 139.393 104.745 139.85 106.185 140.141C104.825 144.314 103.32 148.272 102.287 152.345C101.555 155.225 101.148 158.27 101.133 161.244C101.043 180.121 101.103 199.003 101.103 217.884C101.103 218.617 101.018 219.354 100.958 220.327H100.963Z" fill="#6546A6"/>
<path d="M150.128 112.671C135.129 112.525 123.28 100.526 123.395 85.5975C123.511 70.7842 135.701 58.8904 150.649 59.0008C165.382 59.1111 177.316 71.4363 177.146 86.36C176.98 100.882 164.725 112.811 150.128 112.671Z" fill="#6546A6"/>
<path d="M67.4336 150.29C64.3284 155.893 62.5928 161.762 62.5526 168.043C62.5025 176.731 62.5526 185.414 62.5627 194.103C62.5627 198.02 62.5627 201.938 62.5627 206.062H42.2063C42.1461 205.389 42.0307 204.672 42.0307 203.955C42.0257 192.342 41.9504 180.734 42.0558 169.121C42.1712 156.65 53.6687 147.215 65.5725 149.688C66.1293 149.803 66.661 150.034 67.4285 150.285L67.4336 150.29Z" fill="#6546A6"/>
<path d="M233.039 150.354C243.669 146.722 255.688 153.901 257.975 164.846C258.266 166.231 258.507 167.655 258.512 169.06C258.557 180.838 258.542 192.617 258.537 204.4C258.537 204.892 258.467 205.383 258.412 206.076H238.156C238.101 205.133 238.005 204.174 238 203.216C237.99 193.69 237.86 184.164 238.035 174.648C238.191 166.191 237.679 157.934 233.039 150.359V150.354Z" fill="#ADACBD"/>
<path d="M98.6651 131.648C88.7628 131.714 80.5159 123.733 80.5059 114.066C80.4958 103.547 88.1809 95.6209 98.4745 95.5406C108.562 95.4604 116.599 103.466 116.639 113.635C116.679 123.622 108.738 131.583 98.6651 131.648Z" fill="#6546A6"/>
<path d="M220.032 113.98C219.861 124.003 211.8 131.783 201.727 131.648C191.589 131.512 183.778 123.416 183.929 113.212C184.074 103.28 192.326 95.3041 202.244 95.5097C212.427 95.7204 220.207 103.797 220.032 113.98Z" fill="#6546A6"/>
<path d="M250.535 129.973C250.55 136.594 245.238 142.017 238.682 142.072C231.955 142.132 226.432 136.78 226.351 130.138C226.271 123.281 231.669 117.803 238.511 117.798C245.208 117.798 250.525 123.175 250.535 129.968V129.973Z" fill="#ADACBD"/>
<path d="M50.0012 129.961C50.0463 123.134 55.5192 117.686 62.2461 117.782C68.9329 117.872 74.2152 123.279 74.1951 130.011C74.175 136.678 68.7273 142.091 62.0605 142.071C55.3838 142.046 49.9611 136.603 50.0012 129.966V129.961Z" fill="#6546A6"/>
<defs>
<linearGradient id="paint0_linear_3867_302" x1="234.375" y1="20.625" x2="73.125" y2="277.5" gradientUnits="userSpaceOnUse">
<stop stop-color="white" stop-opacity="0.47"/>
<stop offset="1" stop-color="#6546A6"/>
</linearGradient>
</defs>
</svg>
