<svg width="160" height="160" viewBox="0 0 160 160" fill="none" xmlns="http://www.w3.org/2000/svg">
<circle cx="80" cy="80" r="79.75" fill="white" fill-opacity="0.04" stroke="url(#paint0_linear_5751_434)" stroke-width="0.5"/>
<path d="M49.7577 46.2795C50.1443 42.2112 52.0124 39.2548 55.8045 37.6808C61.4791 35.3243 68.1148 39.3676 68.5882 45.4684C68.6388 46.1166 68.805 46.3297 69.4788 46.3279C76.8553 46.3082 84.2317 46.3171 91.6064 46.3153C91.8394 46.3153 92.0725 46.276 92.3579 46.2509C92.4699 43.2784 93.675 40.8592 95.9838 39.0309C97.6821 37.6879 99.6404 37.0039 101.834 37.0093C106.833 37.0236 110.113 40.2038 111.299 46.1828C112.37 46.3261 113.459 46.3673 114.491 46.6287C118.325 47.6028 120.96 50.9585 120.984 54.8765C121.013 59.7399 120.991 64.6051 120.991 69.4686C120.991 84.3597 120.995 99.249 120.988 114.14C120.986 118.019 118.832 121.208 115.309 122.456C114.393 122.78 113.376 122.984 112.406 122.986C91.2721 123.008 70.1364 123.002 49.0008 122.981C43.8013 122.975 40.0453 119.186 40.0435 114.006C40.0417 94.5199 40.1104 75.0339 40.0002 55.5498C39.9712 50.3246 44.056 46.0611 49.1706 46.3171C49.3458 46.3261 49.5229 46.2956 49.7577 46.2795ZM111.326 52.1869C111.225 52.7922 111.147 53.3526 111.033 53.9042C110.103 58.4542 106.112 61.6058 101.59 61.3712C100.168 61.2978 98.9919 60.116 98.934 58.7031C98.8636 56.9698 100.025 55.7557 101.859 55.6411C103.998 55.5086 105.317 54.205 105.329 52.0795C105.04 52.0795 104.751 52.0795 104.462 52.0795C92.9017 52.0813 81.3411 52.0938 69.7805 52.0687C68.9278 52.0687 68.6785 52.332 68.5882 53.1592C68.0715 57.9475 63.9452 61.5091 59.1576 61.3712C57.1197 61.3121 55.7937 59.2869 56.5868 57.4282C57.1215 56.1765 58.1513 55.7109 59.4557 55.6304C61.5008 55.5032 62.9967 53.8934 62.713 52.1601C62.6335 52.1368 62.5486 52.092 62.4637 52.092C57.8586 52.092 53.2517 52.0687 48.6467 52.1189C46.9665 52.1386 45.8626 53.3544 45.85 55.0197C45.8319 57.1685 45.841 59.3173 45.8392 61.4643C45.8392 62.5584 45.8392 63.6525 45.8392 64.7717H115.197C115.197 61.5933 115.203 58.4918 115.197 55.3904C115.192 52.9068 113.902 51.8198 111.326 52.1833V52.1869ZM105.366 46.2634C105.219 44.0394 103.628 42.6391 101.59 42.8182C99.6115 42.9937 98.1355 44.5283 98.3216 46.2634H105.366ZM55.7395 46.2527H62.7781C62.8576 44.3295 61.3635 42.8128 59.4268 42.8021C57.2932 42.7913 55.6744 44.2758 55.7395 46.2527Z" fill="white"/>
<path d="M79.9091 111.477C77.875 111.477 75.9432 111.159 74.1136 110.523C72.2955 109.875 70.6818 108.858 69.2727 107.472C67.8636 106.085 66.7557 104.278 65.9489 102.051C65.1534 99.8239 64.7614 97.125 64.7727 93.9545C64.7841 91.125 65.1477 88.5795 65.8636 86.3182C66.5909 84.0568 67.6193 82.1307 68.9489 80.5398C70.2898 78.9489 71.892 77.733 73.7557 76.892C75.6193 76.0398 77.6932 75.6136 79.9773 75.6136C82.5455 75.6136 84.8068 76.108 86.7614 77.0966C88.7159 78.0852 90.2727 79.4091 91.4318 81.0682C92.6023 82.7159 93.2841 84.5341 93.4773 86.5227H84.1364C83.9205 85.5341 83.4205 84.8125 82.6364 84.358C81.8636 83.892 80.9773 83.6591 79.9773 83.6591C77.9886 83.6591 76.5284 84.5227 75.5966 86.25C74.6761 87.9773 74.2045 90.25 74.1818 93.0682H74.3864C74.8295 92 75.5 91.0852 76.3977 90.3239C77.2955 89.5625 78.3409 88.9773 79.5341 88.5682C80.7273 88.1591 81.9886 87.9545 83.3182 87.9545C85.4318 87.9545 87.2784 88.4318 88.858 89.3864C90.4489 90.3409 91.6875 91.6477 92.5739 93.3068C93.4602 94.9659 93.8977 96.8636 93.8864 99C93.8977 101.5 93.3068 103.688 92.1136 105.562C90.9318 107.438 89.2898 108.892 87.1875 109.926C85.0852 110.96 82.6591 111.477 79.9091 111.477ZM79.8409 104.318C80.7841 104.318 81.6193 104.102 82.3466 103.67C83.0852 103.239 83.6591 102.648 84.0682 101.898C84.4886 101.148 84.6932 100.295 84.6818 99.3409C84.6932 98.375 84.4886 97.5227 84.0682 96.7841C83.6591 96.0341 83.0852 95.4432 82.3466 95.0114C81.6193 94.5795 80.7841 94.3636 79.8409 94.3636C79.1477 94.3636 78.5057 94.4886 77.9148 94.7386C77.3352 94.9773 76.8295 95.3239 76.3977 95.7784C75.9659 96.2216 75.625 96.75 75.375 97.3636C75.1364 97.9659 75.0114 98.625 75 99.3409C75.0114 100.295 75.2273 101.148 75.6477 101.898C76.0682 102.648 76.642 103.239 77.3693 103.67C78.0966 104.102 78.9205 104.318 79.8409 104.318Z" fill="#432A6B"/>
<defs>
<linearGradient id="paint0_linear_5751_434" x1="125" y1="11" x2="39" y2="148" gradientUnits="userSpaceOnUse">
<stop stop-color="#D9D1FF"/>
<stop offset="1" stop-color="#6546A6"/>
</linearGradient>
</defs>
</svg>
