<svg width="160" height="160" viewBox="0 0 160 160" fill="none" xmlns="http://www.w3.org/2000/svg">
<circle cx="80" cy="80" r="79.75" fill="white" fill-opacity="0.04" stroke="url(#paint0_linear_5751_435)" stroke-width="0.5"/>
<g clip-path="url(#clip0_5751_435)">
<path d="M81.851 125.981C55.5732 126.748 34.0225 104.984 35.0353 78.7147C35.9725 54.3797 56.0036 34.9755 80.589 35C105.711 35.0246 126.037 55.4497 126.001 80.632C125.965 105.219 106.298 125.267 81.851 125.98V125.981ZM101.345 62.2141L71.7172 91.8505C71.5033 92.0652 71.1557 92.0652 70.941 91.8505C67.153 88.0606 63.3613 84.2662 59.576 80.4782C57.8444 78.7457 55.0364 78.7448 53.303 80.4764L53.2393 80.5401C51.5059 82.2717 51.5059 85.0806 53.2375 86.814C58.3085 91.8859 63.3822 96.9615 68.4423 102.023C70.0884 103.67 72.7572 103.67 74.4033 102.023C85.5208 90.9059 96.6592 79.7693 107.779 68.6491C109.51 66.9184 109.511 64.1141 107.783 62.3806L107.62 62.2169C105.889 60.4807 103.077 60.4789 101.343 62.2132L101.345 62.2141Z" fill="white"/>
</g>
<defs>
<linearGradient id="paint0_linear_5751_435" x1="125" y1="11" x2="39" y2="148" gradientUnits="userSpaceOnUse">
<stop stop-color="#D9D1FF"/>
<stop offset="1" stop-color="#6546A6"/>
</linearGradient>
<clipPath id="clip0_5751_435">
<rect width="91" height="91" fill="white" transform="translate(35 35)"/>
</clipPath>
</defs>
</svg>
