<svg width="130" height="83" viewBox="0 0 130 83" fill="none" xmlns="http://www.w3.org/2000/svg">
<path d="M0 38.9336C0 26.0746 8.66671 14.8308 21.102 11.557L23.2363 10.9951C50.6123 3.78783 79.3876 3.78783 106.764 10.9951L108.898 11.557C121.333 14.8308 130 26.0746 130 38.9336C130 52.064 120.971 63.471 108.192 66.4864L104.696 67.3113C78.5905 73.4712 51.4095 73.4712 25.3039 67.3113L21.8081 66.4864C9.02866 63.471 0 52.064 0 38.9336Z" fill="url(#paint0_linear_3771_3439)"/>
<path d="M0 45.1035C0 32.2445 8.66672 21.0008 21.102 17.7269L23.2363 17.165C50.6123 9.95776 79.3876 9.95775 106.764 17.165L108.898 17.7269C121.333 21.0008 130 32.2445 130 45.1035C130 58.2339 120.971 69.6409 108.192 72.6563L104.696 73.4812C78.5905 79.6411 51.4095 79.6411 25.3039 73.4812L21.8081 72.6563C9.02866 69.6409 0 58.2339 0 45.1035Z" fill="url(#paint1_linear_3771_3439)"/>
<path d="M41.568 49.8027V50.8477H35.4156V49.8027H41.568ZM35.7281 36.6289V50.8477H34.5953V36.6289H35.7281ZM50.8648 49.8027V50.8477H44.7125V49.8027H50.8648ZM45.025 36.6289V50.8477H43.8922V36.6289H45.025ZM62.1344 36.6289V50.8477H61.0113L54.3219 38.7285V50.8477H53.1891V36.6289H54.3219L61.0211 48.748V36.6289H62.1344ZM74.3023 36.5605V50.8477H73.2184V38.0645L70.0055 39.5V38.377L74.1168 36.5605H74.3023ZM86.6363 42.5176V44.9004C86.6363 45.9551 86.5517 46.8698 86.3824 47.6445C86.2197 48.4128 85.9788 49.0475 85.6598 49.5488C85.3473 50.0501 84.9631 50.4245 84.5074 50.6719C84.0517 50.9193 83.5341 51.043 82.9547 51.043C82.499 51.043 82.079 50.9648 81.6949 50.8086C81.3108 50.6523 80.9657 50.4147 80.6598 50.0957C80.3603 49.7702 80.1031 49.3633 79.8883 48.875C79.6799 48.3867 79.5204 47.8171 79.4098 47.166C79.3056 46.5085 79.2535 45.7533 79.2535 44.9004V42.5176C79.2535 41.4759 79.3381 40.571 79.5074 39.8027C79.6767 39.0345 79.9208 38.3997 80.2398 37.8984C80.5654 37.3971 80.9527 37.026 81.4019 36.7852C81.8577 36.5443 82.372 36.4238 82.9449 36.4238C83.4072 36.4238 83.8303 36.502 84.2144 36.6582C84.5986 36.8145 84.9404 37.0521 85.2398 37.3711C85.5393 37.6836 85.7932 38.0807 86.0016 38.5625C86.2099 39.0443 86.3661 39.6172 86.4703 40.2813C86.581 40.9388 86.6363 41.6842 86.6363 42.5176ZM85.5523 45.0469V42.3613C85.5523 41.7168 85.5165 41.1341 85.4449 40.6133C85.3798 40.0859 85.2789 39.627 85.1422 39.2363C85.0055 38.8392 84.8297 38.5072 84.6148 38.2402C84.4 37.9733 84.1526 37.7747 83.8727 37.6445C83.5992 37.5078 83.2867 37.4395 82.9352 37.4395C82.5055 37.4395 82.1279 37.5436 81.8023 37.752C81.4833 37.9603 81.2131 38.2728 80.9918 38.6895C80.7769 39.0996 80.6142 39.6139 80.5035 40.2324C80.3928 40.8444 80.3375 41.5573 80.3375 42.3711V45.0469C80.3375 45.6849 80.3733 46.2676 80.4449 46.7949C80.5165 47.3158 80.6207 47.778 80.7574 48.1816C80.9006 48.5788 81.0764 48.9173 81.2848 49.1973C81.4996 49.4707 81.7437 49.6758 82.0172 49.8125C82.2971 49.9492 82.6096 50.0176 82.9547 50.0176C83.3909 50.0176 83.7717 49.9102 84.0973 49.6953C84.4228 49.474 84.693 49.1517 84.9078 48.7285C85.1227 48.3053 85.2822 47.7878 85.3863 47.1758C85.497 46.5573 85.5523 45.8477 85.5523 45.0469ZM96.3629 42.5176V44.9004C96.3629 45.9551 96.2782 46.8698 96.109 47.6445C95.9462 48.4128 95.7053 49.0475 95.3863 49.5488C95.0738 50.0501 94.6897 50.4245 94.234 50.6719C93.7782 50.9193 93.2607 51.043 92.6812 51.043C92.2255 51.043 91.8056 50.9648 91.4215 50.8086C91.0374 50.6523 90.6923 50.4147 90.3863 50.0957C90.0868 49.7702 89.8297 49.3633 89.6148 48.875C89.4065 48.3867 89.247 47.8171 89.1363 47.166C89.0322 46.5085 88.9801 45.7533 88.9801 44.9004V42.5176C88.9801 41.4759 89.0647 40.571 89.234 39.8027C89.4032 39.0345 89.6474 38.3997 89.9664 37.8984C90.2919 37.3971 90.6793 37.026 91.1285 36.7852C91.5842 36.5443 92.0986 36.4238 92.6715 36.4238C93.1337 36.4238 93.5569 36.502 93.941 36.6582C94.3251 36.8145 94.6669 37.0521 94.9664 37.3711C95.2659 37.6836 95.5198 38.0807 95.7281 38.5625C95.9365 39.0443 96.0927 39.6172 96.1969 40.2813C96.3075 40.9388 96.3629 41.6842 96.3629 42.5176ZM95.2789 45.0469V42.3613C95.2789 41.7168 95.2431 41.1341 95.1715 40.6133C95.1064 40.0859 95.0055 39.627 94.8687 39.2363C94.732 38.8392 94.5562 38.5072 94.3414 38.2402C94.1266 37.9733 93.8792 37.7747 93.5992 37.6445C93.3258 37.5078 93.0133 37.4395 92.6617 37.4395C92.232 37.4395 91.8544 37.5436 91.5289 37.752C91.2099 37.9603 90.9397 38.2728 90.7184 38.6895C90.5035 39.0996 90.3407 39.6139 90.2301 40.2324C90.1194 40.8444 90.0641 41.5573 90.0641 42.3711V45.0469C90.0641 45.6849 90.0999 46.2676 90.1715 46.7949C90.2431 47.3158 90.3473 47.778 90.484 48.1816C90.6272 48.5788 90.803 48.9173 91.0113 49.1973C91.2262 49.4707 91.4703 49.6758 91.7437 49.8125C92.0237 49.9492 92.3362 50.0176 92.6812 50.0176C93.1174 50.0176 93.4983 49.9102 93.8238 49.6953C94.1493 49.474 94.4195 49.1517 94.6344 48.7285C94.8492 48.3053 95.0087 47.7878 95.1129 47.1758C95.2236 46.5573 95.2789 45.8477 95.2789 45.0469Z" fill="#F5E0E4"/>
<path d="M41.1275 49.3613V50.4062H34.9752V49.3613H41.1275ZM35.2877 36.1875V50.4062H34.1549V36.1875H35.2877ZM50.4244 49.3613V50.4062H44.2721V49.3613H50.4244ZM44.5846 36.1875V50.4062H43.4518V36.1875H44.5846ZM61.6939 36.1875V50.4062H60.5709L53.8814 38.2871V50.4062H52.7486V36.1875H53.8814L60.5807 48.3066V36.1875H61.6939ZM73.8619 36.1191V50.4063H72.7779V37.623L69.565 39.0586V37.9355L73.6764 36.1191H73.8619ZM86.1959 42.0762V44.459C86.1959 45.5137 86.1113 46.4284 85.942 47.2031C85.7792 47.9714 85.5383 48.6061 85.2193 49.1074C84.9068 49.6087 84.5227 49.9831 84.067 50.2305C83.6113 50.4779 83.0937 50.6016 82.5143 50.6016C82.0585 50.6016 81.6386 50.5234 81.2545 50.3672C80.8704 50.2109 80.5253 49.9733 80.2193 49.6543C79.9199 49.3288 79.6627 48.9219 79.4478 48.4336C79.2395 47.9453 79.08 47.3757 78.9693 46.7246C78.8652 46.0671 78.8131 45.3118 78.8131 44.459V42.0762C78.8131 41.0345 78.8977 40.1296 79.067 39.3613C79.2363 38.5931 79.4804 37.9583 79.7994 37.457C80.1249 36.9557 80.5123 36.5846 80.9615 36.3438C81.4172 36.1029 81.9316 35.9824 82.5045 35.9824C82.9667 35.9824 83.3899 36.0605 83.774 36.2168C84.1581 36.373 84.4999 36.6107 84.7994 36.9297C85.0989 37.2422 85.3528 37.6393 85.5611 38.1211C85.7695 38.6029 85.9257 39.1758 86.0299 39.8398C86.1406 40.4974 86.1959 41.2428 86.1959 42.0762ZM85.1119 44.6055V41.9199C85.1119 41.2754 85.0761 40.6927 85.0045 40.1719C84.9394 39.6445 84.8385 39.1855 84.7018 38.7949C84.565 38.3978 84.3893 38.0658 84.1744 37.7988C83.9596 37.5319 83.7122 37.3333 83.4322 37.2031C83.1588 37.0664 82.8463 36.998 82.4947 36.998C82.065 36.998 81.6874 37.1022 81.3619 37.3105C81.0429 37.5189 80.7727 37.8314 80.5514 38.248C80.3365 38.6582 80.1738 39.1725 80.0631 39.791C79.9524 40.403 79.8971 41.1159 79.8971 41.9297V44.6055C79.8971 45.2435 79.9329 45.8262 80.0045 46.3535C80.0761 46.8743 80.1803 47.3366 80.317 47.7402C80.4602 48.1374 80.636 48.4759 80.8443 48.7559C81.0592 49.0293 81.3033 49.2344 81.5768 49.3711C81.8567 49.5078 82.1692 49.5762 82.5143 49.5762C82.9504 49.5762 83.3313 49.4688 83.6568 49.2539C83.9824 49.0326 84.2525 48.7103 84.4674 48.2871C84.6822 47.8639 84.8417 47.3464 84.9459 46.7344C85.0566 46.1159 85.1119 45.4063 85.1119 44.6055ZM95.9225 42.0762V44.459C95.9225 45.5137 95.8378 46.4284 95.6685 47.2031C95.5058 47.9714 95.2649 48.6061 94.9459 49.1074C94.6334 49.6087 94.2493 49.9831 93.7935 50.2305C93.3378 50.4779 92.8202 50.6016 92.2408 50.6016C91.7851 50.6016 91.3652 50.5234 90.981 50.3672C90.5969 50.2109 90.2519 49.9733 89.9459 49.6543C89.6464 49.3288 89.3893 48.9219 89.1744 48.4336C88.9661 47.9453 88.8066 47.3757 88.6959 46.7246C88.5917 46.0671 88.5396 45.3118 88.5396 44.459V42.0762C88.5396 41.0345 88.6243 40.1296 88.7935 39.3613C88.9628 38.5931 89.207 37.9583 89.526 37.457C89.8515 36.9557 90.2389 36.5846 90.6881 36.3438C91.1438 36.1029 91.6581 35.9824 92.231 35.9824C92.6933 35.9824 93.1165 36.0605 93.5006 36.2168C93.8847 36.373 94.2265 36.6107 94.526 36.9297C94.8254 37.2422 95.0794 37.6393 95.2877 38.1211C95.496 38.6029 95.6523 39.1758 95.7564 39.8398C95.8671 40.4974 95.9225 41.2428 95.9225 42.0762ZM94.8385 44.6055V41.9199C94.8385 41.2754 94.8027 40.6927 94.731 40.1719C94.6659 39.6445 94.565 39.1855 94.4283 38.7949C94.2916 38.3978 94.1158 38.0658 93.901 37.7988C93.6861 37.5319 93.4387 37.3333 93.1588 37.2031C92.8853 37.0664 92.5728 36.998 92.2213 36.998C91.7916 36.998 91.414 37.1022 91.0885 37.3105C90.7695 37.5189 90.4993 37.8314 90.2779 38.248C90.0631 38.6582 89.9003 39.1725 89.7896 39.791C89.679 40.403 89.6236 41.1159 89.6236 41.9297V44.6055C89.6236 45.2435 89.6594 45.8262 89.731 46.3535C89.8027 46.8743 89.9068 47.3366 90.0435 47.7402C90.1868 48.1374 90.3626 48.4759 90.5709 48.7559C90.7857 49.0293 91.0299 49.2344 91.3033 49.3711C91.5833 49.5078 91.8958 49.5762 92.2408 49.5762C92.677 49.5762 93.0579 49.4688 93.3834 49.2539C93.7089 49.0326 93.9791 48.7103 94.1939 48.2871C94.4088 47.8639 94.5683 47.3464 94.6725 46.7344C94.7831 46.1159 94.8385 45.4063 94.8385 44.6055Z" fill="#BD8D90"/>
<defs>
<linearGradient id="paint0_linear_3771_3439" x1="34.5932" y1="14.7627" x2="92.5424" y2="40.9831" gradientUnits="userSpaceOnUse">
<stop stop-color="#F6D3DA"/>
<stop offset="1" stop-color="#F8D4D6"/>
</linearGradient>
<linearGradient id="paint1_linear_3771_3439" x1="65" y1="6.16992" x2="65" y2="82.8479" gradientUnits="userSpaceOnUse">
<stop stop-color="#FFECEF"/>
<stop offset="0.41" stop-color="#F8D4D9"/>
<stop offset="1" stop-color="#D7ADAF"/>
</linearGradient>
</defs>
</svg>
