<svg width="232" height="62" viewBox="0 0 232 62" fill="none" xmlns="http://www.w3.org/2000/svg">
<circle cx="35" cy="29" r="29" fill="url(#paint0_linear_3771_3451)"/>
<circle cx="35" cy="33" r="29" fill="url(#paint1_linear_3771_3451)"/>
<path d="M32.8652 29.9746V31H25.3164V30.082L29.2227 24.7891C29.7109 24.138 30.0983 23.5651 30.3848 23.0703C30.6712 22.569 30.8763 22.1165 31 21.7129C31.1237 21.3027 31.1855 20.8991 31.1855 20.502C31.1855 19.9355 31.0911 19.4342 30.9023 18.998C30.7201 18.5618 30.4499 18.2201 30.0918 17.9727C29.7337 17.7253 29.2943 17.6016 28.7734 17.6016C28.2201 17.6016 27.748 17.7448 27.3574 18.0313C26.9733 18.3112 26.6738 18.6986 26.459 19.1934C26.2507 19.6882 26.1465 20.2513 26.1465 20.8828H25.0625C25.0625 20.0951 25.209 19.3789 25.502 18.7344C25.7949 18.0833 26.2181 17.5625 26.7715 17.1719C27.3249 16.7813 27.9922 16.5859 28.7734 16.5859C29.4961 16.5859 30.1178 16.7389 30.6387 17.0449C31.1595 17.3444 31.5632 17.7773 31.8496 18.3438C32.1361 18.9102 32.2793 19.5938 32.2793 20.3945C32.2793 20.8177 32.2142 21.2474 32.084 21.6836C31.9603 22.1198 31.7878 22.556 31.5664 22.9922C31.3516 23.4219 31.1009 23.8483 30.8145 24.2715C30.5345 24.6882 30.2448 25.1016 29.9453 25.5117L26.6348 29.9746L32.8652 29.9746ZM36.5859 23.9785L35.7168 23.7148L36.3027 16.7813H42.3086V17.8848H37.2305L36.8301 22.6504C37.0319 22.4681 37.3249 22.2956 37.709 22.1328C38.0931 21.9635 38.5293 21.8789 39.0176 21.8789C39.5514 21.8789 40.0365 21.9863 40.4727 22.2012C40.9089 22.4095 41.2832 22.7122 41.5957 23.1094C41.9082 23.5065 42.1458 23.9883 42.3086 24.5547C42.4779 25.1211 42.5625 25.7591 42.5625 26.4688C42.5625 27.1523 42.4909 27.7806 42.3477 28.3535C42.2044 28.9264 41.9863 29.4277 41.6934 29.8574C41.4004 30.2806 41.026 30.6094 40.5703 30.8438C40.1146 31.0781 39.5775 31.1953 38.959 31.1953C38.4837 31.1953 38.0345 31.1172 37.6113 30.9609C37.1947 30.7982 36.8203 30.554 36.4883 30.2285C36.1562 29.8965 35.8861 29.4831 35.6777 28.9883C35.4759 28.4935 35.349 27.9173 35.2969 27.2598H36.332C36.3971 27.8913 36.5404 28.4251 36.7617 28.8613C36.9831 29.291 37.276 29.6165 37.6406 29.8379C38.0117 30.0592 38.4479 30.1699 38.9492 30.1699C39.3594 30.1699 39.7207 30.0918 40.0332 29.9355C40.3522 29.7728 40.6191 29.5319 40.834 29.2129C41.0488 28.8939 41.2083 28.5065 41.3125 28.0508C41.4232 27.5951 41.4785 27.0742 41.4785 26.4883C41.4785 25.987 41.4199 25.5247 41.3027 25.1016C41.1855 24.6719 41.013 24.2975 40.7852 23.9785C40.5573 23.6595 40.2773 23.4121 39.9453 23.2363C39.6133 23.054 39.2357 22.9629 38.8125 22.9629C38.2526 22.9629 37.8099 23.054 37.4844 23.2363C37.1654 23.4186 36.8659 23.666 36.5859 23.9785ZM29.1934 47.9551L29.1934 49H23.041L23.041 47.9551H29.1934ZM23.3535 34.7812L23.3535 49H22.2207L22.2207 34.7812H23.3535ZM38.4902 47.9551V49H32.3379V47.9551H38.4902ZM32.6504 34.7812L32.6504 49H31.5176L31.5176 34.7812H32.6504ZM49.7598 34.7813L49.7598 49H48.6367L41.9473 36.8809L41.9473 49H40.8145L40.8145 34.7813H41.9473L48.6465 46.9004L48.6465 34.7813H49.7598Z" fill="white"/>
<path d="M32.8652 28.9746V30H25.3164V29.082L29.2227 23.7891C29.7109 23.138 30.0983 22.5651 30.3848 22.0703C30.6712 21.569 30.8763 21.1165 31 20.7129C31.1237 20.3027 31.1855 19.8991 31.1855 19.502C31.1855 18.9355 31.0911 18.4342 30.9023 17.998C30.7201 17.5618 30.4499 17.2201 30.0918 16.9727C29.7337 16.7253 29.2943 16.6016 28.7734 16.6016C28.2201 16.6016 27.748 16.7448 27.3574 17.0313C26.9733 17.3112 26.6738 17.6986 26.459 18.1934C26.2507 18.6882 26.1465 19.2513 26.1465 19.8828H25.0625C25.0625 19.0951 25.209 18.3789 25.502 17.7344C25.7949 17.0833 26.2181 16.5625 26.7715 16.1719C27.3249 15.7813 27.9922 15.5859 28.7734 15.5859C29.4961 15.5859 30.1178 15.7389 30.6387 16.0449C31.1595 16.3444 31.5632 16.7773 31.8496 17.3438C32.1361 17.9102 32.2793 18.5938 32.2793 19.3945C32.2793 19.8177 32.2142 20.2474 32.084 20.6836C31.9603 21.1198 31.7878 21.556 31.5664 21.9922C31.3516 22.4219 31.1009 22.8483 30.8145 23.2715C30.5345 23.6882 30.2448 24.1016 29.9453 24.5117L26.6348 28.9746L32.8652 28.9746ZM36.5859 22.9785L35.7168 22.7148L36.3027 15.7813L42.3086 15.7813V16.8848H37.2305L36.8301 21.6504C37.0319 21.4681 37.3249 21.2956 37.709 21.1328C38.0931 20.9635 38.5293 20.8789 39.0176 20.8789C39.5514 20.8789 40.0365 20.9863 40.4727 21.2012C40.9089 21.4095 41.2832 21.7122 41.5957 22.1094C41.9082 22.5065 42.1458 22.9883 42.3086 23.5547C42.4779 24.1211 42.5625 24.7591 42.5625 25.4688C42.5625 26.1523 42.4909 26.7806 42.3477 27.3535C42.2044 27.9264 41.9863 28.4277 41.6934 28.8574C41.4004 29.2806 41.026 29.6094 40.5703 29.8438C40.1146 30.0781 39.5775 30.1953 38.959 30.1953C38.4837 30.1953 38.0345 30.1172 37.6113 29.9609C37.1947 29.7982 36.8203 29.554 36.4883 29.2285C36.1562 28.8965 35.8861 28.4831 35.6777 27.9883C35.4759 27.4935 35.349 26.9173 35.2969 26.2598H36.332C36.3971 26.8913 36.5404 27.4251 36.7617 27.8613C36.9831 28.291 37.276 28.6165 37.6406 28.8379C38.0117 29.0592 38.4479 29.1699 38.9492 29.1699C39.3594 29.1699 39.7207 29.0918 40.0332 28.9355C40.3522 28.7728 40.6191 28.5319 40.834 28.2129C41.0488 27.8939 41.2083 27.5065 41.3125 27.0508C41.4232 26.5951 41.4785 26.0742 41.4785 25.4883C41.4785 24.987 41.4199 24.5247 41.3027 24.1016C41.1855 23.6719 41.013 23.2975 40.7852 22.9785C40.5573 22.6595 40.2773 22.4121 39.9453 22.2363C39.6133 22.054 39.2357 21.9629 38.8125 21.9629C38.2526 21.9629 37.8099 22.054 37.4844 22.2363C37.1654 22.4186 36.8659 22.666 36.5859 22.9785ZM29.1934 46.9551L29.1934 48H23.041L23.041 46.9551H29.1934ZM23.3535 33.7812L23.3535 48H22.2207L22.2207 33.7812H23.3535ZM38.4902 46.9551V48H32.3379V46.9551H38.4902ZM32.6504 33.7812L32.6504 48H31.5176L31.5176 33.7812H32.6504ZM49.7598 33.7813L49.7598 48H48.6367L41.9473 35.8809L41.9473 48H40.8145L40.8145 33.7813H41.9473L48.6465 45.9004L48.6465 33.7813H49.7598Z" fill="#CAABB1"/>
<circle cx="115" cy="29" r="29" fill="url(#paint2_linear_3771_3451)"/>
<circle cx="115" cy="33" r="29" fill="url(#paint3_linear_3771_3451)"/>
<path d="M112.865 29.9746V31H105.316V30.082L109.223 24.7891C109.711 24.138 110.098 23.5651 110.385 23.0703C110.671 22.569 110.876 22.1165 111 21.7129C111.124 21.3027 111.186 20.8991 111.186 20.502C111.186 19.9355 111.091 19.4342 110.902 18.998C110.72 18.5618 110.45 18.2201 110.092 17.9727C109.734 17.7253 109.294 17.6016 108.773 17.6016C108.22 17.6016 107.748 17.7448 107.357 18.0313C106.973 18.3112 106.674 18.6986 106.459 19.1934C106.251 19.6882 106.146 20.2513 106.146 20.8828H105.062C105.062 20.0951 105.209 19.3789 105.502 18.7344C105.795 18.0833 106.218 17.5625 106.771 17.1719C107.325 16.7813 107.992 16.5859 108.773 16.5859C109.496 16.5859 110.118 16.7389 110.639 17.0449C111.16 17.3444 111.563 17.7773 111.85 18.3438C112.136 18.9102 112.279 19.5938 112.279 20.3945C112.279 20.8177 112.214 21.2474 112.084 21.6836C111.96 22.1198 111.788 22.556 111.566 22.9922C111.352 23.4219 111.101 23.8483 110.814 24.2715C110.535 24.6882 110.245 25.1016 109.945 25.5117L106.635 29.9746L112.865 29.9746ZM116.586 23.9785L115.717 23.7148L116.303 16.7813H122.309V17.8848H117.23L116.83 22.6504C117.032 22.4681 117.325 22.2956 117.709 22.1328C118.093 21.9635 118.529 21.8789 119.018 21.8789C119.551 21.8789 120.036 21.9863 120.473 22.2012C120.909 22.4095 121.283 22.7122 121.596 23.1094C121.908 23.5065 122.146 23.9883 122.309 24.5547C122.478 25.1211 122.562 25.7591 122.562 26.4688C122.562 27.1523 122.491 27.7806 122.348 28.3535C122.204 28.9264 121.986 29.4277 121.693 29.8574C121.4 30.2806 121.026 30.6094 120.57 30.8438C120.115 31.0781 119.577 31.1953 118.959 31.1953C118.484 31.1953 118.035 31.1172 117.611 30.9609C117.195 30.7982 116.82 30.554 116.488 30.2285C116.156 29.8965 115.886 29.4831 115.678 28.9883C115.476 28.4935 115.349 27.9173 115.297 27.2598H116.332C116.397 27.8913 116.54 28.4251 116.762 28.8613C116.983 29.291 117.276 29.6165 117.641 29.8379C118.012 30.0592 118.448 30.1699 118.949 30.1699C119.359 30.1699 119.721 30.0918 120.033 29.9355C120.352 29.7728 120.619 29.5319 120.834 29.2129C121.049 28.8939 121.208 28.5065 121.312 28.0508C121.423 27.5951 121.479 27.0742 121.479 26.4883C121.479 25.987 121.42 25.5247 121.303 25.1016C121.186 24.6719 121.013 24.2975 120.785 23.9785C120.557 23.6595 120.277 23.4121 119.945 23.2363C119.613 23.054 119.236 22.9629 118.812 22.9629C118.253 22.9629 117.81 23.054 117.484 23.2363C117.165 23.4186 116.866 23.666 116.586 23.9785ZM109.193 47.9551V49H103.041V47.9551H109.193ZM103.354 34.7812V49H102.221V34.7812H103.354ZM118.49 47.9551V49H112.338V47.9551H118.49ZM112.65 34.7812V49H111.518V34.7812H112.65ZM129.76 34.7813V49H128.637L121.947 36.8809V49H120.814V34.7813H121.947L128.646 46.9004V34.7813H129.76Z" fill="white"/>
<path d="M112.865 28.9746V30H105.316V29.082L109.223 23.7891C109.711 23.138 110.098 22.5651 110.385 22.0703C110.671 21.569 110.876 21.1165 111 20.7129C111.124 20.3027 111.186 19.8991 111.186 19.502C111.186 18.9355 111.091 18.4342 110.902 17.998C110.72 17.5618 110.45 17.2201 110.092 16.9727C109.734 16.7253 109.294 16.6016 108.773 16.6016C108.22 16.6016 107.748 16.7448 107.357 17.0313C106.973 17.3112 106.674 17.6986 106.459 18.1934C106.251 18.6882 106.146 19.2513 106.146 19.8828H105.062C105.062 19.0951 105.209 18.3789 105.502 17.7344C105.795 17.0833 106.218 16.5625 106.771 16.1719C107.325 15.7813 107.992 15.5859 108.773 15.5859C109.496 15.5859 110.118 15.7389 110.639 16.0449C111.16 16.3444 111.563 16.7773 111.85 17.3438C112.136 17.9102 112.279 18.5938 112.279 19.3945C112.279 19.8177 112.214 20.2474 112.084 20.6836C111.96 21.1198 111.788 21.556 111.566 21.9922C111.352 22.4219 111.101 22.8483 110.814 23.2715C110.535 23.6882 110.245 24.1016 109.945 24.5117L106.635 28.9746L112.865 28.9746ZM116.586 22.9785L115.717 22.7148L116.303 15.7813L122.309 15.7813V16.8848H117.23L116.83 21.6504C117.032 21.4681 117.325 21.2956 117.709 21.1328C118.093 20.9635 118.529 20.8789 119.018 20.8789C119.551 20.8789 120.036 20.9863 120.473 21.2012C120.909 21.4095 121.283 21.7122 121.596 22.1094C121.908 22.5065 122.146 22.9883 122.309 23.5547C122.478 24.1211 122.562 24.7591 122.562 25.4688C122.562 26.1523 122.491 26.7806 122.348 27.3535C122.204 27.9264 121.986 28.4277 121.693 28.8574C121.4 29.2806 121.026 29.6094 120.57 29.8438C120.115 30.0781 119.577 30.1953 118.959 30.1953C118.484 30.1953 118.035 30.1172 117.611 29.9609C117.195 29.7982 116.82 29.554 116.488 29.2285C116.156 28.8965 115.886 28.4831 115.678 27.9883C115.476 27.4935 115.349 26.9173 115.297 26.2598H116.332C116.397 26.8913 116.54 27.4251 116.762 27.8613C116.983 28.291 117.276 28.6165 117.641 28.8379C118.012 29.0592 118.448 29.1699 118.949 29.1699C119.359 29.1699 119.721 29.0918 120.033 28.9355C120.352 28.7728 120.619 28.5319 120.834 28.2129C121.049 27.8939 121.208 27.5065 121.312 27.0508C121.423 26.5951 121.479 26.0742 121.479 25.4883C121.479 24.987 121.42 24.5247 121.303 24.1016C121.186 23.6719 121.013 23.2975 120.785 22.9785C120.557 22.6595 120.277 22.4121 119.945 22.2363C119.613 22.054 119.236 21.9629 118.812 21.9629C118.253 21.9629 117.81 22.054 117.484 22.2363C117.165 22.4186 116.866 22.666 116.586 22.9785ZM109.193 46.9551V48H103.041V46.9551H109.193ZM103.354 33.7812V48H102.221V33.7812H103.354ZM118.49 46.9551V48H112.338V46.9551H118.49ZM112.65 33.7812V48H111.518V33.7812H112.65ZM129.76 33.7813V48H128.637L121.947 35.8809V48H120.814V33.7813H121.947L128.646 45.9004V33.7813H129.76Z" fill="#CAABB1"/>
<circle cx="195" cy="29" r="29" fill="url(#paint4_linear_3771_3451)"/>
<circle cx="195" cy="33" r="29" fill="url(#paint5_linear_3771_3451)"/>
<path d="M192.865 29.9746V31H185.316V30.082L189.223 24.7891C189.711 24.138 190.098 23.5651 190.385 23.0703C190.671 22.569 190.876 22.1165 191 21.7129C191.124 21.3027 191.186 20.8991 191.186 20.502C191.186 19.9355 191.091 19.4342 190.902 18.998C190.72 18.5618 190.45 18.2201 190.092 17.9727C189.734 17.7253 189.294 17.6016 188.773 17.6016C188.22 17.6016 187.748 17.7448 187.357 18.0313C186.973 18.3112 186.674 18.6986 186.459 19.1934C186.251 19.6882 186.146 20.2513 186.146 20.8828H185.062C185.062 20.0951 185.209 19.3789 185.502 18.7344C185.795 18.0833 186.218 17.5625 186.771 17.1719C187.325 16.7813 187.992 16.5859 188.773 16.5859C189.496 16.5859 190.118 16.7389 190.639 17.0449C191.16 17.3444 191.563 17.7773 191.85 18.3438C192.136 18.9102 192.279 19.5938 192.279 20.3945C192.279 20.8177 192.214 21.2474 192.084 21.6836C191.96 22.1198 191.788 22.556 191.566 22.9922C191.352 23.4219 191.101 23.8483 190.814 24.2715C190.535 24.6882 190.245 25.1016 189.945 25.5117L186.635 29.9746L192.865 29.9746ZM196.586 23.9785L195.717 23.7148L196.303 16.7813H202.309V17.8848H197.23L196.83 22.6504C197.032 22.4681 197.325 22.2956 197.709 22.1328C198.093 21.9635 198.529 21.8789 199.018 21.8789C199.551 21.8789 200.036 21.9863 200.473 22.2012C200.909 22.4095 201.283 22.7122 201.596 23.1094C201.908 23.5065 202.146 23.9883 202.309 24.5547C202.478 25.1211 202.562 25.7591 202.562 26.4688C202.562 27.1523 202.491 27.7806 202.348 28.3535C202.204 28.9264 201.986 29.4277 201.693 29.8574C201.4 30.2806 201.026 30.6094 200.57 30.8438C200.115 31.0781 199.577 31.1953 198.959 31.1953C198.484 31.1953 198.035 31.1172 197.611 30.9609C197.195 30.7982 196.82 30.554 196.488 30.2285C196.156 29.8965 195.886 29.4831 195.678 28.9883C195.476 28.4935 195.349 27.9173 195.297 27.2598H196.332C196.397 27.8913 196.54 28.4251 196.762 28.8613C196.983 29.291 197.276 29.6165 197.641 29.8379C198.012 30.0592 198.448 30.1699 198.949 30.1699C199.359 30.1699 199.721 30.0918 200.033 29.9355C200.352 29.7728 200.619 29.5319 200.834 29.2129C201.049 28.8939 201.208 28.5065 201.312 28.0508C201.423 27.5951 201.479 27.0742 201.479 26.4883C201.479 25.987 201.42 25.5247 201.303 25.1016C201.186 24.6719 201.013 24.2975 200.785 23.9785C200.557 23.6595 200.277 23.4121 199.945 23.2363C199.613 23.054 199.236 22.9629 198.812 22.9629C198.253 22.9629 197.81 23.054 197.484 23.2363C197.165 23.4186 196.866 23.666 196.586 23.9785ZM189.193 47.9551V49H183.041V47.9551H189.193ZM183.354 34.7812V49H182.221V34.7812H183.354ZM198.49 47.9551V49H192.338V47.9551H198.49ZM192.65 34.7812V49H191.518V34.7812H192.65ZM209.76 34.7813V49H208.637L201.947 36.8809V49H200.814V34.7813H201.947L208.646 46.9004V34.7813H209.76Z" fill="white"/>
<path d="M192.865 28.9746V30H185.316V29.082L189.223 23.7891C189.711 23.138 190.098 22.5651 190.385 22.0703C190.671 21.569 190.876 21.1165 191 20.7129C191.124 20.3027 191.186 19.8991 191.186 19.502C191.186 18.9355 191.091 18.4342 190.902 17.998C190.72 17.5618 190.45 17.2201 190.092 16.9727C189.734 16.7253 189.294 16.6016 188.773 16.6016C188.22 16.6016 187.748 16.7448 187.357 17.0313C186.973 17.3112 186.674 17.6986 186.459 18.1934C186.251 18.6882 186.146 19.2513 186.146 19.8828H185.062C185.062 19.0951 185.209 18.3789 185.502 17.7344C185.795 17.0833 186.218 16.5625 186.771 16.1719C187.325 15.7813 187.992 15.5859 188.773 15.5859C189.496 15.5859 190.118 15.7389 190.639 16.0449C191.16 16.3444 191.563 16.7773 191.85 17.3438C192.136 17.9102 192.279 18.5938 192.279 19.3945C192.279 19.8177 192.214 20.2474 192.084 20.6836C191.96 21.1198 191.788 21.556 191.566 21.9922C191.352 22.4219 191.101 22.8483 190.814 23.2715C190.535 23.6882 190.245 24.1016 189.945 24.5117L186.635 28.9746L192.865 28.9746ZM196.586 22.9785L195.717 22.7148L196.303 15.7813L202.309 15.7813V16.8848H197.23L196.83 21.6504C197.032 21.4681 197.325 21.2956 197.709 21.1328C198.093 20.9635 198.529 20.8789 199.018 20.8789C199.551 20.8789 200.036 20.9863 200.473 21.2012C200.909 21.4095 201.283 21.7122 201.596 22.1094C201.908 22.5065 202.146 22.9883 202.309 23.5547C202.478 24.1211 202.562 24.7591 202.562 25.4688C202.562 26.1523 202.491 26.7806 202.348 27.3535C202.204 27.9264 201.986 28.4277 201.693 28.8574C201.4 29.2806 201.026 29.6094 200.57 29.8438C200.115 30.0781 199.577 30.1953 198.959 30.1953C198.484 30.1953 198.035 30.1172 197.611 29.9609C197.195 29.7982 196.82 29.554 196.488 29.2285C196.156 28.8965 195.886 28.4831 195.678 27.9883C195.476 27.4935 195.349 26.9173 195.297 26.2598H196.332C196.397 26.8913 196.54 27.4251 196.762 27.8613C196.983 28.291 197.276 28.6165 197.641 28.8379C198.012 29.0592 198.448 29.1699 198.949 29.1699C199.359 29.1699 199.721 29.0918 200.033 28.9355C200.352 28.7728 200.619 28.5319 200.834 28.2129C201.049 27.8939 201.208 27.5065 201.312 27.0508C201.423 26.5951 201.479 26.0742 201.479 25.4883C201.479 24.987 201.42 24.5247 201.303 24.1016C201.186 23.6719 201.013 23.2975 200.785 22.9785C200.557 22.6595 200.277 22.4121 199.945 22.2363C199.613 22.054 199.236 21.9629 198.812 21.9629C198.253 21.9629 197.81 22.054 197.484 22.2363C197.165 22.4186 196.866 22.666 196.586 22.9785ZM189.193 46.9551V48H183.041V46.9551H189.193ZM183.354 33.7812V48H182.221V33.7812H183.354ZM198.49 46.9551V48H192.338V46.9551H198.49ZM192.65 33.7812V48H191.518V33.7812H192.65ZM209.76 33.7813V48H208.637L201.947 35.8809V48H200.814V33.7813H201.947L208.646 45.9004V33.7813H209.76Z" fill="#CAABB1"/>
<defs>
<linearGradient id="paint0_linear_3771_3451" x1="11.5" y1="13.5" x2="64" y2="29" gradientUnits="userSpaceOnUse">
<stop stop-color="#EFE9EB"/>
<stop offset="1" stop-color="#ECE0E2"/>
</linearGradient>
<linearGradient id="paint1_linear_3771_3451" x1="14" y1="12" x2="55.5" y2="62" gradientUnits="userSpaceOnUse">
<stop stop-color="#FAF4F6"/>
<stop offset="1" stop-color="#D4CBCF"/>
</linearGradient>
<linearGradient id="paint2_linear_3771_3451" x1="91.5" y1="13.5" x2="144" y2="29" gradientUnits="userSpaceOnUse">
<stop stop-color="#EFE9EB"/>
<stop offset="1" stop-color="#ECE0E2"/>
</linearGradient>
<linearGradient id="paint3_linear_3771_3451" x1="94" y1="12" x2="135.5" y2="62" gradientUnits="userSpaceOnUse">
<stop stop-color="#FAF4F6"/>
<stop offset="1" stop-color="#D4CBCF"/>
</linearGradient>
<linearGradient id="paint4_linear_3771_3451" x1="171.5" y1="13.5" x2="224" y2="29" gradientUnits="userSpaceOnUse">
<stop stop-color="#EFE9EB"/>
<stop offset="1" stop-color="#ECE0E2"/>
</linearGradient>
<linearGradient id="paint5_linear_3771_3451" x1="174" y1="12" x2="215.5" y2="62" gradientUnits="userSpaceOnUse">
<stop stop-color="#FAF4F6"/>
<stop offset="1" stop-color="#D4CBCF"/>
</linearGradient>
</defs>
</svg>
