<svg width="100" height="100" viewBox="0 0 100 100" fill="none" xmlns="http://www.w3.org/2000/svg">
<circle cx="50" cy="50" r="49.75" fill="white" fill-opacity="0.04" stroke="url(#paint0_linear_3820_4658)" stroke-width="0.5"/>
<g clip-path="url(#clip0_3820_4658)">
<path d="M61.1678 71.327H38.7714C38.7714 70.6001 38.7714 69.8942 38.7714 69.1882C38.7714 66.0879 38.7897 62.9865 38.7668 59.8863C38.7519 57.8972 38.8999 55.9523 39.8862 54.1688C41.4725 51.3008 43.8466 49.5103 47.0902 49.2037C49.087 49.0145 51.132 49.0203 53.1254 49.2246C55.7015 49.4894 57.7511 50.8769 59.3063 52.9751C60.5783 54.6901 61.1609 56.6397 61.1644 58.7727C61.1701 62.8019 61.1667 66.8299 61.1678 70.8591C61.1678 71.0019 61.1678 71.1447 61.1678 71.3259V71.327Z" fill="white"/>
<path d="M74.9988 66.7196H61.9569C61.9569 65.7628 61.9569 64.8269 61.9569 63.8898C61.9546 61.7754 62.0154 59.6575 61.9328 57.5454C61.8101 54.4207 60.3879 51.9695 57.8875 50.1558C56.8186 49.3802 55.6212 48.8913 54.2942 48.6254C54.925 47.6454 55.7187 46.8628 56.6351 46.2137C58.2614 45.0642 60.0702 44.4755 62.0613 44.4825C63.2633 44.486 64.4664 44.4825 65.6684 44.4825C69.3719 44.4802 72.9332 46.9383 74.2958 50.4241C74.7752 51.6502 75 52.917 75 54.2315C75 58.2165 75 62.2015 74.9988 66.1854C74.9988 66.355 74.9988 66.5256 74.9988 66.7184V66.7196Z" fill="white"/>
<path d="M25.0023 66.7073C25.0023 66.4971 25.0023 66.3241 25.0023 66.1511C25.0023 62.2113 24.9954 58.2704 25.0057 54.3306C25.0149 50.4338 26.6918 47.4996 30.0466 45.5872C31.2807 44.8836 32.6387 44.519 34.0597 44.4899C35.49 44.4609 36.9248 44.4214 38.3516 44.4958C41.3532 44.6513 43.7664 45.975 45.5705 48.4193C45.5957 48.4541 45.6187 48.4912 45.6359 48.5307C45.6462 48.5551 45.6439 48.5865 45.6485 48.6271C43.7193 49.0556 42.0276 49.9392 40.6627 51.3988C39.0822 53.0871 38.1303 55.0912 38.0729 57.4274C38.0018 60.3221 38.0477 63.2204 38.0431 66.1174C38.0431 66.302 38.0431 66.4878 38.0431 66.7084H25.0023V66.7073Z" fill="white"/>
<path d="M29.1198 36.9465C29.1118 33.2726 32.048 30.2653 35.6976 30.3291C39.3277 30.3918 42.1491 33.1971 42.1526 36.943C42.156 40.805 39.1017 43.5209 35.6769 43.5302C32.0159 43.5395 29.129 40.6331 29.1198 36.9476V36.9465Z" fill="white"/>
<path d="M70.8813 36.9659C70.8756 40.6455 67.8981 43.5925 64.2175 43.538C60.7113 43.4869 57.7717 40.4841 57.8336 36.8846C57.8979 33.1724 60.748 30.3601 64.3598 30.3265C67.983 30.2928 70.8997 33.2978 70.8824 36.9647L70.8813 36.9659Z" fill="white"/>
<path d="M49.9667 47.8969C46.3114 47.8772 43.4464 44.9592 43.4555 41.2633C43.4636 37.6022 46.4043 34.6668 50.0367 34.6935C53.5854 34.7202 56.5548 37.7311 56.5009 41.319C56.4436 45.1543 53.4615 47.9097 49.9679 47.8969H49.9667Z" fill="white"/>
</g>
<defs>
<linearGradient id="paint0_linear_3820_4658" x1="78.125" y1="6.875" x2="24.375" y2="92.5" gradientUnits="userSpaceOnUse">
<stop stop-color="#D9D1FF"/>
<stop offset="1" stop-color="#6546A6"/>
</linearGradient>
<clipPath id="clip0_3820_4658">
<rect width="50" height="41" fill="white" transform="translate(25 30.3262)"/>
</clipPath>
</defs>
</svg>
