<svg width="100" height="100" viewBox="0 0 100 100" fill="none" xmlns="http://www.w3.org/2000/svg">
<circle cx="50" cy="50" r="49.75" fill="white" fill-opacity="0.04" stroke="url(#paint0_linear_3820_4649)" stroke-width="0.5"/>
<path d="M74.9949 49.5142C75.2645 62.8433 64.8874 74.349 51.1396 74.9732C37.0201 75.6151 25.6413 64.6481 25.0259 51.0667C24.4043 37.3572 35.0542 25.5681 48.8801 25.0211C63.1131 24.4584 74.4982 35.2357 74.9949 49.5142ZM51.6759 42.0035C51.6759 39.6934 51.6842 37.3833 51.6717 35.0742C51.6665 34.0562 50.9407 33.3164 49.9994 33.3195C49.0581 33.3237 48.3459 34.0697 48.3449 35.0857C48.3407 40.0185 48.3449 44.9502 48.3418 49.883C48.3418 50.4144 48.5146 50.8604 48.8967 51.2366C49.4788 51.8086 50.0463 52.3953 50.6232 52.9715C52.9202 55.266 55.2193 57.5583 57.5163 59.8539C58.0109 60.3478 58.5638 60.6656 59.2864 60.452C60.6067 60.0602 60.9358 58.5816 59.9216 57.5625C57.3247 54.9534 54.7257 52.3473 52.109 49.759C51.7831 49.4371 51.6634 49.1192 51.6675 48.6722C51.6873 46.4497 51.6759 44.226 51.6759 42.0035Z" fill="white"/>
<defs>
<linearGradient id="paint0_linear_3820_4649" x1="78.125" y1="6.875" x2="24.375" y2="92.5" gradientUnits="userSpaceOnUse">
<stop stop-color="#D9D1FF"/>
<stop offset="1" stop-color="#6546A6"/>
</linearGradient>
</defs>
</svg>
