<svg width="100" height="100" viewBox="0 0 100 100" fill="none" xmlns="http://www.w3.org/2000/svg">
<circle cx="50" cy="50" r="49.75" fill="white" fill-opacity="0.04" stroke="url(#paint0_linear_3820_4673)" stroke-width="0.5"/>
<path d="M54.1078 29.9867C56.2319 29.9926 58.1224 30.671 59.8344 31.8827C59.9971 31.9978 60.1575 32.1198 60.3013 32.257C60.4969 32.4436 60.4816 32.5948 60.2463 32.7379C59.9769 32.9018 59.6869 33.0325 59.4169 33.1952C58.7775 33.5806 58.2047 34.0399 57.8032 34.6811C56.974 36.0046 57.2 37.5838 58.3382 38.6355C58.9294 39.1819 59.6431 39.5011 60.4399 39.6287C60.9063 39.7033 61.2035 39.4434 61.1877 38.9944C61.1805 38.7874 61.0709 38.6491 60.8887 38.5691C60.7985 38.5296 60.6974 38.5119 60.5996 38.4928C59.9375 38.3639 59.3754 38.0544 58.9644 37.5256C58.45 36.8641 58.3983 36.1382 58.8297 35.4221C59.3434 34.5698 60.1035 34.0475 61.1087 33.8956C61.6493 33.8138 62.1829 33.869 62.7198 33.9345C63.4507 34.0236 64.1557 34.2058 64.8402 34.4699C65.5508 34.744 66.2024 35.1206 66.7926 35.5986C67.7785 36.3974 68.5183 37.3864 69.0609 38.5227C69.2997 39.0225 69.5494 39.517 69.9108 39.9403C70.1843 40.2606 70.4783 40.5669 70.788 40.853C71.3726 41.393 71.8979 41.981 72.3544 42.6302C73.1715 43.7925 73.6799 45.08 73.9089 46.4736C74.0119 47.1 74.0564 47.7345 74.0418 48.3706C74.0367 48.5983 74.0775 48.8108 74.1829 49.0131C74.5265 49.6707 74.7439 50.3702 74.8779 51.0966C74.9866 51.6862 75.0281 52.2839 74.9804 52.8783C74.8418 54.5999 74.2525 56.1556 73.1562 57.5088C72.3071 58.5569 71.2491 59.3311 69.994 59.8405C69.6509 59.9798 69.3162 59.971 68.993 59.7835C68.6465 59.5825 68.3041 59.3741 67.9552 59.1769C66.6199 58.4223 65.213 57.8411 63.7222 57.4615C63.0353 57.2866 62.3408 57.1518 61.6379 57.0658C60.8247 56.9663 60.0069 56.9528 59.1876 56.9652C57.3604 56.993 55.5919 57.3526 53.8514 57.8758C52.8915 58.1644 51.9155 58.3892 50.927 58.5523C50.1437 58.6815 49.3528 58.7715 48.5562 58.7357C47.9241 58.7072 47.3554 58.8784 46.8127 59.1875C45.965 59.6703 45.0732 60.0462 44.1111 60.2509C43.4502 60.3916 42.7833 60.4566 42.1129 60.4033C40.8103 60.2994 39.6222 59.8582 38.5264 59.1551C37.6163 58.5709 36.8613 57.8404 36.317 56.9079C35.915 56.2193 35.6507 55.4819 35.5527 54.6875C35.3531 53.0702 35.7391 51.5941 36.6197 50.2309C37.627 48.672 38.9936 47.5256 40.6796 46.7462C41.8549 46.203 43.0826 45.8238 44.3661 45.6361C44.8836 45.5605 45.4047 45.5005 45.9265 45.4653C46.4727 45.4286 47.0214 45.4302 47.5689 45.4157C47.6229 45.4143 47.6774 45.4152 47.731 45.4214C48.8029 45.5476 49.7466 45.2445 50.5691 44.568C51.0555 44.1682 51.4454 43.6794 51.7511 43.1341C52.4269 41.9295 53.0866 40.716 53.752 39.5055C53.7851 39.4453 53.8132 39.3814 53.8363 39.3168C53.9388 39.0287 53.8588 38.8049 53.6013 38.6498C53.3229 38.4822 53.05 38.5054 52.8409 38.7196C52.7878 38.7741 52.7401 38.8368 52.7018 38.9025C52.2635 39.6595 51.823 40.415 51.3928 41.1765C51.1742 41.5635 50.9966 41.9748 50.7615 42.351C50.5429 42.7007 50.2891 43.0325 50.0213 43.3478C49.6351 43.8028 49.1305 44.0723 48.5365 44.1709C48.5062 44.176 48.4751 44.1767 48.4443 44.1776C47.8573 44.1932 47.2697 44.1944 46.6839 44.2277C46.1305 44.2592 45.579 44.3244 45.0268 44.3757C45.0041 44.3777 44.9823 44.3894 44.9596 44.3931C44.5667 44.4586 44.4334 44.3214 44.53 43.9411C44.6515 43.4639 44.6761 42.9751 44.7231 42.4884C44.7394 42.3213 44.7663 42.1554 44.7892 41.9893C44.7922 41.9668 44.8017 41.9449 44.8052 41.9224C44.852 41.6106 44.7788 41.4286 44.5692 41.3339C44.285 41.2055 43.9642 41.256 43.7878 41.4812C43.695 41.5996 43.612 41.7397 43.5743 41.8831C43.5182 42.0955 43.5015 42.3186 43.4767 42.538C43.4417 42.8492 43.4352 43.1649 43.3795 43.4721C43.2826 44.0064 42.9829 44.4156 42.5056 44.6824C42.2981 44.7985 42.0744 44.8883 41.8523 44.9759C40.948 45.3323 40.0384 45.6758 39.1869 46.1508C38.2508 46.6729 37.4128 47.3181 36.6796 48.0971C36.5801 48.2028 36.466 48.2977 36.3478 48.3825C36.017 48.619 35.6593 48.6468 35.2991 48.4634C34.5339 48.0739 34.0382 47.4723 33.8632 46.6255C33.837 46.4994 33.8048 46.3707 33.7505 46.2547C33.6453 46.0295 33.4024 45.9104 33.1576 45.9437C32.8812 45.9814 32.7391 46.1232 32.6585 46.3854C32.6098 46.5435 32.6394 46.691 32.6691 46.8369C32.7848 47.4043 32.9906 47.9395 33.3203 48.42C33.6771 48.94 34.1565 49.3152 34.7409 49.5597C34.8545 49.6073 34.9701 49.6532 35.0768 49.7137C35.2822 49.83 35.3336 49.9782 35.2492 50.1965C35.2108 50.2962 35.1618 50.3925 35.112 50.4874C34.7724 51.1354 34.4928 51.8066 34.3857 52.5332C34.3268 52.9328 34.2814 53.3379 34.2793 53.741C34.2772 54.1369 34.0498 54.3727 33.7529 54.4621C33.2637 54.6089 32.7649 54.7006 32.2525 54.7203C31.6637 54.7431 31.0802 54.7185 30.506 54.5719C29.6536 54.3545 28.8917 53.9568 28.2143 53.4082C27.4198 52.7651 26.7293 52.0247 26.1942 51.1517C25.6634 50.2859 25.3142 49.3547 25.1399 48.3526C25.0198 47.6619 24.97 46.9679 25.0182 46.2751C25.1202 44.8084 25.3989 43.3798 26.1166 42.0674C26.6217 41.1437 27.2562 40.3208 28.0587 39.63C28.2509 39.4648 28.4417 39.2964 28.6471 39.1484C28.9019 38.9648 29.1587 38.9524 29.3822 39.2263C29.6098 39.5057 29.831 39.7907 30.0498 40.077C30.7212 40.9541 31.3876 41.8349 32.0618 42.7099C32.1983 42.8871 32.3566 43.044 32.6144 43.0404C33.0368 43.0341 33.3337 42.6051 33.1427 42.2324C33.0254 42.0033 32.8571 41.7976 32.6967 41.5929C31.915 40.5965 31.1394 39.5958 30.4363 38.5422C30.3301 38.3832 30.2378 38.2143 30.1483 38.0449C30.0278 37.8163 30.0095 37.5776 30.1099 37.3358C30.1539 37.2297 30.1931 37.12 30.251 37.0217C30.6015 36.4261 30.9762 35.8447 31.4356 35.3258C31.9669 34.7259 32.5646 34.1969 33.2498 33.7688C34.0656 33.2591 34.934 32.8682 35.8645 32.6173C36.0571 32.5654 36.2551 32.5295 36.4526 32.4997C36.5827 32.4799 36.7213 32.4753 36.8068 32.6081C36.888 32.7343 36.8543 32.8579 36.7827 32.9753C36.3096 33.7504 36.0203 34.5956 35.8385 35.4766C35.7101 36.0991 35.6501 36.7333 35.696 37.368C35.73 37.8379 35.7643 38.3108 35.9157 38.7658C36.1582 39.4956 36.6343 40.0057 37.3525 40.2877C37.7842 40.4571 38.2343 40.5543 38.6973 40.6062C39.1839 40.6606 39.6218 40.8399 39.9823 41.18C40.0214 41.217 40.0574 41.2574 40.0979 41.2928C40.269 41.4422 40.4549 41.5345 40.6895 41.4449C40.9408 41.3486 41.1024 41.1687 41.1448 40.909C41.1766 40.7146 41.0723 40.5458 40.9359 40.4187C40.3749 39.8961 39.7514 39.4869 38.9583 39.4062C38.7135 39.3812 38.468 39.3593 38.2248 39.323C37.6295 39.2341 37.2535 38.8885 37.0739 38.3264C36.9828 38.0415 36.9617 37.7453 36.9227 37.45C36.8747 37.086 36.9067 36.7273 36.9482 36.3748C37.0013 35.9228 37.1024 35.4722 37.2278 35.0338C37.5292 33.9807 38.0514 33.0339 38.7689 32.206C39.9841 30.8038 41.5243 29.9419 43.3538 29.5889C43.995 29.4653 44.6473 29.451 45.2918 29.503C46.8188 29.6259 48.2062 30.1439 49.4309 31.0648C50.051 31.5311 50.5756 32.0883 51.0096 32.7306C51.303 33.1649 51.3292 33.4949 50.8102 33.855C50.2921 34.2143 49.7953 34.6061 49.36 35.0655C49.1147 35.3245 48.9281 35.6204 48.7939 35.9525C48.5755 36.4925 49.0498 36.8245 49.4759 36.7703C49.646 36.7487 49.7473 36.6398 49.8319 36.5047C49.9418 36.3293 50.0475 36.1503 50.1695 35.9833C50.4309 35.625 50.7692 35.3447 51.1403 35.1064C51.6396 34.7856 52.145 34.4756 52.7341 34.3322C53.1374 34.2339 53.5405 34.2341 53.949 34.2888C54.0932 34.3081 54.242 34.3005 54.3883 34.2952C54.4391 34.2934 54.4947 34.2695 54.5378 34.2403C54.7562 34.0933 54.8009 33.8729 54.7787 33.6325C54.7594 33.4257 54.6324 33.2943 54.4384 33.2419C54.2314 33.186 54.0179 33.1539 53.8076 33.1097C53.5783 33.0617 53.3505 33.0684 53.1219 33.1155C52.7969 33.1826 52.5685 33.0438 52.4063 32.7756C52.3587 32.697 52.3198 32.6129 52.282 32.5293C52.1283 32.1904 51.9109 31.8944 51.6598 31.6216C51.4723 31.418 51.2801 31.2186 51.0916 31.0159C50.8063 30.7087 50.8531 30.4922 51.2567 30.3863C51.6804 30.2751 52.1112 30.1779 52.5449 30.1195C53.0628 30.0499 53.5871 30.028 54.109 29.9855L54.1078 29.9867ZM47.5571 50.3465C47.5578 50.3628 47.5585 50.3792 47.5592 50.3957C48.1682 50.3693 48.7779 50.3564 49.3857 50.3134C50.2378 50.2532 51.061 50.048 51.8599 49.7541C53.3338 49.2121 54.5965 48.3478 55.6895 47.2368C55.9582 46.9636 56.2166 46.6761 56.4473 46.3712C56.786 45.9235 57.0069 45.4145 57.0459 44.8525C57.0739 44.4494 57.2601 44.1829 57.6305 44.0569C57.9207 43.9581 58.226 43.9032 58.5242 43.8265C58.6651 43.7902 58.8146 43.7681 58.9428 43.7049C59.1723 43.5916 59.266 43.3467 59.2022 43.1022C59.1241 42.8025 58.979 42.6692 58.682 42.6851C58.36 42.7023 58.0359 42.7343 57.72 42.7956C57.0653 42.9229 56.5039 43.2279 56.0576 43.7283C55.8821 43.925 55.7639 44.15 55.7822 44.4143C55.8246 45.0269 55.6028 45.5453 55.2015 45.9851C54.3449 46.9238 53.362 47.7078 52.2245 48.2936C51.0031 48.9223 49.7086 49.252 48.3284 49.2325C47.8033 49.2251 47.2775 49.1985 46.7532 49.2153C46.1989 49.233 45.6442 49.2748 45.0929 49.3357C43.9106 49.4662 42.8424 49.9092 41.856 50.5552C41.2359 50.9612 40.7141 51.4649 40.3372 52.1069C39.9602 52.7487 39.7504 53.4423 39.7516 54.1829C39.753 55.04 40.0998 55.7737 40.6721 56.4033C40.8251 56.5718 41.0284 56.6846 41.2712 56.6428C41.7339 56.5633 41.9293 56.1446 41.7 55.739C41.6625 55.6724 41.614 55.6119 41.5737 55.5467C41.4768 55.3902 41.372 55.2376 41.2878 55.0745C40.9371 54.394 40.9306 53.7093 41.2834 53.0268C41.5913 52.4309 42.0174 51.9344 42.5601 51.5336C43.4611 50.8684 44.496 50.5621 45.5927 50.4502C46.2443 50.3837 46.9022 50.3792 47.5576 50.3465H47.5571ZM49.1821 54.0085C49.1821 53.997 49.1817 53.9855 49.1817 53.974C48.4475 53.974 47.7134 53.968 46.9794 53.977C46.6945 53.9804 46.4082 54.0034 46.1261 54.0429C45.3521 54.1509 44.7141 54.517 44.1981 55.0921C43.9776 55.338 43.7674 55.594 43.6848 55.9265C43.619 56.1924 43.7184 56.4587 43.9375 56.5823C44.1295 56.6906 44.4621 56.7174 44.658 56.4838C44.7417 56.384 44.8244 56.2827 44.8984 56.1758C45.2255 55.7034 45.6518 55.3617 46.2225 55.2385C46.4912 55.1806 46.7724 55.1586 47.048 55.1583C47.6969 55.1576 48.3455 55.1887 48.9944 55.1905C49.6198 55.1923 50.2457 55.1822 50.8709 55.1611C51.418 55.1425 51.966 55.1163 52.5108 55.065C53.0774 55.0117 53.6405 54.9235 54.2054 54.8527C54.8568 54.7711 55.5006 54.6507 56.1302 54.4657C57.072 54.1891 57.9492 53.7842 58.7094 53.1546C58.8693 53.0222 59.0249 52.8839 59.1909 52.7593C59.4331 52.5773 59.5933 52.5734 59.8476 52.7306C59.9327 52.7832 60.0136 52.8427 60.0926 52.9039C60.4457 53.1775 60.8416 53.3593 61.2805 53.4485C61.729 53.5395 62.1797 53.5645 62.6382 53.5319C63.294 53.4852 63.9218 53.3423 64.5029 53.0381C64.7185 52.9252 64.9249 52.7809 65.1043 52.6175C65.3414 52.4015 65.3407 52.0863 65.1416 51.8298C64.9337 51.5619 64.7032 51.5155 64.3887 51.6876C64.2537 51.7616 64.1276 51.851 63.9967 51.9323C63.0576 52.5157 62.0832 52.4999 61.0931 52.0856C60.6907 51.9171 60.4165 51.6127 60.3553 51.1791C60.3173 50.9104 60.3492 50.6305 60.3655 50.3566C60.378 50.1438 60.4306 49.9331 60.4364 49.7206C60.4429 49.483 60.3145 49.3364 60.0861 49.2665C59.7222 49.1551 59.4125 49.2929 59.2838 49.6484C59.2143 49.841 59.1769 50.0464 59.1408 50.2489C59.0372 50.83 58.7903 51.3443 58.3909 51.7772C57.6569 52.5727 56.7521 53.0939 55.6999 53.3607C54.9229 53.5576 54.1365 53.71 53.3389 53.7964C52.7415 53.8612 52.1438 53.9377 51.5444 53.9657C50.758 54.0023 49.9696 53.996 49.1821 54.0082V54.0085ZM67.6837 49.4444C68.152 49.4097 68.6077 49.4768 69.0521 49.6121C69.6947 49.8077 70.2416 50.1461 70.663 50.6765C70.9982 51.0982 71.2143 51.5759 71.3803 52.0803C71.4257 52.2182 71.4556 52.3616 71.5101 52.4955C71.6244 52.7772 71.8884 52.917 72.1782 52.862C72.4251 52.8154 72.623 52.575 72.6254 52.2919C72.6267 52.1177 72.6119 51.9413 72.5822 51.7696C72.4167 50.8183 71.941 50.0443 71.1971 49.4287C71.0138 49.2771 70.8165 49.1415 70.6373 48.9852C70.4915 48.8582 70.4915 48.7573 70.6208 48.6107C70.7731 48.4379 70.9345 48.2729 71.0903 48.1031C71.4324 47.7301 71.689 47.3066 71.8427 46.8252C71.9195 46.5842 71.9756 46.3392 71.9554 46.0823C71.9322 45.7854 71.7674 45.5239 71.5439 45.4731C71.212 45.3978 70.9338 45.4591 70.7952 45.8587C70.7451 46.003 70.7103 46.1524 70.6644 46.2983C70.5107 46.7894 70.2675 47.2299 69.8781 47.5755C69.3435 48.05 68.7063 48.2642 67.9937 48.2803C67.7006 48.2869 67.4074 48.3039 67.1151 48.3244C66.8339 48.3441 66.6345 48.5544 66.6176 48.835C66.6007 49.1153 66.7532 49.3233 67.042 49.3761C67.253 49.4147 67.4697 49.4225 67.6839 49.4441L67.6837 49.4444ZM67.4862 42.9629C67.4871 42.9765 67.4881 42.9898 67.4892 43.0034C67.6645 42.9818 67.842 42.9719 68.0141 42.9351C68.2104 42.8931 68.3513 42.7607 68.3873 42.5677C68.4262 42.3581 68.4522 42.1242 68.2371 41.9822C68.1274 41.9096 67.9874 41.8629 67.8555 41.8459C67.5124 41.8016 67.1614 41.8062 66.822 41.7443C66.0193 41.598 65.3973 41.1862 65.0173 40.4499C64.821 40.0694 64.7373 39.6601 64.7037 39.2399C64.681 38.9542 64.5458 38.729 64.3075 38.6831C63.8942 38.6036 63.606 38.7171 63.5154 39.1682C63.4656 39.4161 63.4927 39.6879 63.5305 39.9426C63.6216 40.5547 63.903 41.0862 64.298 41.5612C64.4156 41.7027 64.5384 41.8411 64.6432 41.9916C64.7436 42.1359 64.7257 42.2395 64.5987 42.3583C64.5375 42.4156 64.4666 42.4638 64.3956 42.5095C63.6972 42.9604 63.2029 43.5873 62.8188 44.3083C62.7272 44.4804 62.6816 44.6661 62.7017 44.8621C62.7261 45.0988 62.8554 45.2574 63.0812 45.3353C63.2963 45.4095 63.4964 45.3872 63.6494 45.2068C63.7479 45.0905 63.8374 44.9644 63.9155 44.8334C64.1844 44.3819 64.4992 43.9685 64.9158 43.6403C65.3987 43.26 65.946 43.0296 66.5645 42.9877C66.871 42.967 67.1788 42.97 67.4862 42.9625V42.9629ZM45.8352 33.1199C45.8157 32.7699 45.6184 32.4728 45.222 32.499C45.079 32.5084 44.9267 32.5318 44.7989 32.5916C44.0706 32.9324 43.5355 33.4652 43.2539 34.2201C43.1528 34.4908 43.0946 34.778 43.0286 35.0604C42.9215 35.5179 42.727 35.7137 42.1989 35.7091C42.0069 35.7073 41.8148 35.7002 41.6235 35.7107C41.0648 35.7415 40.5565 35.9389 40.0701 36.197C39.992 36.2383 39.9173 36.3064 39.8691 36.3799C39.6533 36.7103 39.9027 37.1908 40.2991 37.2198C40.48 37.2329 40.6492 37.1901 40.817 37.1237C41.2953 36.9351 41.7911 36.8333 42.3083 36.8579C42.9082 36.8866 43.4226 37.1269 43.9016 37.4723C44.1686 37.6649 44.4461 37.8519 44.7417 37.9953C45.0922 38.1654 45.3834 38.0401 45.5482 37.7021C45.6731 37.4457 45.6254 37.191 45.4003 36.9976C45.296 36.9082 45.1738 36.8388 45.0574 36.7639C44.954 36.6972 44.8423 36.6423 44.7428 36.5704C44.3216 36.2655 44.1095 35.8601 44.1965 35.3392C44.2586 34.9674 44.3884 34.613 44.5905 34.2906C44.7741 33.9979 45.0217 33.7734 45.3449 33.6355C45.4369 33.5962 45.5278 33.5528 45.6138 33.5022C45.7659 33.4126 45.8361 33.2743 45.8352 33.1199ZM27.5854 46.7949C27.6085 46.9686 27.6208 47.1449 27.6568 47.3158C27.9206 48.5663 28.473 49.6675 29.3854 50.5821C29.7452 50.9428 30.1411 51.2581 30.5705 51.5334C30.7453 51.6453 30.9323 51.6991 31.1414 51.6802C31.4059 51.6563 31.5548 51.4952 31.6482 51.2682C31.7356 51.0557 31.7045 50.8615 31.5316 50.7038C31.4298 50.611 31.3223 50.5221 31.2073 50.4463C29.9747 49.6321 29.1805 48.5183 28.8576 47.0807C28.8191 46.9096 28.7948 46.7342 28.7435 46.5669C28.6367 46.2174 28.3675 46.0694 27.9282 46.2023C27.6799 46.2774 27.597 46.4502 27.5854 46.7947V46.7949ZM67.6239 53.1097C67.4004 53.1348 67.342 53.1504 67.2319 53.2515C66.9669 53.4953 66.9164 53.8846 67.2704 54.1358C67.4333 54.2513 67.6054 54.3547 67.7774 54.457C68.2167 54.718 68.5542 55.0593 68.6838 55.5674C68.7102 55.6708 68.7218 55.7781 68.7512 55.8803C68.8259 56.14 69.0243 56.2831 69.2999 56.2845C69.6152 56.2861 69.8139 56.1455 69.9029 55.8826C69.9952 55.6099 69.9409 55.3458 69.8431 55.0981C69.5083 54.2497 68.9304 53.6162 68.0857 53.24C67.9413 53.1757 67.7783 53.1523 67.6239 53.1097Z" fill="white"/>
<path d="M59.6575 58.1391C60.0813 58.1611 60.5059 58.1738 60.9288 58.2083C61.3275 58.2407 61.7265 58.2827 62.1215 58.3445C62.9901 58.4803 63.8467 58.6731 64.6805 58.9523C65.6942 59.2917 66.6572 59.7398 67.5625 60.3074C67.5951 60.3278 67.6281 60.3476 67.6596 60.3697C67.9538 60.5758 67.9763 60.6718 67.7711 60.9696C67.304 61.6477 66.7738 62.2716 66.1651 62.8319C65.5202 63.4254 64.8087 63.9169 64.0087 64.2805C63.3033 64.6012 62.5677 64.8172 61.7955 64.9128C61.3899 64.9629 60.9849 65.0137 60.5757 64.996C59.3 64.9409 58.1437 64.5567 57.1256 63.7763C56.3884 63.2112 55.8186 62.5026 55.2926 61.7521C54.8642 61.1411 54.4836 60.502 54.1553 59.8329C54.0981 59.7161 54.0447 59.596 54.0056 59.4723C53.9497 59.2956 53.9977 59.1787 54.1602 59.0847C54.2462 59.0348 54.3403 58.9957 54.4349 58.964C55.2534 58.6887 56.0868 58.4739 56.9401 58.3289C57.6108 58.2149 58.2863 58.1676 58.963 58.1244C59.1936 58.1097 59.4259 58.1221 59.6573 58.1221V58.1393L59.6575 58.1391Z" fill="white"/>
<path d="M49.4776 59.9219C50.091 59.8649 50.7046 59.8114 51.3173 59.7491C51.531 59.7273 51.7473 59.7018 51.9538 59.6464C52.3085 59.5511 52.7008 59.759 52.8753 60.0619C53.1285 60.5005 53.392 60.9332 53.6542 61.3666C54.0434 62.0098 54.4162 62.6629 54.8928 63.2502C55.6669 64.2041 56.5765 64.9975 57.6742 65.5665C58.3381 65.9105 58.2602 65.9146 58.3886 66.4806C58.5504 67.1927 58.8286 67.8665 59.0808 68.5489C59.2053 68.8858 59.3317 69.2231 59.4288 69.5683C59.5278 69.9201 59.3778 70.1375 59.0213 70.1979C58.855 70.2262 58.6851 70.2367 58.5164 70.2446C58.1162 70.2629 57.7159 70.2744 57.3158 70.2898C56.9481 70.3041 56.6417 70.1559 56.3598 69.9403C56.0445 69.6993 55.8062 69.3872 55.5586 69.0843C54.9661 68.3594 54.3784 67.6305 53.7857 66.9057C53.0907 66.0559 52.3938 65.208 51.6956 64.3612C51.129 63.6739 50.559 62.9894 49.991 62.3032C49.5552 61.777 49.1203 61.2499 48.6845 60.7237C48.611 60.635 48.5283 60.5534 48.4608 60.4608C48.2962 60.2351 48.3757 60.0005 48.6458 59.9252C48.7478 59.8967 48.8584 59.893 48.9655 59.8882C49.0656 59.8836 49.1662 59.893 49.2666 59.8948C49.3362 59.8962 49.4057 59.895 49.4753 59.895C49.4762 59.904 49.4773 59.913 49.4783 59.9217L49.4776 59.9219Z" fill="white"/>
<defs>
<linearGradient id="paint0_linear_3820_4673" x1="78.125" y1="6.875" x2="24.375" y2="92.5" gradientUnits="userSpaceOnUse">
<stop stop-color="#D9D1FF"/>
<stop offset="1" stop-color="#6546A6"/>
</linearGradient>
</defs>
</svg>
