<svg width="200" height="200" viewBox="0 0 200 200" fill="none" xmlns="http://www.w3.org/2000/svg">
<rect x="0.5" y="0.5" width="199" height="199" rx="99.5" fill="white" fill-opacity="0.07" stroke="url(#paint0_linear_3867_4321)"/>
<g clip-path="url(#clip0_3867_4321)">
<path d="M92.4174 88.5807C93.2566 88.6262 94.1664 88.7138 95.0771 88.7168C97.0286 88.7236 98.8615 88.2704 100.506 87.1713C101.463 86.5318 102.306 85.7614 103.005 84.8506C103.543 84.1502 104.08 83.4352 104.508 82.6656C106.174 79.6703 107.8 76.6527 109.432 73.638C109.58 73.3651 109.691 73.0638 109.769 72.7629C109.877 72.3457 109.749 71.9689 109.445 71.6638C108.805 71.0204 107.713 70.747 106.953 71.8393C106.888 71.9333 106.822 72.0264 106.764 72.1247C105.476 74.3157 104.121 76.4681 103.061 78.7879C102.321 80.4068 101.357 81.8901 100.185 83.2339C99.3396 84.2025 98.3377 84.9352 97.0787 85.2596C96.6954 85.3584 96.2961 85.4292 95.9016 85.4451C94.4769 85.5021 93.0484 85.4935 91.6259 85.5807C90.2346 85.6661 88.8484 85.8386 87.4597 85.9708C87.2062 85.9948 86.9491 86.0356 86.6973 86.0176C86.3606 85.994 86.1815 85.7901 86.1696 85.4588C86.1636 85.2897 86.1674 85.1116 86.212 84.9502C86.5255 83.8137 86.5765 82.6407 86.7063 81.4785C86.7692 80.9119 86.8459 80.3471 86.917 79.7815C86.9204 79.7531 86.9282 79.7252 86.9316 79.6973C87.0335 78.9128 86.8613 78.4763 86.3503 78.2252C85.6534 77.8823 84.8901 78.0063 84.3906 78.5557C84.0972 78.878 83.8877 79.2583 83.7986 79.6823C83.6988 80.1557 83.6286 80.6373 83.5819 81.1192C83.5215 81.7441 83.5189 82.3751 83.4534 82.9991C83.2555 84.8871 82.3166 86.2627 80.5753 87.0476C79.9516 87.3288 79.3066 87.5614 78.6709 87.8155C76.6572 88.6202 74.6448 89.4262 72.7502 90.4966C70.4222 91.8121 68.3365 93.4344 66.5049 95.3864C66.2715 95.6349 66.014 95.8654 65.7459 96.0761C64.8759 96.7594 63.9228 96.8757 62.9428 96.3662C61.1292 95.4241 59.9019 93.9919 59.4149 91.9713C59.328 91.6112 59.259 91.2438 59.1343 90.897C58.945 90.3709 58.5548 90.0627 57.9932 89.9863C56.9215 89.8404 56.1175 90.655 56.2648 91.7653C56.4049 92.8198 56.721 93.8258 57.1656 94.7919C57.4895 95.495 57.866 96.1628 58.353 96.7692C59.1939 97.816 60.236 98.5886 61.4594 99.1263C61.7725 99.2641 62.0938 99.3903 62.3885 99.5611C62.9346 99.8774 63.0614 100.269 62.8228 100.863C62.7063 101.154 62.5556 101.432 62.4116 101.71C61.4735 103.526 60.7912 105.427 60.5496 107.466C60.4622 108.201 60.4078 108.943 60.3864 109.683C60.3513 110.893 60.0167 111.389 58.8482 111.729C57.3336 112.171 55.7838 112.351 54.2032 112.347C50.7747 112.336 47.7912 111.12 45.1548 109.003C43.2987 107.512 41.6868 105.78 40.3757 103.779C38.7377 101.279 37.7208 98.5474 37.2783 95.5907C37.0491 94.0593 36.9339 92.5185 37.0418 90.9812C37.3036 87.2532 37.9705 83.6171 39.7387 80.263C41.0173 77.8372 42.6558 75.696 44.7118 73.8805C45.0969 73.5406 45.4777 73.1951 45.8795 72.8762C46.101 72.7003 46.3481 72.5436 46.6069 72.4312C47.0279 72.2479 47.4516 72.2728 47.8007 72.6054C48.0478 72.8406 48.2873 73.0895 48.4929 73.3612C50.4748 75.978 52.447 78.6025 54.4285 81.2201C54.6859 81.5605 54.9541 81.9017 55.2655 82.1901C55.7958 82.6811 56.4704 82.6858 57.0646 82.2575C57.6527 81.8338 57.8519 81.1785 57.5486 80.5205C57.4068 80.2132 57.2046 79.9291 56.9994 79.657C55.6077 77.8111 54.1933 75.9818 52.8171 74.1243C52.0525 73.0925 51.3418 72.02 50.6183 70.9582C50.2641 70.4384 49.9505 69.8955 49.7912 69.2749C49.718 68.9899 49.685 68.7118 49.7865 68.4333C49.9326 68.032 50.0379 67.6049 50.2487 67.2401C51.3945 65.2564 52.6817 63.3735 54.3158 61.7512C56.3681 59.7134 58.7454 58.1687 61.4084 57.0571C62.7796 56.4846 64.1661 55.9631 65.6487 55.7563C65.8453 55.7288 66.0457 55.697 66.2419 55.7078C66.6818 55.7318 66.9637 56.1155 66.8515 56.546C66.8022 56.7353 66.7028 56.9155 66.6043 57.0872C65.2233 59.5014 64.4373 62.113 64.0792 64.8568C63.8337 66.7371 63.9258 68.6169 64.2321 70.4861C64.3576 71.2517 64.5902 71.9887 64.9367 72.6818C65.5754 73.9595 66.5807 74.8612 67.8726 75.4402C68.9478 75.9222 70.0851 76.2076 71.2506 76.3334C72.6907 76.4883 73.9599 76.9737 74.9802 78.0321C75.0196 78.0733 75.0603 78.1141 75.1036 78.1505C75.5178 78.4986 75.9697 78.702 76.5189 78.5063C77.1635 78.2767 77.5559 77.8171 77.7015 77.154C77.7302 77.0231 77.6938 76.872 77.6634 76.7355C77.5867 76.3904 77.4025 76.0939 77.1507 75.8591C76.2263 74.9986 75.2325 74.2393 74.0426 73.7711C73.1572 73.4226 72.2401 73.2389 71.293 73.2161C70.6869 73.2016 70.1043 73.0848 69.5389 72.8797C68.7555 72.5951 68.1481 72.0947 67.7857 71.3363C67.6019 70.9517 67.4117 70.5543 67.3278 70.1414C67.0832 68.9384 66.959 67.7294 67.0558 66.4877C67.1539 65.2294 67.3316 63.9941 67.6516 62.7765C68.4201 59.8533 69.7741 57.2228 71.7385 54.9408C74.9541 51.2034 79.0307 48.933 83.8997 48.2085C87.3771 47.6909 90.7734 48.1454 94.043 49.4764C96.8667 50.6257 99.3104 52.3125 101.301 54.6322C101.782 55.194 102.195 55.8159 102.629 56.4172C102.745 56.5777 102.837 56.7597 102.918 56.9417C103.238 57.6645 103.142 58.1881 102.579 58.7293C102.395 58.9061 102.183 59.0537 101.978 59.2087C100.773 60.1229 99.5717 61.0413 98.515 62.1319C97.9945 62.6688 97.5559 63.2658 97.2317 63.9401C97.0963 64.2216 96.9789 64.5173 96.9001 64.819C96.7305 65.4688 96.9699 66.0092 97.5418 66.3465C98.3706 66.8358 99.1524 66.6384 99.654 65.8122C99.6835 65.7633 99.7096 65.7126 99.7379 65.6628C100.305 64.6555 101.035 63.7941 101.937 63.0645C103.1 62.1233 104.378 61.3791 105.736 60.7718C107.073 60.1744 108.476 60.0495 109.92 60.2555C110.256 60.3035 110.602 60.3151 110.941 60.2962C111.13 60.2855 111.339 60.2134 111.494 60.1057C111.994 59.7598 112.106 59.2353 112.069 58.6662C112.034 58.1155 111.72 57.7576 111.213 57.6074C110.724 57.4619 110.219 57.358 109.715 57.2795C109.155 57.1928 108.599 57.1533 108.022 57.2511C106.975 57.4284 106.412 57.1799 106.003 56.2417C105.348 54.7382 104.305 53.5447 103.201 52.3828C102.965 52.1352 102.72 51.8897 102.528 51.6094C102.176 51.0931 102.296 50.7051 102.873 50.4446C103.105 50.3395 103.355 50.2687 103.604 50.2094C104.963 49.8858 106.334 49.6506 107.725 49.4935C109.236 49.3227 110.749 49.3081 112.249 49.4146C115.143 49.6201 117.919 50.3631 120.548 51.6163C122.253 52.4292 123.865 53.3974 125.365 54.5485C125.612 54.7387 125.855 54.9447 126.063 55.176C126.424 55.5777 126.382 55.9292 125.928 56.2559C125.652 56.4546 125.348 56.6202 125.042 56.77C123.779 57.3872 122.615 58.155 121.556 59.0799C120.328 60.152 119.383 61.4349 118.871 62.9898C118.016 65.5877 118.395 68.0281 120.031 70.2148C121.598 72.3076 123.78 73.4084 126.311 73.8715C126.45 73.8968 126.595 73.887 126.738 73.893C127.713 73.9346 128.385 73.0887 128.197 72.0307C128.123 71.6144 127.836 71.3166 127.44 71.1633C127.203 71.0719 126.948 71.0221 126.698 70.9711C125.199 70.6638 123.918 69.965 122.882 68.832C121.557 67.3847 121.152 65.3993 122.081 63.5062C122.781 62.0791 123.879 61.0126 125.24 60.2211C126.634 59.4104 128.154 59.0941 129.757 59.164C133.883 59.3434 137.75 60.3692 141.187 62.7435C143.895 64.613 145.949 67.0667 147.499 69.956C147.877 70.6603 148.22 71.3839 148.574 72.1011C149.498 73.9715 150.79 75.5501 152.33 76.9437C155.749 80.0364 158.231 83.739 159.555 88.1859C160.12 90.0816 160.466 92.0147 160.535 93.9945C160.562 94.7653 160.605 95.5357 160.608 96.3066C160.611 96.8061 160.729 97.2649 160.937 97.7104C161.168 98.2019 161.413 98.6877 161.612 99.1916C162.278 100.873 162.691 102.612 162.888 104.416C163.003 105.474 163.031 106.532 162.965 107.581C162.86 109.263 162.558 110.922 162.045 112.536C160.922 116.069 159.028 119.118 156.309 121.637C154.597 123.224 152.641 124.439 150.483 125.329C149.548 125.714 148.65 125.676 147.778 125.156C146.993 124.688 146.213 124.214 145.423 123.756C141.265 121.343 136.832 119.656 132.117 118.731C129.17 118.153 126.188 117.967 123.186 118.03C118.851 118.121 114.632 118.894 110.492 120.137C107.594 121.008 104.66 121.715 101.672 122.185C100.858 122.314 100.027 122.333 99.2093 122.445C98.0155 122.608 96.8183 122.549 95.6215 122.559C94.4178 122.57 93.3345 122.978 92.2894 123.533C91.4078 124.001 90.5284 124.476 89.6259 124.901C87.5467 125.881 85.3638 126.489 83.0722 126.737C79.8034 127.09 76.7198 126.447 73.7633 125.088C72.2551 124.394 70.842 123.534 69.5436 122.493C66.1087 119.739 64.0244 116.197 63.5549 111.804C63.2431 108.887 63.7087 106.051 64.9487 103.365C66.1374 100.79 67.7848 98.5495 69.8135 96.5817C72.4183 94.0546 75.4848 92.276 78.8641 91.0177C81.5995 89.9988 84.4078 89.2653 87.3167 88.9541C88.1657 88.8631 89.0155 88.7751 89.8666 88.7125C90.6903 88.652 91.5166 88.6258 92.4174 88.5807ZM93.2424 101.228C96.0614 101.253 98.225 101.245 100.37 100.852C103.405 100.296 106.245 99.2409 108.888 97.6413C111.351 96.1503 113.501 94.2838 115.416 92.1477C116.759 90.6498 117.686 88.9421 117.812 86.8682C117.852 86.2021 118.233 85.6888 118.816 85.3605C119.087 85.2077 119.381 85.0772 119.68 84.997C120.312 84.827 120.955 84.6991 121.593 84.5493C121.869 84.4845 122.158 84.4425 122.416 84.3317C123.05 84.0592 123.372 83.4399 123.238 82.8017C123.066 81.9733 122.561 81.6347 121.883 81.6364C120.847 81.639 119.841 81.809 118.851 82.0926C117.505 82.4781 116.342 83.1678 115.388 84.2034C114.84 84.7983 114.547 85.4721 114.594 86.2996C114.643 87.1734 114.455 88.0138 114.012 88.7678C113.711 89.2816 113.382 89.7996 112.972 90.2254C112.121 91.1082 111.245 91.9735 110.314 92.7696C107.972 94.7739 105.361 96.3267 102.425 97.307C100.21 98.0456 97.9393 98.3993 95.6108 98.3203C93.1576 98.237 90.7092 98.2259 88.2659 98.4997C84.4527 98.9272 81.0439 100.324 78.0892 102.788C76.4229 104.177 75.2848 105.929 74.6508 108.006C74.3578 108.967 74.1578 109.953 74.1805 110.956C74.2289 113.1 75.0488 114.951 76.4559 116.548C76.6041 116.717 76.7939 116.859 76.9883 116.973C77.6651 117.37 78.1907 117.382 78.9309 116.733C79.304 116.406 79.4539 115.972 79.31 115.493C79.2132 115.172 79.0487 114.866 78.8821 114.571C78.6293 114.124 78.3201 113.708 78.0849 113.253C77.1837 111.508 77.1631 109.749 78.0622 107.993C78.8439 106.468 79.9264 105.198 81.3031 104.176C83.1069 102.837 85.1548 102.089 87.3351 101.668C89.5025 101.25 91.7021 101.274 93.2433 101.228H93.2424ZM97.8737 110.495C97.8737 110.47 97.8729 110.445 97.8729 110.42C97.4737 110.42 97.074 110.415 96.6748 110.421C94.7648 110.451 92.8552 110.36 90.9444 110.513C88.1442 110.737 86.0599 112.103 84.5431 114.409C84.3285 114.736 84.1683 115.125 84.0873 115.507C83.8757 116.506 84.6232 117.323 85.6401 117.272C86.0093 117.253 86.3049 117.092 86.5328 116.827C86.8296 116.482 87.0956 116.11 87.3706 115.746C88.4522 114.314 89.8859 113.539 91.6768 113.463C92.5027 113.427 93.3311 113.425 94.1574 113.444C97.0089 113.507 99.8604 113.573 102.712 113.455C103.48 113.424 104.25 113.387 105.016 113.313C106.489 113.171 107.961 113.022 109.429 112.839C111.069 112.633 112.701 112.375 114.309 111.981C117.432 111.215 120.294 109.937 122.682 107.72C122.87 107.546 123.082 107.398 123.291 107.249C123.755 106.916 124.238 106.874 124.728 107.189C124.992 107.358 125.253 107.534 125.501 107.725C126.375 108.399 127.354 108.833 128.429 109.075C129.694 109.361 130.972 109.396 132.254 109.268C134.005 109.093 135.673 108.629 137.182 107.693C137.517 107.484 137.82 107.216 138.116 106.951C138.655 106.467 138.673 105.558 138.162 104.927C137.66 104.308 137.09 104.183 136.341 104.565C136.138 104.668 135.953 104.805 135.756 104.92C135.338 105.165 134.929 105.43 134.495 105.644C132.28 106.736 130.074 106.493 127.88 105.564C127.75 105.509 127.631 105.426 127.511 105.349C126.603 104.769 126.134 103.935 126.062 102.862C126.011 102.086 126.113 101.325 126.238 100.562C126.297 100.199 126.326 99.8255 126.32 99.4577C126.311 99.019 126.071 98.6808 125.669 98.5328C125.357 98.4182 125.005 98.3439 124.676 98.3585C124.033 98.3868 123.631 98.8036 123.43 99.3796C123.271 99.8349 123.162 100.313 123.082 100.79C122.793 102.509 122.033 103.976 120.804 105.207C119.005 107.008 116.868 108.223 114.41 108.843C113.113 109.171 111.796 109.43 110.48 109.675C108.292 110.082 106.079 110.302 103.86 110.399C101.868 110.487 99.8699 110.466 97.8742 110.493L97.8737 110.495ZM155.404 90.6825C155.333 90.3417 155.297 89.9679 155.174 89.6254C154.942 88.9807 154.472 88.6781 153.794 88.6824C153.15 88.6863 152.723 89.0168 152.482 89.6C152.417 89.7571 152.38 89.9262 152.33 90.0897C152.223 90.4447 152.13 90.8048 152.005 91.1533C151.566 92.3838 150.914 93.4718 149.885 94.3091C148.596 95.3576 147.116 95.8546 145.468 95.9044C144.699 95.9276 143.93 95.9696 143.163 96.0302C142.569 96.0769 142.152 96.3851 141.973 96.9739C141.733 97.7624 142.119 98.5092 142.922 98.6924C143.389 98.7989 143.883 98.8255 144.364 98.8169C145.367 98.7993 146.356 98.8907 147.33 99.1156C149.823 99.6911 151.74 101.049 152.963 103.334C153.423 104.193 153.765 105.099 154.038 106.033C154.118 106.306 154.194 106.586 154.321 106.838C154.602 107.392 155.197 107.677 155.822 107.595C156.381 107.522 156.857 107.081 156.989 106.488C157.032 106.295 157.033 106.092 157.037 105.893C157.061 104.815 156.761 103.804 156.375 102.817C155.668 101.012 154.469 99.586 152.937 98.4263C152.71 98.2542 152.471 98.0963 152.253 97.9139C151.637 97.3988 151.619 97.1701 152.144 96.5825C152.486 96.1997 152.847 95.8336 153.189 95.4499C154.133 94.3898 154.833 93.1928 155.183 91.8065C155.274 91.449 155.326 91.082 155.404 90.682V90.6825ZM144.308 82.4626C144.579 82.421 145.046 82.4098 145.471 82.2712C146.23 82.024 146.457 81.5184 146.386 80.6459C146.339 80.0664 145.921 79.6343 145.266 79.545C144.73 79.4724 144.188 79.4506 143.65 79.3943C143.141 79.3411 142.625 79.3136 142.129 79.2021C140.665 78.8733 139.424 78.1638 138.495 76.9544C137.765 76.0024 137.353 74.9209 137.185 73.7406C137.132 73.3737 137.119 73.0007 137.057 72.6363C136.922 71.853 136.424 71.4337 135.644 71.4183C134.706 71.3994 134.114 71.9569 134.046 72.941C133.976 73.978 134.095 74.99 134.44 75.9767C134.871 77.211 135.583 78.2694 136.424 79.2531C136.609 79.4694 136.796 79.6888 136.943 79.9308C137.158 80.2849 137.109 80.5634 136.789 80.8454C136.576 81.033 136.334 81.1883 136.099 81.3493C134.456 82.4733 133.281 83.9983 132.359 85.7369C132.145 86.1421 132.002 86.5747 132.021 87.0489C132.046 87.6837 132.324 88.1528 132.92 88.3781C133.629 88.6468 134.141 88.4756 134.527 87.9713C134.768 87.6554 134.983 87.3167 135.188 86.9751C135.885 85.8142 136.71 84.7614 137.801 83.9476C139.448 82.7184 141.317 82.2442 143.354 82.3845C143.609 82.4021 143.865 82.4261 144.307 82.463L144.308 82.4626ZM89.5274 57.3104C89.4965 56.561 89.099 55.6747 87.9789 55.6902C87.536 55.6962 87.1385 55.8164 86.7534 56.0116C85.0344 56.8842 83.7571 58.1799 83.0563 59.9907C82.8109 60.625 82.6751 61.3018 82.4896 61.9598C82.3971 62.2881 82.3337 62.628 82.2073 62.9426C82.027 63.3907 81.6907 63.6997 81.202 63.7791C80.8687 63.8332 80.5278 63.8469 80.1894 63.8589C80.0206 63.865 79.8493 63.807 79.6805 63.8126C78.0284 63.8658 76.4812 64.3057 75.0312 65.0967C74.9562 65.1375 74.8826 65.183 74.8153 65.2349C74.324 65.6165 74.1595 66.1817 74.3823 66.7633C74.5849 67.2916 74.9939 67.7873 75.8215 67.738C76.2293 67.7135 76.6007 67.5938 76.9746 67.4513C77.8844 67.1049 78.8221 66.8774 79.797 66.8186C81.5841 66.7109 83.1587 67.2676 84.5812 68.3302C85.1282 68.7388 85.6992 69.117 86.2762 69.4818C86.5131 69.6315 86.7859 69.7427 87.0575 69.8161C87.787 70.0135 88.337 69.768 88.7174 69.1122C89.105 68.4444 89.0695 67.8431 88.5567 67.3066C88.3241 67.0628 88.0294 66.8744 87.748 66.683C87.4657 66.4907 87.1548 66.341 86.8738 66.147C85.5883 65.2603 85.1085 64.0971 85.4829 62.5834C85.653 61.8971 85.9177 61.2237 86.2222 60.5838C86.6523 59.6808 87.3527 59.0198 88.2753 58.6078C88.5092 58.5035 88.7414 58.3919 88.9615 58.2615C89.3342 58.0409 89.5094 57.6962 89.5278 57.3095L89.5274 57.3104ZM45.0288 90.5142C44.071 90.5198 43.5403 91.0202 43.5536 92.0022C43.5613 92.5675 43.6491 93.1396 43.7678 93.6941C44.5259 97.2448 46.2462 100.246 48.9769 102.64C49.6396 103.22 50.3815 103.712 51.1019 104.224C51.5354 104.532 52.0357 104.649 52.5665 104.568C53.1991 104.472 53.5654 104.058 53.7817 103.489C53.986 102.953 53.8879 102.465 53.4651 102.081C53.1503 101.795 52.8063 101.536 52.456 101.293C50.4958 99.9345 48.9328 98.231 47.8619 96.0829C47.2447 94.8447 46.8643 93.534 46.5902 92.1855C46.5392 91.9348 46.4963 91.6782 46.406 91.4413C46.152 90.7756 45.7412 90.5099 45.0288 90.5138V90.5142ZM148.56 116.298C149.238 116.288 149.756 116.145 150.038 115.598C150.248 115.19 150.364 114.747 150.281 114.275C150.158 113.567 149.95 112.888 149.589 112.263C149.115 111.443 148.553 110.69 147.861 110.043C147.148 109.377 146.363 108.815 145.438 108.474C145.06 108.334 144.677 108.242 144.27 108.265C143.654 108.3 143.221 108.637 143.008 109.243C142.803 109.826 142.957 110.328 143.405 110.711C143.749 111.005 144.152 111.23 144.532 111.482C144.864 111.702 145.214 111.897 145.531 112.139C146.403 112.803 146.964 113.672 147.17 114.759C147.202 114.927 147.226 115.098 147.276 115.26C147.485 115.942 147.965 116.296 148.56 116.298H148.56Z" fill="#6546A6"/>
<path d="M123.487 120.937C125.54 121.066 127.587 121.158 129.623 121.424C134.714 122.088 139.508 123.628 143.911 126.314C144.105 126.433 144.298 126.555 144.485 126.685C145.273 127.23 145.322 127.47 144.776 128.289C144.476 128.739 144.152 129.175 143.822 129.605C141.893 132.118 139.647 134.283 136.886 135.871C134.737 137.106 132.435 137.91 129.98 138.258C128.995 138.398 128.007 138.529 127.009 138.505C123.348 138.415 120.096 137.255 117.303 134.836C116.195 133.876 115.243 132.783 114.361 131.624C112.871 129.666 111.585 127.578 110.502 125.366C110.352 125.06 110.214 124.742 110.117 124.416C109.989 123.985 110.105 123.694 110.481 123.464C110.697 123.331 110.937 123.226 111.177 123.143C114.014 122.161 116.916 121.464 119.911 121.205C121.102 121.101 122.295 121.025 123.487 120.937Z" fill="#6546A6"/>
<path d="M98.7275 125.505C100.669 125.496 102.585 125.25 104.495 124.926C104.719 124.888 104.945 124.852 105.172 124.831C105.976 124.756 106.624 125.041 107.097 125.701C107.246 125.909 107.377 126.131 107.508 126.352C108.501 128.019 109.484 129.693 110.487 131.355C112.607 134.868 115.383 137.719 118.968 139.747C119.341 139.957 119.72 140.154 120.1 140.35C120.588 140.602 120.902 140.986 121.003 141.528C121.391 143.619 122.172 145.583 122.912 147.561C123.132 148.149 123.364 148.734 123.567 149.328C123.677 149.65 123.771 149.985 123.817 150.322C123.922 151.089 123.624 151.537 122.892 151.722C122.563 151.804 122.22 151.857 121.881 151.874C120.886 151.921 119.887 151.905 118.895 151.986C117.35 152.111 116.197 151.402 115.223 150.323C114.535 149.562 113.907 148.747 113.259 147.951C110.003 143.944 106.753 139.934 103.495 135.929C101.245 133.163 98.9845 130.405 96.728 127.644C96.5297 127.401 96.3078 127.175 96.1287 126.919C95.7454 126.37 95.9544 125.766 96.5999 125.578C96.8415 125.507 97.1049 125.503 97.3598 125.491C97.5868 125.48 97.8156 125.501 98.0435 125.504C98.2713 125.507 98.4996 125.505 98.7275 125.505V125.505Z" fill="#6546A6"/>
<path d="M93.242 101.228C91.7004 101.274 89.5013 101.25 87.3338 101.669C85.1535 102.09 83.106 102.837 81.3018 104.176C79.9251 105.198 78.8427 106.468 78.0609 107.994C77.1618 109.749 77.1824 111.509 78.0836 113.253C78.3188 113.708 78.6281 114.124 78.8808 114.571C79.0474 114.866 79.2123 115.172 79.3087 115.494C79.4526 115.972 79.3027 116.406 78.9296 116.733C78.1894 117.382 77.6639 117.37 76.9871 116.973C76.793 116.859 76.6028 116.717 76.4546 116.549C75.0475 114.951 74.2272 113.101 74.1792 110.956C74.1565 109.953 74.3566 108.967 74.6496 108.007C75.2835 105.929 76.4216 104.177 78.0879 102.788C81.0427 100.324 84.4515 98.9275 88.2646 98.5C90.7079 98.2262 93.1564 98.2374 95.6095 98.3206C97.938 98.3996 100.209 98.0459 102.423 97.3073C105.36 96.3275 107.97 94.7742 110.313 92.7699C111.243 91.9738 112.12 91.1085 112.97 90.2257C113.38 89.7999 113.709 89.2823 114.011 88.7681C114.454 88.0141 114.642 87.1737 114.593 86.2999C114.546 85.4724 114.839 84.7986 115.387 84.2037C116.341 83.1676 117.503 82.4779 118.85 82.093C119.84 81.8097 120.846 81.6393 121.881 81.6367C122.559 81.635 123.064 81.9736 123.237 82.802C123.37 83.4402 123.049 84.0591 122.415 84.332C122.157 84.4428 121.868 84.4848 121.591 84.5496C120.954 84.699 120.311 84.8273 119.679 84.9973C119.379 85.078 119.086 85.208 118.814 85.3608C118.232 85.6891 117.851 86.2024 117.81 86.8686C117.685 88.942 116.758 90.6501 115.415 92.148C113.5 94.2841 111.35 96.1506 108.887 97.6416C106.244 99.2412 103.403 100.296 100.369 100.852C98.2237 101.246 96.0606 101.254 93.2412 101.228H93.242Z" fill="white"/>
<path d="M97.8734 110.495C99.869 110.468 101.866 110.489 103.86 110.401C106.078 110.303 108.292 110.084 110.479 109.677C111.795 109.432 113.112 109.172 114.409 108.845C116.867 108.224 119.004 107.009 120.803 105.208C122.032 103.977 122.792 102.511 123.081 100.792C123.161 100.315 123.27 99.8366 123.429 99.3813C123.63 98.8053 124.032 98.3886 124.675 98.3602C125.004 98.3456 125.356 98.4199 125.668 98.5345C126.071 98.6825 126.311 99.0207 126.319 99.4594C126.326 99.8272 126.296 100.201 126.237 100.564C126.113 101.327 126.01 102.087 126.062 102.864C126.133 103.937 126.602 104.771 127.51 105.351C127.63 105.428 127.749 105.511 127.88 105.566C130.073 106.495 132.279 106.738 134.495 105.646C134.929 105.432 135.337 105.166 135.755 104.922C135.952 104.807 136.137 104.67 136.34 104.567C137.089 104.185 137.659 104.309 138.161 104.929C138.672 105.56 138.654 106.469 138.115 106.953C137.819 107.218 137.517 107.486 137.181 107.694C135.672 108.631 134.004 109.094 132.253 109.269C130.971 109.398 129.694 109.363 128.428 109.077C127.354 108.835 126.374 108.401 125.5 107.726C125.252 107.535 124.991 107.359 124.727 107.19C124.237 106.876 123.754 106.918 123.29 107.25C123.082 107.4 122.869 107.548 122.681 107.722C120.293 109.939 117.431 111.217 114.308 111.983C112.7 112.377 111.068 112.635 109.428 112.84C107.961 113.024 106.487 113.173 105.015 113.314C104.249 113.388 103.48 113.425 102.711 113.457C99.8596 113.575 97.0081 113.508 94.1566 113.445C93.3303 113.427 92.5019 113.429 91.676 113.464C89.8851 113.541 88.4518 114.316 87.3698 115.748C87.0953 116.112 86.8288 116.484 86.532 116.829C86.3041 117.094 86.0085 117.255 85.6393 117.273C84.6224 117.324 83.8749 116.508 84.0865 115.509C84.1675 115.126 84.3277 114.737 84.5423 114.411C86.0591 112.105 88.1439 110.739 90.9435 110.515C92.854 110.362 94.764 110.453 96.674 110.423C97.0732 110.417 97.4724 110.422 97.8721 110.422C97.8721 110.447 97.8729 110.472 97.8729 110.497L97.8734 110.495Z" fill="white"/>
<path d="M155.404 90.6823C155.326 91.0823 155.273 91.4492 155.183 91.8067C154.833 93.1926 154.132 94.39 153.188 95.4501C152.847 95.8334 152.486 96.1999 152.144 96.5828C151.619 97.1699 151.637 97.3991 152.252 97.9141C152.471 98.0969 152.709 98.2545 152.937 98.4266C154.469 99.5867 155.668 101.012 156.374 102.817C156.76 103.804 157.061 104.815 157.037 105.893C157.033 106.092 157.031 106.295 156.988 106.488C156.856 107.081 156.38 107.522 155.822 107.595C155.197 107.677 154.601 107.392 154.321 106.838C154.194 106.586 154.117 106.306 154.038 106.033C153.764 105.099 153.422 104.194 152.962 103.334C151.739 101.049 149.823 99.6918 147.33 99.1158C146.356 98.8909 145.367 98.7995 144.363 98.8171C143.883 98.8257 143.388 98.7991 142.922 98.6927C142.118 98.5094 141.733 97.7622 141.973 96.9742C142.152 96.3853 142.569 96.0772 143.163 96.0304C143.929 95.9699 144.698 95.9278 145.467 95.9046C147.116 95.8553 148.595 95.3579 149.885 94.3093C150.914 93.4724 151.566 92.3844 152.005 91.1535C152.129 90.8046 152.222 90.4445 152.33 90.09C152.379 89.9265 152.416 89.7574 152.481 89.6003C152.723 89.017 153.15 88.6865 153.794 88.6827C154.471 88.6784 154.941 88.9805 155.174 89.6256C155.297 89.9681 155.332 90.3419 155.404 90.6827V90.6823Z" fill="white"/>
<path d="M144.308 82.4622C143.866 82.4257 143.61 82.4013 143.355 82.3837C141.318 82.2438 139.449 82.7176 137.802 83.9468C136.711 84.7605 135.886 85.8133 135.189 86.9743C134.984 87.3159 134.769 87.6545 134.528 87.9704C134.142 88.4747 133.63 88.646 132.921 88.3773C132.325 88.152 132.047 87.6829 132.022 87.0481C132.003 86.5738 132.145 86.1412 132.36 85.7361C133.282 83.9974 134.457 82.4725 136.1 81.3485C136.335 81.1875 136.577 81.0321 136.79 80.8446C137.11 80.563 137.159 80.2841 136.944 79.93C136.797 79.6879 136.61 79.4686 136.425 79.2523C135.584 78.2686 134.873 77.2102 134.441 75.9759C134.096 74.9892 133.977 73.9771 134.048 72.9402C134.114 71.9561 134.707 71.399 135.645 71.4174C136.425 71.4329 136.923 71.8522 137.058 72.6355C137.12 73.0003 137.133 73.3733 137.186 73.7398C137.354 74.9201 137.766 76.0016 138.496 76.9536C139.425 78.163 140.666 78.872 142.13 79.2012C142.626 79.3128 143.142 79.3403 143.651 79.3935C144.189 79.4497 144.731 79.4716 145.267 79.5441C145.922 79.633 146.34 80.0656 146.387 80.645C146.458 81.5176 146.23 82.0231 145.472 82.2704C145.047 82.409 144.58 82.4201 144.309 82.4618L144.308 82.4622Z" fill="white"/>
<path d="M89.5271 57.31C89.5083 57.6967 89.3335 58.0413 88.9609 58.2619C88.7407 58.3924 88.5085 58.5035 88.2747 58.6083C87.352 59.0203 86.6516 59.6812 86.2216 60.5843C85.917 61.2242 85.6523 61.8976 85.4822 62.5838C85.1074 64.0976 85.5872 65.2607 86.8731 66.1474C87.1541 66.3414 87.4651 66.4912 87.7474 66.6835C88.0288 66.8749 88.3235 67.0633 88.5561 67.3071C89.0688 67.8436 89.1044 68.4449 88.7167 69.1127C88.3363 69.7685 87.7863 70.014 87.0569 69.8166C86.7853 69.7432 86.5124 69.632 86.2755 69.4822C85.6986 69.117 85.1271 68.7393 84.5806 68.3307C83.158 67.2676 81.5834 66.7114 79.7963 66.8191C78.8219 66.8779 77.8838 67.1054 76.974 67.4517C76.6 67.5942 76.2286 67.714 75.8208 67.7384C74.9933 67.7878 74.5842 67.2921 74.3816 66.7637C74.1589 66.1822 74.3229 65.6169 74.8147 65.2354C74.8819 65.183 74.9556 65.138 75.0305 65.0972C76.4805 64.3062 78.0277 63.8663 79.6798 63.813C79.849 63.8075 80.0199 63.8654 80.1887 63.8594C80.5271 63.847 80.8681 63.8332 81.2013 63.7796C81.6901 63.7002 82.0263 63.3916 82.2067 62.9431C82.333 62.6285 82.3964 62.2886 82.4889 61.9602C82.6744 61.3027 82.8102 60.6255 83.0557 59.9911C83.7564 58.1804 85.0338 56.8846 86.7527 56.0121C87.1382 55.8164 87.5353 55.6966 87.9782 55.6906C89.0984 55.6752 89.4959 56.5615 89.5267 57.3108L89.5271 57.31Z" fill="white"/>
<path d="M45.0285 90.5147C45.7408 90.5108 46.152 90.7765 46.4056 91.4422C46.496 91.6791 46.5388 91.9362 46.5898 92.1864C46.8639 93.5349 47.2443 94.8456 47.8616 96.0839C48.9324 98.2315 50.4955 99.9354 52.4556 101.294C52.806 101.537 53.1499 101.795 53.4648 102.082C53.888 102.466 53.9856 102.954 53.7813 103.49C53.5646 104.059 53.1988 104.473 52.5661 104.569C52.0354 104.65 51.5351 104.532 51.1016 104.225C50.3811 103.713 49.6388 103.221 48.9765 102.641C46.2458 100.247 44.5256 97.2457 43.7674 93.695C43.6492 93.1405 43.5609 92.5684 43.5532 92.0031C43.5399 91.0211 44.0707 90.5207 45.0285 90.5151V90.5147Z" fill="white"/>
<path d="M148.56 116.298C147.965 116.296 147.486 115.942 147.276 115.261C147.226 115.098 147.202 114.927 147.17 114.759C146.964 113.671 146.403 112.803 145.531 112.139C145.215 111.898 144.864 111.703 144.532 111.482C144.152 111.23 143.749 111.005 143.405 110.711C142.957 110.328 142.803 109.826 143.009 109.243C143.221 108.637 143.655 108.3 144.27 108.265C144.677 108.242 145.06 108.334 145.438 108.474C146.363 108.816 147.148 109.377 147.861 110.043C148.554 110.69 149.116 111.443 149.589 112.263C149.95 112.889 150.157 113.568 150.281 114.275C150.364 114.747 150.248 115.191 150.038 115.598C149.756 116.145 149.238 116.289 148.56 116.298H148.56Z" fill="white"/>
</g>
<defs>
<linearGradient id="paint0_linear_3867_4321" x1="156.25" y1="13.75" x2="48.75" y2="185" gradientUnits="userSpaceOnUse">
<stop stop-color="white" stop-opacity="0.47"/>
<stop offset="1" stop-color="#6546A6"/>
</linearGradient>
<clipPath id="clip0_3867_4321">
<rect width="126" height="104" fill="white" transform="translate(37 48)"/>
</clipPath>
</defs>
</svg>
