<svg width="200" height="200" viewBox="0 0 200 200" fill="none" xmlns="http://www.w3.org/2000/svg">
<rect x="0.5" y="0.5" width="199" height="199" rx="99.5" fill="white" fill-opacity="0.07" stroke="url(#paint0_linear_3867_4337)"/>
<g clip-path="url(#clip0_3867_4337)">
<path d="M102.177 156.976C69.5463 157.929 42.7855 130.904 44.0431 98.2831C45.2069 68.0648 70.0807 43.9695 100.61 44C131.805 44.0305 157.045 69.3936 157 100.664C156.956 131.195 132.534 156.089 102.177 156.975V156.976ZM126.384 77.7934L89.5931 114.595C89.3276 114.861 88.896 114.861 88.6293 114.595C83.9255 109.888 79.2172 105.177 74.5167 100.473C72.3665 98.3216 68.8796 98.3204 66.7271 100.471L66.648 100.55C64.4956 102.7 64.4956 106.188 66.6458 108.34C72.9428 114.639 79.2431 120.941 85.5266 127.227C87.5706 129.272 90.8846 129.272 92.9286 127.227C106.734 113.422 120.565 99.5927 134.374 85.7841C136.523 83.635 136.524 80.1526 134.378 78.0001L134.176 77.7968C132.026 75.6409 128.534 75.6386 126.381 77.7922L126.384 77.7934Z" fill="#6546A6"/>
</g>
<defs>
<linearGradient id="paint0_linear_3867_4337" x1="156.25" y1="13.75" x2="48.75" y2="185" gradientUnits="userSpaceOnUse">
<stop stop-color="white" stop-opacity="0.47"/>
<stop offset="1" stop-color="#6546A6"/>
</linearGradient>
<clipPath id="clip0_3867_4337">
<rect width="113" height="113" fill="white" transform="translate(44 44)"/>
</clipPath>
</defs>
</svg>
