<svg width="200" height="200" viewBox="0 0 200 200" fill="none" xmlns="http://www.w3.org/2000/svg">
<rect x="0.5" y="0.5" width="199" height="199" rx="99.5" fill="white" fill-opacity="0.07" stroke="url(#paint0_linear_3867_4309)"/>
<g clip-path="url(#clip0_3867_4309)">
<path d="M125.417 146H74.3943C74.3943 144.375 74.3943 142.779 74.3943 141.184C74.3943 134.118 74.4283 127.053 74.3864 119.988C74.3603 115.583 74.6741 111.272 76.8289 107.293C80.4352 100.633 85.9033 96.5519 93.4087 95.7935C98.5473 95.2747 103.775 95.0456 108.89 96.1516C117.149 97.937 123.804 105.118 125.054 113.555C125.389 115.814 125.433 118.129 125.444 120.42C125.488 128.636 125.462 136.852 125.459 145.068C125.459 145.357 125.433 145.644 125.415 145.997L125.417 146Z" fill="#6546A6"/>
<path d="M127.266 135.533C127.266 131.317 127.295 127.217 127.259 123.115C127.227 119.636 127.371 116.131 126.987 112.689C126.288 106.483 123.087 101.643 118.061 98.0482C116.848 97.1818 115.498 96.4735 114.133 95.8678C112.779 95.2648 111.327 94.8803 109.865 94.3827C111.223 92.2813 113.032 90.5091 115.122 89.0371C118.827 86.4275 122.951 85.0924 127.494 85.1056C130.234 85.1135 132.978 85.1056 135.718 85.1056C144.168 85.1003 152.277 90.6644 155.397 98.5722C156.493 101.35 157.003 104.229 157.003 107.207C157.003 116.244 157.003 125.282 157.003 134.319C157.003 134.706 157.003 135.091 157.003 135.533H127.272H127.266Z" fill="#A1A0B3"/>
<path d="M43 135.509C43 131.085 43 126.751 43 122.416C43 117.192 42.9948 111.97 43.0026 106.745C43.0183 96.1306 50.7067 86.893 61.1357 85.421C64.9799 84.8785 68.9444 85.0945 72.854 85.1419C74.6558 85.1656 76.502 85.4315 78.2411 85.9081C83.1888 87.2643 87.1586 90.0977 90.2025 94.4532C89.4102 94.6586 88.7041 94.8113 88.0163 95.022C79.0334 97.7659 72.8566 105.979 72.7546 115.446C72.6866 121.687 72.7363 127.928 72.7337 134.171C72.7337 134.59 72.7337 135.009 72.7337 135.509H43Z" fill="#A1A0B3"/>
<path d="M67.2315 82.9506C58.8684 82.9111 52.3542 76.2647 52.3908 67.8092C52.4248 59.617 59.1587 52.8547 67.3988 53.0074C75.6835 53.1602 82.1061 59.5301 82.1061 68.0172C82.1061 76.8229 75.0741 82.9664 67.2315 82.9506Z" fill="#A1A0B3"/>
<path d="M132.766 82.9487C124.494 82.9487 117.75 76.2286 117.86 67.9311C117.972 59.5203 124.439 53.1109 132.682 53.0003C140.943 52.8923 147.63 59.6941 147.609 67.9995C147.591 76.3102 141.001 82.9461 132.766 82.9461V82.9487Z" fill="#A1A0B3"/>
<path d="M99.8967 92.8467C91.5258 92.7888 84.9933 86.1002 85.077 77.6763C85.1607 69.4183 91.8815 62.7614 100.109 62.9167C108.302 63.0721 114.826 69.4605 114.795 77.9555C114.761 86.6848 107.831 92.8915 99.8967 92.8441V92.8467Z" fill="#6546A6"/>
</g>
<defs>
<linearGradient id="paint0_linear_3867_4309" x1="156.25" y1="13.75" x2="48.75" y2="185" gradientUnits="userSpaceOnUse">
<stop stop-color="white" stop-opacity="0.47"/>
<stop offset="1" stop-color="#6546A6"/>
</linearGradient>
<clipPath id="clip0_3867_4309">
<rect width="114" height="93" fill="white" transform="translate(43 53)"/>
</clipPath>
</defs>
</svg>
