<svg width="200" height="70" viewBox="0 0 200 70" fill="none" xmlns="http://www.w3.org/2000/svg">
<g clip-path="url(#clip0_3867_6172)">
<path d="M124.158 20.3532C118.156 8.60998 100.593 0 100.593 0C100.593 0 83.0314 8.60998 77.0293 20.3532C85.2441 14.518 100.593 10.459 100.593 10.459C100.593 10.459 115.943 14.518 124.158 20.3532Z" fill="#FFA500"/>
<path d="M77.0293 20.3536C85.1399 14.5922 100.196 6.08946 100.576 5.98866V0.00878906C100.195 0.196389 82.9652 8.74015 77.0293 20.3536Z" fill="#E97300"/>
<path d="M34.6114 66.6497H32.8818L36.5851 57.6318H38.2123L41.9542 66.6497H40.1861L37.4049 59.7841L34.6114 66.6497Z" fill="#F89A0F"/>
<path d="M51.3059 62.1151C51.3059 61.6652 51.2335 61.2406 51.0881 60.8411C50.9425 60.4426 50.7331 60.0944 50.4599 59.7967C50.1866 59.4999 49.858 59.2638 49.473 59.0902C49.089 58.9156 48.658 58.8288 48.1791 58.8288C47.7011 58.8288 47.2692 58.9156 46.8852 59.0902C46.5002 59.2638 46.1716 59.4999 45.8983 59.7967C45.6251 60.0944 45.4157 60.4426 45.2702 60.8411C45.1247 61.2406 45.0523 61.6652 45.0523 62.1151C45.0523 62.5734 45.1275 63.0074 45.2768 63.4143C45.4261 63.8222 45.6354 64.175 45.905 64.4718C46.1735 64.7686 46.5002 65.0047 46.8852 65.1783C47.2692 65.3528 47.7011 65.4396 48.1791 65.4396C48.6486 65.4396 49.0777 65.3528 49.4673 65.1783C49.8561 65.0047 50.1847 64.7686 50.4533 64.4718C50.7228 64.175 50.9321 63.8222 51.0814 63.4143C51.2307 63.0074 51.3059 62.5734 51.3059 62.1151ZM53.0233 62.1151C53.0233 62.8198 52.9011 63.4628 52.658 64.0443C52.4148 64.6267 52.0768 65.1298 51.6458 65.5544C51.2138 65.9791 50.7011 66.3076 50.1078 66.541C49.5143 66.7752 48.8711 66.8919 48.1791 66.8919C47.4871 66.8919 46.8467 66.7752 46.2571 66.541C45.6673 66.3076 45.1547 65.9791 44.719 65.5544C44.2833 65.1298 43.9444 64.6267 43.7002 64.0443C43.4571 63.4628 43.3359 62.8198 43.3359 62.1151C43.3359 61.4104 43.4571 60.7674 43.7002 60.1859C43.9444 59.6044 44.2833 59.107 44.719 58.6954C45.1547 58.2838 45.6673 57.9627 46.2571 57.734C46.8467 57.5044 47.4871 57.3896 48.1791 57.3896C48.8711 57.3896 49.5143 57.5044 50.1078 57.734C50.7011 57.9627 51.2138 58.2838 51.6458 58.6954C52.0768 59.107 52.4148 59.6044 52.658 60.1859C52.9011 60.7674 53.0233 61.4104 53.0233 62.1151Z" fill="#F89A0F"/>
<path d="M57.4124 61.6059H58.6303C58.9035 61.6059 59.1552 61.5807 59.3862 61.5294C59.6172 61.4781 59.8153 61.3969 59.9815 61.2858C60.1486 61.1757 60.2763 61.0347 60.3665 60.8639C60.4556 60.6931 60.5007 60.4887 60.5007 60.2489C60.5007 60.0015 60.4538 59.7953 60.3598 59.6282C60.266 59.4621 60.1373 59.3277 59.9749 59.2259C59.8134 59.1233 59.619 59.0505 59.3927 59.0075C59.1665 58.9655 58.9204 58.9441 58.6556 58.9441H57.4124V61.6059ZM55.8105 57.6318H58.7834C59.2622 57.6318 59.7063 57.6803 60.1167 57.7783C60.526 57.8763 60.8791 58.0313 61.1739 58.2431C61.4679 58.4559 61.6989 58.7257 61.866 59.0523C62.0322 59.379 62.1158 59.7766 62.1158 60.2433C62.1158 60.7099 62.0284 61.1113 61.8528 61.4473C61.6772 61.7823 61.4387 62.0558 61.1355 62.2677C60.8322 62.4805 60.4753 62.6363 60.0651 62.7334C59.6556 62.8305 59.2153 62.8799 58.7448 62.8799H57.4124V66.6497H55.8105V57.6318Z" fill="#F89A0F"/>
<path d="M64.7511 66.6497H63.0215L66.7248 57.6318H68.352L72.0935 66.6497H70.3257L67.5445 59.7841L64.7511 66.6497Z" fill="#F89A0F"/>
<path d="M76.8925 63.2738H79.9671L78.4425 59.4023L76.8925 63.2738ZM75.5854 66.6497H73.8291L77.6869 57.6318H79.2502L83.0812 66.6497H81.2876L80.4545 64.5982H76.3925L75.5854 66.6497Z" fill="#F89A0F"/>
<path d="M87.9517 66.6497H86.3369V59.0075H83.5566V57.6318H90.7327V59.0075H87.9517V66.6497Z" fill="#F89A0F"/>
<path d="M94.7732 64.4078L99.2324 57.6318H101.103V66.6497H99.5014V59.8737H99.4761L95.0035 66.6497H93.1465V57.6318H94.7479V64.4078H94.7732Z" fill="#F89A0F"/>
<path d="M104.372 57.6318H105.974V61.2746H110.164V57.6318H111.766V66.6497H110.164V62.6503H105.974V66.6497H104.372V57.6318Z" fill="#F89A0F"/>
<path d="M116.656 64.4078L121.115 57.6318H122.985V66.6497H121.383V59.8737H121.358L116.886 66.6497H115.028V57.6318H116.63V64.4078H116.656Z" fill="#F89A0F"/>
<path d="M129.214 65.2739C129.77 65.2739 130.222 65.1619 130.572 64.937C130.922 64.7111 131.098 64.3695 131.098 63.9113C131.098 63.6817 131.051 63.4829 130.957 63.3121C130.863 63.1431 130.732 63.005 130.565 62.8986C130.4 62.7922 130.203 62.7138 129.977 62.6634C129.751 62.6121 129.506 62.5869 129.239 62.5869H127.856V65.2739H129.214ZM126.255 66.6497V57.6318H132.123V59.0075H127.856V61.2111H129.368C129.846 61.2111 130.29 61.2643 130.701 61.3698C131.111 61.4762 131.464 61.6423 131.758 61.8673C132.052 62.0922 132.284 62.375 132.45 62.7138C132.616 63.0535 132.7 63.453 132.7 63.9113C132.7 64.3789 132.611 64.7839 132.438 65.1274C132.262 65.4718 132.022 65.7565 131.72 65.9814C131.416 66.2063 131.059 66.3743 130.649 66.4845C130.239 66.5946 129.799 66.6497 129.33 66.6497H126.255Z" fill="#F89A0F"/>
<path d="M3.50423 47.9997H0L9.94739 24.5049H13.1868L23.1343 47.9997H19.5625L11.5164 28.7198L3.50423 47.9997Z" fill="white"/>
<path d="M47.6376 36.2189C47.6376 34.9365 47.4254 33.725 47.0029 32.5854C46.5803 31.4468 45.9794 30.4444 45.2 29.5829C44.4217 28.7196 43.4752 28.0336 42.3634 27.5249C41.2498 27.0162 40.0038 26.7614 38.6235 26.7614C37.2442 26.7614 35.9982 27.0162 34.8855 27.5249C33.7719 28.0336 32.8264 28.7196 32.047 29.5829C31.2677 30.4444 30.6677 31.4468 30.2451 32.5854C29.8217 33.725 29.6104 34.9365 29.6104 36.2189C29.6104 37.5246 29.8217 38.7529 30.2451 39.9018C30.6677 41.0536 31.2677 42.0597 32.047 42.9221C32.8264 43.7845 33.7719 44.4649 34.8855 44.9624C35.9982 45.4608 37.2442 45.71 38.6235 45.71C40.0038 45.71 41.2498 45.4608 42.3634 44.9624C43.4752 44.4649 44.4217 43.7845 45.2 42.9221C45.9794 42.0597 46.5803 41.0536 47.0029 39.9018C47.4254 38.7529 47.6376 37.5246 47.6376 36.2189ZM51.0761 36.2189C51.0761 38.0333 50.7643 39.6984 50.1418 41.2132C49.5184 42.7289 48.6498 44.0337 47.5381 45.1294C46.4245 46.2242 45.1062 47.0764 43.5822 47.684C42.0573 48.2925 40.4048 48.5968 38.6235 48.5968C36.8433 48.5968 35.1907 48.2925 33.6667 47.684C32.1419 47.0764 30.8236 46.2242 29.7099 45.1294C28.5972 44.0337 27.7296 42.7289 27.1071 41.2132C26.4836 39.6984 26.1719 38.0333 26.1719 36.2189C26.1719 34.4054 26.4836 32.746 27.1071 31.2414C27.7296 29.7378 28.5972 28.4433 29.7099 27.3588C30.8236 26.2752 32.1419 25.4286 33.6667 24.8201C35.1907 24.2125 36.8433 23.9082 38.6235 23.9082C40.4048 23.9082 42.0573 24.2125 43.5822 24.8201C45.1062 25.4286 46.4245 26.2752 47.5381 27.3588C48.6498 28.4433 49.5184 29.7378 50.1418 31.2414C50.7643 32.746 51.0761 34.4054 51.0761 36.2189Z" fill="white"/>
<path d="M60.6578 34.9909H64.3114C65.9864 34.9909 67.2982 34.6689 68.2475 34.0249C69.1977 33.38 69.6719 32.3916 69.6719 31.0588C69.6719 29.6821 69.1912 28.6928 68.2306 28.0927C67.27 27.4935 65.9743 27.1929 64.3442 27.1929H60.6578V34.9909ZM57.4531 24.5049H64.6306C65.854 24.5049 66.978 24.6319 68.0024 24.8867C69.0259 25.1405 69.9057 25.5335 70.6397 26.0645C71.3743 26.5956 71.9426 27.2713 72.3426 28.088C72.7433 28.9075 72.9433 29.88 72.9433 31.0084C72.9433 32.1368 72.7313 33.1159 72.3066 33.9456C71.8834 34.7753 71.2975 35.4613 70.5496 36.0027C69.8024 36.5459 68.9095 36.9491 67.8719 37.2141C66.8334 37.4801 65.7132 37.6127 64.5085 37.6127H60.6578V47.9997H57.4531V24.5049Z" fill="white"/>
<path d="M82.1893 45.3117H86.3492C87.1041 45.3117 87.8351 45.2399 88.5449 45.0961C89.2548 44.9524 89.8816 44.7135 90.4252 44.3821C90.9689 44.0499 91.4006 43.6243 91.7224 43.1053C92.0449 42.5855 92.2055 41.9387 92.2055 41.164C92.2055 39.7705 91.7111 38.7411 90.7245 38.0775C89.7379 37.4139 88.378 37.0825 86.6492 37.0825H82.1893V45.3117ZM82.1893 34.5597H86.5809C87.1351 34.5597 87.6886 34.4935 88.2435 34.3609C88.7978 34.2284 89.2851 34.0175 89.7069 33.7309C90.128 33.4425 90.4717 33.0617 90.7379 32.5857C91.0034 32.1097 91.1379 31.5292 91.1379 30.8432C91.1379 30.1796 91.009 29.6205 90.7548 29.1679C90.4992 28.7143 90.1386 28.3372 89.6731 28.0395C89.2069 27.7408 88.6647 27.5243 88.0435 27.3927C87.4231 27.2592 86.7463 27.1929 86.0147 27.1929H82.1893V34.5597ZM78.9844 24.5049H86.6309C87.5196 24.5049 88.4266 24.6001 89.3506 24.7877C90.2745 24.9753 91.1041 25.2964 91.8379 25.75C92.5724 26.2027 93.1731 26.8177 93.6407 27.5915C94.1083 28.3661 94.3421 29.3396 94.3421 30.5119C94.3421 31.7728 93.9689 32.8564 93.2231 33.7636C92.4787 34.6708 91.4823 35.2793 90.2365 35.5883V35.6545C90.9921 35.7432 91.6879 35.9373 92.3224 36.2351C92.9562 36.5347 93.5069 36.9276 93.9745 37.4139C94.4421 37.9011 94.809 38.4816 95.0766 39.1555C95.3435 39.8312 95.4773 40.5779 95.4773 41.3964C95.4773 42.4576 95.2597 43.3984 94.8259 44.216C94.3921 45.0355 93.7787 45.7261 92.9893 46.2908C92.1999 46.8545 91.2597 47.2801 90.1696 47.5676C89.0773 47.856 87.8879 47.9997 86.5971 47.9997H78.9844V24.5049Z" fill="white"/>
<path d="M105.391 43.3863L118.145 24.5049H122.017V47.9988H118.812V29.0176H118.745L105.993 47.9988H102.12V24.5049H105.325V43.3863H105.391Z" fill="white"/>
<path d="M129.662 47.9997V24.5049H132.867V34.1285C133.401 34.1285 133.918 34.1453 134.419 34.178C134.921 34.2116 135.415 34.2508 135.904 34.2937L144.452 24.5049H147.991L139.211 35.0581C141.814 35.9429 143.85 37.4465 145.319 39.5708C146.788 41.6941 147.811 44.5044 148.391 47.9997H144.819C144.485 46.0528 144.011 44.3709 143.4 42.956C142.788 41.5401 142.003 40.3837 141.046 39.4877C140.088 38.5917 138.937 37.9402 137.591 37.5296C136.245 37.1208 134.67 36.9378 132.867 36.9817V47.9997H129.662Z" fill="white"/>
<path d="M157.805 45.3117H161.964C162.718 45.3117 163.45 45.2399 164.16 45.0961C164.869 44.9524 165.495 44.7135 166.04 44.3821C166.584 44.0499 167.016 43.6243 167.337 43.1053C167.659 42.5855 167.821 41.9387 167.821 41.164C167.821 39.7705 167.326 38.7411 166.34 38.0775C165.352 37.4139 163.993 37.0825 162.264 37.0825H157.805V45.3117ZM157.805 34.5597H162.196C162.75 34.5597 163.303 34.4935 163.858 34.3609C164.412 34.2284 164.9 34.0175 165.322 33.7309C165.743 33.4425 166.086 33.0617 166.353 32.5857C166.619 32.1097 166.752 31.5292 166.752 30.8432C166.752 30.1796 166.624 29.6205 166.369 29.1679C166.114 28.7143 165.754 28.3372 165.288 28.0395C164.822 27.7408 164.28 27.5243 163.658 27.3927C163.038 27.2592 162.362 27.1929 161.63 27.1929H157.805V34.5597ZM154.6 24.5049H162.245C163.135 24.5049 164.042 24.6001 164.966 24.7877C165.889 24.9753 166.718 25.2964 167.452 25.75C168.188 26.2027 168.788 26.8177 169.255 27.5915C169.723 28.3661 169.957 29.3396 169.957 30.5119C169.957 31.7728 169.584 32.8564 168.838 33.7636C168.093 34.6708 167.097 35.2793 165.85 35.5883V35.6545C166.607 35.7432 167.302 35.9373 167.937 36.2351C168.571 36.5347 169.122 36.9276 169.59 37.4139C170.057 37.9011 170.424 38.4816 170.692 39.1555C170.959 39.8312 171.092 40.5779 171.092 41.3964C171.092 42.4576 170.875 43.3984 170.441 44.216C170.007 45.0355 169.394 45.7261 168.605 46.2908C167.814 46.8545 166.874 47.2801 165.784 47.5676C164.693 47.856 163.502 47.9997 162.211 47.9997H154.6V24.5049Z" fill="white"/>
<path d="M181.875 39.4383H191.155L186.549 28.0889L181.875 39.4383ZM178.436 47.9997H174.897L185.045 24.5049H188.185L198.266 47.9997H194.627L192.223 42.2252H180.806L178.436 47.9997Z" fill="white"/>
<path d="M139.346 69.5804H139.831V53.374H139.346V69.5804Z" fill="#FFA500"/>
<path d="M198.143 24.792C199.146 24.792 199.951 25.6059 199.951 26.6176C199.951 27.6303 199.146 28.4479 198.143 28.4479C197.156 28.4479 196.352 27.6303 196.352 26.6176C196.352 25.6059 197.156 24.792 198.143 24.792ZM198.143 28.0447C198.916 28.0447 199.509 27.4166 199.509 26.6176C199.509 25.8243 198.916 25.1962 198.143 25.1962C197.385 25.1962 196.799 25.8243 196.799 26.6176C196.799 27.4166 197.385 28.0447 198.143 28.0447ZM197.516 25.6946H198.28C198.64 25.6946 198.88 25.9242 198.88 26.2732C198.88 26.5588 198.686 26.7128 198.556 26.7474V26.7567C198.556 26.7567 198.576 26.7772 198.621 26.8622L198.967 27.5202H198.495L198.184 26.8463H197.942V27.5202H197.516V25.6946ZM198.179 26.5476C198.345 26.5476 198.445 26.4422 198.445 26.2732C198.445 26.0987 198.345 26.0035 198.184 26.0035H197.942V26.5476H198.179Z" fill="white"/>
<path d="M145.305 55.8916V55.1095C145.749 55.1095 146.065 55.0358 146.25 54.8892C146.437 54.7427 146.593 54.5215 146.717 54.2275H147.581V61.2452H146.297V55.8916H145.305Z" fill="#FFA500"/>
<path d="M150.546 55.8415V59.6308C150.546 60.0919 150.767 60.3224 151.211 60.3224C151.655 60.3224 151.876 60.0919 151.876 59.6308V55.8415C151.876 55.3804 151.655 55.1499 151.211 55.1499C150.767 55.1499 150.546 55.3804 150.546 55.8415ZM149.262 59.5608V55.9115C149.262 55.3506 149.429 54.9156 149.763 54.6086C150.098 54.3015 150.58 54.1475 151.211 54.1475C151.841 54.1475 152.324 54.3015 152.659 54.6086C152.992 54.9156 153.16 55.3506 153.16 55.9115V59.5608C153.16 60.1217 152.992 60.5567 152.659 60.8638C152.324 61.1718 151.841 61.3248 151.211 61.3248C150.58 61.3248 150.098 61.1718 149.763 60.8638C149.429 60.5567 149.262 60.1217 149.262 59.5608Z" fill="#FFA500"/>
<path d="M155.402 55.8415V59.6308C155.402 60.0919 155.623 60.3224 156.067 60.3224C156.512 60.3224 156.732 60.0919 156.732 59.6308V55.8415C156.732 55.3804 156.512 55.1499 156.067 55.1499C155.623 55.1499 155.402 55.3804 155.402 55.8415ZM154.118 59.5608V55.9115C154.118 55.3506 154.285 54.9156 154.62 54.6086C154.954 54.3015 155.436 54.1475 156.067 54.1475C156.698 54.1475 157.18 54.3015 157.515 54.6086C157.848 54.9156 158.017 55.3506 158.017 55.9115V59.5608C158.017 60.1217 157.848 60.5567 157.515 60.8638C157.18 61.1718 156.698 61.3248 156.067 61.3248C155.436 61.3248 154.954 61.1718 154.62 60.8638C154.285 60.5567 154.118 60.1217 154.118 59.5608Z" fill="#FFA500"/>
<path d="M162.095 56.7422L162.702 59.9398L163.263 56.7422H164.41V61.2456H163.63V58.0162L163.06 61.2456H162.282L161.668 58.061V61.2456H160.948V56.7422H162.095Z" fill="#FFA500"/>
<path d="M165.989 61.2456H165.165V56.7422H167.338V57.3862H165.989V61.2456Z" fill="#FFA500"/>
<path d="M145.472 64.7666V64.1133H147.707V64.7666H146.951V68.6866H146.229V64.7666H145.472Z" fill="#FFA500"/>
<path d="M149.126 64.9234L148.778 67.2362H149.475L149.126 64.9234ZM149.693 64.1133L150.428 68.6866H149.698L149.574 67.8569H148.686L148.561 68.6866H147.897L148.634 64.1133H149.693Z" fill="#FFA500"/>
<path d="M151.557 68.0333H151.979C152.224 68.0333 152.348 67.8895 152.348 67.6021V67.0206C152.348 66.7331 152.224 66.5894 151.979 66.5894H151.557V68.0333ZM151.979 68.6866H150.835V64.1133H152.86V64.7666H151.557V65.9361H151.979C152.338 65.9361 152.61 66.0331 152.793 66.2263C152.979 66.4205 153.069 66.7005 153.069 67.0663V67.5563C153.069 67.9222 152.979 68.2022 152.793 68.3963C152.61 68.5895 152.338 68.6866 151.979 68.6866Z" fill="#FFA500"/>
<path d="M153.419 68.6932V68.0398C153.595 68.0398 153.711 68.0128 153.77 67.9586C153.83 67.9036 153.861 67.7748 153.866 67.5694L153.984 64.1133H156.027V68.6866H155.291V64.7666H154.66L154.582 67.5302C154.57 67.9484 154.481 68.247 154.32 68.4253C154.157 68.6045 153.894 68.6932 153.53 68.6932H153.419Z" fill="#FFA500"/>
<path d="M157.368 64.7666V66.0406H158.362V66.6939H157.368V68.0333H158.617V68.6866H156.646V64.1133H158.617V64.7666H157.368Z" fill="#FFA500"/>
<path d="M158.921 64.7666V64.1133H161.155V64.7666H160.4V68.6866H159.677V64.7666H158.921Z" fill="#FFA500"/>
<path d="M163.186 68.6866L162.483 66.8638L162.259 67.282V68.6866H161.536V64.1133H162.259V66.106L163.206 64.1133H163.929L162.923 66.1517L163.929 68.6866H163.186Z" fill="#FFA500"/>
<path d="M165.669 66.5894L165.065 68.6866H164.322V64.1133H164.967V67.0075L165.229 66.0014L165.821 64.1133H166.616V68.6866H165.965V65.4657L165.669 66.5894Z" fill="#FFA500"/>
</g>
<defs>
<clipPath id="clip0_3867_6172">
<rect width="200" height="70" fill="white"/>
</clipPath>
</defs>
</svg>
