<svg width="84" height="36" viewBox="0 0 84 36" fill="none" xmlns="http://www.w3.org/2000/svg">
<g clip-path="url(#clip0_3771_3098)">
<path d="M0.346191 19.4831C0.385238 19.3673 0.424284 19.2572 0.480065 19.1471C1.79649 16.3837 7.42475 15.2424 15.4906 16.2562L17.1138 10.0573C8.81369 8.96238 2.75591 10.1964 1.74628 14.1185L0.346191 19.4831Z" fill="white"/>
<path d="M30.6348 13.0293C30.6014 13.122 30.5679 13.2147 30.5288 13.3074C29.2682 16.1114 23.6176 17.27 15.4904 16.2504L13.8672 22.4493C22.1673 23.5443 28.2251 22.3103 29.2347 18.3882L30.6348 13.0293Z" fill="white"/>
<path d="M5.65625 6.49383C17.9057 7.40918 30.4173 13.7008 29.2347 18.3992L30.3336 14.2048C30.685 12.8839 30.8579 12.2003 30.8579 11.6499C30.8579 6.8646 18.7814 1.02489 7.27947 0.294922L5.65625 6.49383Z" fill="white"/>
<path d="M25.3245 26.0109C13.0751 25.1013 0.563507 18.8098 1.75163 14.1113L0.652756 18.3057C0.301338 19.6266 0.128418 20.3102 0.128418 20.8606C0.128418 25.6459 12.2049 31.4856 23.7069 32.2156L25.3245 26.0109Z" fill="white"/>
<path d="M70.0047 24.5528C68.454 24.5759 67.6284 23.5505 67.6284 21.7314C67.6284 21.6097 67.634 21.4939 67.6396 21.378H73.7308C73.8535 20.8972 73.9316 20.3757 73.9316 19.8949C73.9316 17.676 72.6208 15.9844 69.9433 15.9844C67.2045 15.9844 64.7725 18.7884 64.7725 21.7314C64.7725 24.5528 66.5463 26.2676 69.5027 26.2676C70.8135 26.2676 72.102 25.8099 73.0057 25.0973L72.4423 23.6316C71.7395 24.1994 70.8749 24.5354 70.0047 24.5528ZM69.9879 17.5718C70.8916 17.5718 71.3546 18.1801 71.3546 19.5183C71.3546 19.6458 71.349 19.779 71.3323 19.9181H67.8571C68.2364 18.5045 69.0453 17.5718 69.9879 17.5718Z" fill="white"/>
<path d="M45.891 15.3571C45.891 13.0571 44.1618 11.3828 41.5401 11.3828H36.4696L32.6431 26.0169H35.8449L37.2561 20.6232H40.034C43.2135 20.6232 45.891 18.4913 45.891 15.3571ZM38.8068 18.9084H37.7079L39.2252 13.0977H40.3798C41.8357 13.0977 42.6557 14.1231 42.6557 15.4787C42.6501 17.6512 41.0102 18.9084 38.8068 18.9084Z" fill="white"/>
<path d="M50.0634 16.2557L50.4203 14.8943C50.5988 14.1817 50.9056 12.9709 51.324 11.5689C51.7647 10.1263 52.5735 9.22837 53.6612 9.22837C54.1855 9.22837 54.5091 9.47748 54.5091 9.8946C54.4868 10.3523 54.1242 10.6246 54.1242 11.3603C54.1242 12.2177 54.827 12.884 55.7362 12.884C56.863 12.884 57.7667 11.9455 57.7667 10.7926C57.7667 9.01401 56.2996 7.84375 54.0628 7.84375C50.7829 7.84375 48.6298 10.0163 47.2799 15.097L41.8022 35.7736H44.9036L49.6338 17.8547H52.858L50.7383 26.006H53.8397L56.3777 16.2441H50.0634V16.2557Z" fill="white"/>
<path d="M65.76 16.2559H57.5491L57.1419 17.8664H61.119L54.9497 26.0177H63.6459L64.0475 24.4071H59.5739L65.76 16.2559Z" fill="white"/>
<path d="M82.0254 16.0879C80.9153 16.0879 79.7328 16.8352 78.8068 18.3821L79.3479 16.2559H76.2465L73.7085 26.0177H76.8099L77.959 21.6264C78.422 19.8304 79.5487 18.075 80.2962 18.075C81.0994 18.075 80.7982 19.645 82.1871 19.645C83.1912 19.645 83.7992 18.6833 83.7992 17.8027C83.7936 16.7773 83.0127 16.0879 82.0254 16.0879Z" fill="white"/>
</g>
<defs>
<clipPath id="clip0_3771_3098">
<rect width="84" height="36" fill="white"/>
</clipPath>
</defs>
</svg>
