<svg width="193" height="130" viewBox="0 0 193 130" fill="none" xmlns="http://www.w3.org/2000/svg">
<g opacity="0.2">
<path d="M58.873 158.792C58.873 157.826 58.873 157.017 58.873 156.208C58.8999 134.541 58.8954 112.871 58.9669 91.2044C59.0251 72.9942 73.587 56.9211 91.6809 54.86C103.869 53.4695 114.411 56.9748 123.036 65.6037C129.952 72.5247 133.936 80.9972 133.99 90.9183C134.11 113.108 134.066 135.301 134.079 157.491C134.079 157.857 134.007 158.224 133.954 158.787H58.873V158.792Z" fill="#6546A6"/>
<path d="M135.322 72.4749C144.219 70.1142 151.977 71.6165 158.808 77.1068C165.296 82.32 168.439 89.2455 168.439 97.5838C168.439 112.186 168.421 126.788 168.497 141.39C168.506 143.273 168.117 143.997 166.06 143.966C158.312 143.845 150.564 143.845 142.816 143.966C140.683 144.001 140.236 143.241 140.249 141.278C140.33 127.347 140.205 113.415 140.343 99.484C140.437 90.2559 140.146 81.1575 135.322 72.4704V72.4749Z" fill="#A1A0B3"/>
<path d="M52.5516 143.786H24.6573C24.6126 142.892 24.541 142.105 24.541 141.314C24.541 126.72 24.541 112.127 24.5589 97.534C24.5813 81.7828 37.5381 69.9929 53.1686 71.5175C54.559 71.6516 55.9227 72.0585 57.2058 72.3178C55.9942 76.0376 54.6529 79.5652 53.7319 83.1956C53.0791 85.762 52.717 88.4759 52.7036 91.1271C52.6231 107.951 52.6768 124.78 52.6768 141.609C52.6768 142.261 52.6007 142.919 52.5471 143.786H52.5516Z" fill="#6546A6"/>
<path d="M96.3714 47.8355C83.0032 47.7058 72.4428 37.0113 72.5457 23.7057C72.6485 10.503 83.5129 -0.0976821 96.8364 0.000678999C109.968 0.0990401 120.604 11.0842 120.452 24.3853C120.304 37.3287 109.382 47.9606 96.3714 47.8355Z" fill="#6546A6"/>
<path d="M22.6683 81.3638C19.9008 86.3579 18.3538 91.5889 18.3181 97.1866C18.2734 104.93 18.3181 112.669 18.327 120.413C18.327 123.905 18.327 127.397 18.327 131.072H0.183854C0.130203 130.473 0.0273707 129.833 0.0273707 129.194C0.0228997 118.844 -0.0441646 108.498 0.0497255 98.1478C0.152558 87.033 10.4 78.6231 21.0096 80.8273C21.5059 80.9302 21.9798 81.1358 22.6638 81.3594L22.6683 81.3638Z" fill="#A1A0B3"/>
<path d="M170.268 81.4223C179.742 78.1854 190.454 84.5833 192.493 94.3389C192.752 95.5729 192.967 96.8427 192.971 98.0945C193.011 108.592 192.998 119.09 192.993 129.592C192.993 130.031 192.931 130.469 192.882 131.086H174.828C174.779 130.245 174.694 129.391 174.689 128.537C174.68 120.047 174.564 111.557 174.721 103.075C174.859 95.5372 174.403 88.178 170.268 81.4268V81.4223Z" fill="#ADACBD"/>
<path d="M50.5032 64.7489C41.6776 64.807 34.3273 57.6937 34.3184 49.0782C34.3094 39.7026 41.1589 32.6385 50.3333 32.5669C59.3244 32.4954 66.4869 39.6311 66.5227 48.6937C66.5584 57.5954 59.4809 64.6908 50.5032 64.7489Z" fill="#6546A6"/>
<path d="M158.675 49.0026C158.523 57.9356 151.339 64.8701 142.361 64.7494C133.325 64.6286 126.364 57.4125 126.498 48.3186C126.628 39.4661 133.982 32.3573 142.821 32.5406C151.898 32.7284 158.832 39.9266 158.675 49.0026Z" fill="#A1A0B3"/>
<path d="M185.862 63.2553C185.875 69.157 181.141 73.9901 175.297 74.0393C169.301 74.0929 164.379 69.3224 164.307 63.4029C164.236 57.2911 169.047 52.4088 175.145 52.4043C181.114 52.4043 185.853 57.1972 185.862 63.2508V63.2553Z" fill="#ADACBD"/>
<path d="M7.13106 63.2453C7.1713 57.1603 12.0491 52.3048 18.0447 52.3898C24.0045 52.4702 28.7124 57.2899 28.6945 63.29C28.6766 69.2319 23.8211 74.056 17.8792 74.0382C11.9284 74.0158 7.09529 69.1648 7.13106 63.2497V63.2453Z" fill="#A1A0B3"/>
</g>
</svg>
