<svg width="190" height="130" viewBox="0 0 190 130" fill="none" xmlns="http://www.w3.org/2000/svg">
<path d="M153.759 3.72943e-05C173.869 -0.0290595 189.968 16.382 190.194 37.1576C190.42 57.4387 173.982 74.6644 154.408 74.6935C133.79 74.6935 117.437 58.1952 117.437 37.3031C117.437 16.7311 133.677 0.0291341 153.759 3.72943e-05ZM168.22 10.1551C167.231 9.10757 166.243 7.24534 164.746 6.66339C162.543 5.79046 160.905 7.36173 160.086 9.51495C153.42 27.1481 146.783 44.8103 140.117 62.4434C139.157 64.9749 140.032 66.779 142.348 67.7683C144.636 68.7576 146.246 67.6519 147.291 65.5278C147.658 64.8004 147.912 64.0438 148.195 63.2873C154.126 47.5746 160.086 31.891 166.017 16.1783C166.666 14.4615 167.288 12.7157 168.22 10.126L168.22 10.1551Z" fill="#6546A6" fill-opacity="0.19"/>
<path d="M69.788 60.9878C58.575 79.3193 47.6163 97.2434 36.4316 115.517C21.0385 104.081 6.74689 91.9185 1.12629 72.4522C-3.05385 58.078 4.71331 47.2537 19.2591 46.1771C37.6743 44.8095 53.8018 51.7057 69.788 61.0169L69.788 60.9878Z" fill="#6546A6" fill-opacity="0.19"/>
<path d="M74.2505 63.8965C88.1466 73.9061 100.263 84.934 107.494 100.676C110.036 106.233 111.505 112.053 110.375 118.163C108.708 126.98 100.8 132.683 90.5474 133.265C72.3864 134.254 56.5131 127.446 40.9506 118.367C52.0505 100.21 63.0375 82.2571 74.2787 63.8965L74.2505 63.8965Z" fill="#6546A6" fill-opacity="0.19"/>
</svg>
