<svg width="182" height="64" viewBox="0 0 182 64" fill="none" xmlns="http://www.w3.org/2000/svg">
<g clip-path="url(#clip0_3867_7186)">
<path d="M112.983 18.6086C107.521 7.87198 91.539 0 91.539 0C91.539 0 75.5576 7.87198 70.0957 18.6086C77.5712 13.2736 91.539 9.56248 91.539 9.56248C91.539 9.56248 105.507 13.2736 112.983 18.6086Z" fill="#FFA500"/>
<path d="M70.0957 18.6088C77.4763 13.3412 91.1776 5.56728 91.5236 5.47512V0.0078125C91.1769 0.179332 75.4974 7.99077 70.0957 18.6088Z" fill="#E97300"/>
<path d="M31.4958 60.9363H29.9219L33.2919 52.6914H34.7726L38.1777 60.9363H36.5687L34.0378 54.6592L31.4958 60.9363Z" fill="#F89A0F"/>
<path d="M46.6882 56.7912C46.6882 56.3798 46.6224 55.9915 46.49 55.6264C46.3575 55.2619 46.167 54.9437 45.9183 54.6715C45.6697 54.4001 45.3706 54.1842 45.0203 54.0255C44.6708 53.8659 44.2786 53.7865 43.8428 53.7865C43.4079 53.7865 43.0149 53.8659 42.6654 54.0255C42.3151 54.1842 42.016 54.4001 41.7673 54.6715C41.5187 54.9437 41.3282 55.2619 41.1957 55.6264C41.0633 55.9915 40.9975 56.3798 40.9975 56.7912C40.9975 57.2101 41.0659 57.6069 41.2017 57.979C41.3376 58.3519 41.5281 58.6744 41.7734 58.9458C42.0177 59.2171 42.3151 59.4331 42.6654 59.5918C43.0149 59.7513 43.4079 59.8307 43.8428 59.8307C44.2701 59.8307 44.6605 59.7513 45.0151 59.5918C45.3689 59.4331 45.668 59.2171 45.9123 58.9458C46.1576 58.6744 46.3481 58.3519 46.4839 57.979C46.6198 57.6069 46.6882 57.2101 46.6882 56.7912ZM48.251 56.7912C48.251 57.4354 48.1399 58.0233 47.9186 58.555C47.6973 59.0875 47.3897 59.5474 46.9975 59.9357C46.6044 60.324 46.1379 60.6243 45.5979 60.8376C45.0579 61.0518 44.4726 61.1585 43.8428 61.1585C43.2131 61.1585 42.6304 61.0518 42.0938 60.8376C41.5571 60.6243 41.0906 60.324 40.6942 59.9357C40.2977 59.5474 39.9892 59.0875 39.7671 58.555C39.5458 58.0233 39.4355 57.4354 39.4355 56.7912C39.4355 56.1469 39.5458 55.5589 39.7671 55.0273C39.9892 54.4957 40.2977 54.0408 40.6942 53.6645C41.0906 53.2882 41.5571 52.9947 42.0938 52.7856C42.6304 52.5757 43.2131 52.4707 43.8428 52.4707C44.4726 52.4707 45.0579 52.5757 45.5979 52.7856C46.1379 52.9947 46.6044 53.2882 46.9975 53.6645C47.3897 54.0408 47.6973 54.4957 47.9186 55.0273C48.1399 55.5589 48.251 56.1469 48.251 56.7912Z" fill="#F89A0F"/>
<path d="M52.2448 56.3249H53.3531C53.6017 56.3249 53.8307 56.3018 54.0409 56.2549C54.2511 56.208 54.4314 56.1337 54.5826 56.0322C54.7347 55.9315 54.851 55.8026 54.933 55.6465C55.0141 55.4903 55.0551 55.3034 55.0551 55.0841C55.0551 54.858 55.0125 54.6694 54.927 54.5167C54.8415 54.3648 54.7245 54.2419 54.5767 54.1489C54.4297 54.055 54.2528 53.9884 54.0469 53.9492C53.841 53.9108 53.6171 53.8912 53.3761 53.8912H52.2448V56.3249ZM50.7871 52.6914H53.4924C53.9281 52.6914 54.3323 52.7358 54.7057 52.8254C55.0782 52.915 55.3995 53.0566 55.6678 53.2503C55.9353 53.4449 56.1455 53.6915 56.2975 53.9902C56.4488 54.2888 56.5249 54.6524 56.5249 55.079C56.5249 55.5057 56.4454 55.8726 56.2856 56.1798C56.1258 56.4862 55.9087 56.7362 55.6328 56.9299C55.3568 57.1244 55.0321 57.267 54.6587 57.3557C54.2861 57.4444 53.8854 57.4897 53.4573 57.4897H52.2448V60.9363H50.7871V52.6914Z" fill="#F89A0F"/>
<path d="M58.9235 60.9363H57.3496L60.7196 52.6914H62.2004L65.6052 60.9363H63.9965L61.4656 54.6592L58.9235 60.9363Z" fill="#F89A0F"/>
<path d="M69.9732 57.8508H72.7712L71.3837 54.3111L69.9732 57.8508ZM68.7838 60.9373H67.1855L70.6961 52.6924H72.1188L75.605 60.9373H73.9727L73.2146 59.0617H69.5182L68.7838 60.9373Z" fill="#F89A0F"/>
<path d="M80.0366 60.9363H78.5672V53.9492H76.0371V52.6914H82.5673V53.9492H80.0366V60.9363Z" fill="#F89A0F"/>
<path d="M86.244 58.8866L90.3019 52.6914H92.0039V60.9363H90.5467V54.7411H90.5236L86.4536 60.9363H84.7637V52.6914H86.221V58.8866H86.244Z" fill="#F89A0F"/>
<path d="M94.9785 52.6914H96.4364V56.022H100.249V52.6914H101.707V60.9363H100.249V57.2798H96.4364V60.9363H94.9785V52.6914Z" fill="#F89A0F"/>
<path d="M106.157 58.8866L110.215 52.6914H111.917V60.9363H110.459V54.7411H110.436L106.366 60.9363H104.676V52.6914H106.134V58.8866H106.157Z" fill="#F89A0F"/>
<path d="M117.585 59.6785C118.092 59.6785 118.502 59.5761 118.821 59.3704C119.14 59.1639 119.3 58.8516 119.3 58.4326C119.3 58.2227 119.257 58.0409 119.172 57.8848C119.086 57.7303 118.967 57.604 118.815 57.5068C118.665 57.4095 118.485 57.3378 118.279 57.2917C118.074 57.2448 117.851 57.2217 117.608 57.2217H116.35V59.6785H117.585ZM114.893 60.9363V52.6914H120.233V53.9492H116.35V55.9639H117.726C118.161 55.9639 118.565 56.0126 118.938 56.109C119.312 56.2063 119.633 56.3582 119.9 56.5638C120.168 56.7695 120.379 57.028 120.53 57.3378C120.681 57.6484 120.758 58.0136 120.758 58.4326C120.758 58.8601 120.677 59.2305 120.519 59.5445C120.359 59.8594 120.141 60.1196 119.866 60.3253C119.589 60.531 119.264 60.6846 118.891 60.7852C118.518 60.886 118.118 60.9363 117.691 60.9363H114.893Z" fill="#F89A0F"/>
<path d="M3.18884 43.8853H0L9.05213 22.4043H12L21.0522 43.8853H17.8018L10.4799 26.2579L3.18884 43.8853Z" fill="white"/>
<path d="M43.3502 33.1149C43.3502 31.9424 43.1571 30.8347 42.7726 29.7928C42.3881 28.7518 41.8413 27.8353 41.132 27.0477C40.4237 26.2583 39.5624 25.6311 38.5507 25.1661C37.5374 24.701 36.4035 24.468 35.1474 24.468C33.8922 24.468 32.7584 24.701 31.7458 25.1661C30.7324 25.6311 29.872 26.2583 29.1628 27.0477C28.4536 27.8353 27.9076 28.7518 27.5231 29.7928C27.1377 30.8347 26.9455 31.9424 26.9455 33.1149C26.9455 34.3087 27.1377 35.4317 27.5231 36.4821C27.9076 37.5351 28.4536 38.455 29.1628 39.2435C29.872 40.032 30.7324 40.6541 31.7458 41.1089C32.7584 41.5646 33.8922 41.7924 35.1474 41.7924C36.4035 41.7924 37.5374 41.5646 38.5507 41.1089C39.5624 40.6541 40.4237 40.032 41.132 39.2435C41.8413 38.455 42.3881 37.5351 42.7726 36.4821C43.1571 35.4317 43.3502 34.3087 43.3502 33.1149ZM46.4793 33.1149C46.4793 34.7737 46.1956 36.2961 45.629 37.6811C45.0617 39.0669 44.2714 40.2598 43.2596 41.2616C42.2463 42.2626 41.0466 43.0417 39.6598 43.5972C38.2721 44.1536 36.7683 44.4318 35.1474 44.4318C33.5274 44.4318 32.0235 44.1536 30.6367 43.5972C29.2491 43.0417 28.0494 42.2626 27.036 41.2616C26.0235 40.2598 25.234 39.0669 24.6674 37.6811C24.1001 36.2961 23.8164 34.7737 23.8164 33.1149C23.8164 31.4568 24.1001 29.9396 24.6674 28.564C25.234 27.1893 26.0235 26.0057 27.036 25.0142C28.0494 24.0235 29.2491 23.2495 30.6367 22.6931C32.0235 22.1376 33.5274 21.8594 35.1474 21.8594C36.7683 21.8594 38.2721 22.1376 39.6598 22.6931C41.0466 23.2495 42.2463 24.0235 43.2596 25.0142C44.2714 26.0057 45.0617 27.1893 45.629 28.564C46.1956 29.9396 46.4793 31.4568 46.4793 33.1149Z" fill="white"/>
<path d="M55.1975 31.9925H58.5222C60.0466 31.9925 61.2403 31.6981 62.1041 31.1093C62.9688 30.5196 63.4004 29.616 63.4004 28.3974C63.4004 27.1387 62.9629 26.2342 62.0887 25.6855C61.2146 25.1377 60.0355 24.8629 58.5521 24.8629H55.1975V31.9925ZM52.2812 22.4053H58.8127C59.9261 22.4053 60.9489 22.5214 61.8811 22.7543C62.8125 22.9864 63.6131 23.3457 64.2811 23.8312C64.9495 24.3168 65.4666 24.9346 65.8306 25.6812C66.1953 26.4305 66.3773 27.3196 66.3773 28.3513C66.3773 29.383 66.1844 30.2782 65.798 31.0368C65.4128 31.7954 64.8796 32.4226 64.199 32.9175C63.5191 33.4142 62.7065 33.7828 61.7624 34.0251C60.8173 34.2683 59.7979 34.3895 58.7017 34.3895H55.1975V43.8862H52.2812V22.4053Z" fill="white"/>
<path d="M74.7915 41.4277H78.577C79.2639 41.4277 79.9291 41.362 80.5751 41.2305C81.2211 41.0991 81.7914 40.8807 82.2862 40.5777C82.7809 40.274 83.1737 39.8849 83.4666 39.4104C83.7601 38.9351 83.9062 38.3438 83.9062 37.6355C83.9062 36.3614 83.4564 35.4202 82.5585 34.8135C81.6607 34.2068 80.4232 33.9038 78.85 33.9038H74.7915V41.4277ZM74.7915 31.5973H78.7878C79.2921 31.5973 79.7958 31.5367 80.3008 31.4155C80.8052 31.2943 81.2486 31.1015 81.6325 30.8395C82.0157 30.5758 82.3285 30.2277 82.5707 29.7925C82.8123 29.3573 82.9347 28.8265 82.9347 28.1993C82.9347 27.5926 82.8174 27.0814 82.5861 26.6676C82.3535 26.2529 82.0253 25.9081 81.6017 25.6359C81.1775 25.3628 80.6841 25.1649 80.1188 25.0446C79.5543 24.9225 78.9384 24.8619 78.2726 24.8619H74.7915V31.5973ZM71.875 22.4043H78.8333C79.642 22.4043 80.4675 22.4913 81.3082 22.6629C82.149 22.8344 82.9039 23.1279 83.5717 23.5427C84.2401 23.9566 84.7867 24.5189 85.2123 25.2263C85.6378 25.9345 85.8506 26.8246 85.8506 27.8964C85.8506 29.0492 85.5109 30.0399 84.8322 30.8694C84.1549 31.6988 83.2481 32.2552 82.1144 32.5377V32.5982C82.8021 32.6793 83.4352 32.8568 84.0126 33.129C84.5894 33.403 85.0905 33.7622 85.516 34.2068C85.9416 34.6522 86.2754 35.183 86.519 35.7991C86.7618 36.4169 86.8836 37.0996 86.8836 37.8479C86.8836 38.8182 86.6856 39.6783 86.2908 40.4259C85.8961 41.1751 85.3379 41.8065 84.6195 42.3228C83.9011 42.8382 83.0456 43.2273 82.0535 43.4902C81.0596 43.7539 79.9772 43.8853 78.8025 43.8853H71.875V22.4043Z" fill="white"/>
<path d="M95.9064 39.6682L107.512 22.4053H111.035V43.8854H108.12V26.5312H108.059L96.4543 43.8854H92.9297V22.4053H95.8462V39.6682H95.9064Z" fill="white"/>
<path d="M117.992 43.8853V22.4043H120.909V31.203C121.394 31.203 121.865 31.2184 122.321 31.2483C122.777 31.279 123.227 31.3148 123.673 31.3541L131.451 22.4043H134.671L126.681 32.0529C129.051 32.8619 130.903 34.2366 132.24 36.1788C133.577 38.1201 134.508 40.6895 135.035 43.8853H131.785C131.481 42.1052 131.05 40.5675 130.494 39.2739C129.937 37.9793 129.222 36.9221 128.351 36.1029C127.48 35.2837 126.433 34.688 125.207 34.3126C123.982 33.9388 122.549 33.7715 120.909 33.8117V43.8853H117.992Z" fill="white"/>
<path d="M143.602 41.4277H147.387C148.073 41.4277 148.74 41.362 149.386 41.2305C150.031 41.0991 150.601 40.8807 151.097 40.5777C151.591 40.274 151.984 39.8849 152.277 39.4104C152.569 38.9351 152.717 38.3438 152.717 37.6355C152.717 36.3614 152.267 35.4202 151.369 34.8135C150.47 34.2068 149.234 33.9038 147.66 33.9038H143.602V41.4277ZM143.602 31.5973H147.598C148.103 31.5973 148.606 31.5367 149.111 31.4155C149.615 31.2943 150.059 31.1015 150.443 30.8395C150.826 30.5758 151.138 30.2277 151.381 29.7925C151.623 29.3573 151.744 28.8265 151.744 28.1993C151.744 27.5926 151.628 27.0814 151.395 26.6676C151.164 26.2529 150.836 25.9081 150.412 25.6359C149.988 25.3628 149.495 25.1649 148.929 25.0446C148.364 24.9225 147.749 24.8619 147.083 24.8619H143.602V31.5973ZM140.686 22.4043H147.643C148.453 22.4043 149.278 22.4913 150.119 22.6629C150.959 22.8344 151.713 23.1279 152.382 23.5427C153.051 23.9566 153.597 24.5189 154.022 25.2263C154.448 25.9345 154.66 26.8246 154.66 27.8964C154.66 29.0492 154.321 30.0399 153.643 30.8694C152.964 31.6988 152.058 32.2552 150.924 32.5377V32.5982C151.612 32.6793 152.245 32.8568 152.823 33.129C153.4 33.403 153.901 33.7622 154.327 34.2068C154.752 34.6522 155.085 35.183 155.329 35.7991C155.572 36.4169 155.693 37.0996 155.693 37.8479C155.693 38.8182 155.496 39.6783 155.101 40.4259C154.706 41.1751 154.148 41.8065 153.43 42.3228C152.71 42.8382 151.855 43.2273 150.863 43.4902C149.87 43.7539 148.787 43.8853 147.612 43.8853H140.686V22.4043Z" fill="white"/>
<path d="M165.506 36.0577H173.951L169.759 25.6811L165.506 36.0577ZM162.376 43.8853H159.156L168.391 22.4043H171.248L180.422 43.8853H177.11L174.922 38.6057H164.533L162.376 43.8853Z" fill="white"/>
<path d="M126.805 63.6161H127.246V48.7988H126.805V63.6161Z" fill="#FFA500"/>
<path d="M180.31 22.667C181.223 22.667 181.955 23.4111 181.955 24.3361C181.955 25.262 181.223 26.0095 180.31 26.0095C179.412 26.0095 178.68 25.262 178.68 24.3361C178.68 23.4111 179.412 22.667 180.31 22.667ZM180.31 25.6409C181.014 25.6409 181.553 25.0666 181.553 24.3361C181.553 23.6108 181.014 23.0365 180.31 23.0365C179.62 23.0365 179.087 23.6108 179.087 24.3361C179.087 25.0666 179.62 25.6409 180.31 25.6409ZM179.74 23.4922H180.435C180.762 23.4922 180.981 23.7021 180.981 24.0212C180.981 24.2824 180.804 24.4232 180.686 24.4548V24.4633C180.686 24.4633 180.703 24.482 180.745 24.5597L181.06 25.1613H180.63L180.347 24.5452H180.127V25.1613H179.74V23.4922ZM180.343 24.2721C180.494 24.2721 180.584 24.1757 180.584 24.0212C180.584 23.8617 180.494 23.7746 180.347 23.7746H180.127V24.2721H180.343Z" fill="white"/>
<path d="M132.227 51.1006V50.3855C132.631 50.3855 132.918 50.318 133.087 50.1841C133.257 50.0501 133.399 49.8479 133.511 49.5791H134.298V55.9953H133.13V51.1006H132.227Z" fill="#FFA500"/>
<path d="M136.996 51.0556V54.5202C136.996 54.9417 137.198 55.1525 137.602 55.1525C138.006 55.1525 138.207 54.9417 138.207 54.5202V51.0556C138.207 50.6341 138.006 50.4233 137.602 50.4233C137.198 50.4233 136.996 50.6341 136.996 51.0556ZM135.828 54.4562V51.1196C135.828 50.6068 135.98 50.2092 136.284 49.9284C136.589 49.6476 137.028 49.5068 137.602 49.5068C138.176 49.5068 138.615 49.6476 138.92 49.9284C139.223 50.2092 139.376 50.6068 139.376 51.1196V54.4562C139.376 54.969 139.223 55.3667 138.92 55.6474C138.615 55.929 138.176 56.069 137.602 56.069C137.028 56.069 136.589 55.929 136.284 55.6474C135.98 55.3667 135.828 54.969 135.828 54.4562Z" fill="#FFA500"/>
<path d="M141.416 51.0556V54.5202C141.416 54.9417 141.618 55.1525 142.022 55.1525C142.426 55.1525 142.627 54.9417 142.627 54.5202V51.0556C142.627 50.6341 142.426 50.4233 142.022 50.4233C141.618 50.4233 141.416 50.6341 141.416 51.0556ZM140.248 54.4562V51.1196C140.248 50.6068 140.4 50.2092 140.704 49.9284C141.009 49.6476 141.448 49.5068 142.022 49.5068C142.595 49.5068 143.034 49.6476 143.339 49.9284C143.643 50.2092 143.796 50.6068 143.796 51.1196V54.4562C143.796 54.969 143.643 55.3667 143.339 55.6474C143.034 55.929 142.595 56.069 142.022 56.069C141.448 56.069 141.009 55.929 140.704 55.6474C140.4 55.3667 140.248 54.969 140.248 54.4562Z" fill="#FFA500"/>
<path d="M147.506 51.8789L148.059 54.8024L148.569 51.8789H149.613V55.9963H148.903V53.0437L148.385 55.9963H147.677L147.118 53.0847V55.9963H146.463V51.8789H147.506Z" fill="#FFA500"/>
<path d="M151.051 55.9953H150.301V51.8779H152.278V52.4667H151.051V55.9953Z" fill="#FFA500"/>
<path d="M132.379 59.2145V58.6172H134.413V59.2145H133.725V62.7985H133.068V59.2145H132.379Z" fill="#FFA500"/>
<path d="M135.704 59.3579L135.387 61.4724H136.021L135.704 59.3579ZM136.219 58.6172L136.889 62.7985H136.225L136.112 62.0399H135.304L135.19 62.7985H134.586L135.256 58.6172H136.219Z" fill="#FFA500"/>
<path d="M137.917 62.2012H138.3C138.524 62.2012 138.636 62.0697 138.636 61.8069V61.2753C138.636 61.0125 138.524 60.8811 138.3 60.8811H137.917V62.2012ZM138.3 62.7985H137.26V58.6172H139.103V59.2145H137.917V60.2837H138.3C138.627 60.2837 138.875 60.3725 139.042 60.5491C139.21 60.7266 139.293 60.9826 139.293 61.3171V61.7651C139.293 62.0996 139.21 62.3556 139.042 62.5331C138.875 62.7097 138.627 62.7985 138.3 62.7985Z" fill="#FFA500"/>
<path d="M139.611 62.8045V62.2071C139.772 62.2071 139.877 62.1824 139.931 62.1329C139.985 62.0826 140.014 61.9648 140.018 61.7771L140.126 58.6172H141.985V62.7985H141.315V59.2145H140.741L140.669 61.7412C140.658 62.1236 140.578 62.3966 140.431 62.5596C140.283 62.7234 140.044 62.8045 139.713 62.8045H139.611Z" fill="#FFA500"/>
<path d="M143.204 59.2145V60.3793H144.109V60.9766H143.204V62.2012H144.341V62.7985H142.547V58.6172H144.341V59.2145H143.204Z" fill="#FFA500"/>
<path d="M144.617 59.2145V58.6172H146.651V59.2145H145.963V62.7985H145.305V59.2145H144.617Z" fill="#FFA500"/>
<path d="M148.5 62.7995L147.859 61.1329L147.656 61.5152V62.7995H146.998V58.6182H147.656V60.44L148.517 58.6182H149.176L148.261 60.4818L149.176 62.7995H148.5Z" fill="#FFA500"/>
<path d="M150.759 60.8811L150.209 62.7985H149.533V58.6172H150.12V61.2633L150.359 60.3435L150.897 58.6172H151.62V62.7985H151.028V59.8537L150.759 60.8811Z" fill="#FFA500"/>
</g>
<defs>
<clipPath id="clip0_3867_7186">
<rect width="182" height="64" fill="white"/>
</clipPath>
</defs>
</svg>
