<svg width="293" height="103" viewBox="0 0 293 103" fill="none" xmlns="http://www.w3.org/2000/svg">
<g clip-path="url(#clip0_3867_3568)">
<path d="M181.891 29.9482C173.098 12.669 147.369 0 147.369 0C147.369 0 121.64 12.669 112.847 29.9482C124.882 21.3622 147.369 15.3896 147.369 15.3896C147.369 15.3896 169.855 21.3622 181.891 29.9482Z" fill="#FFA500"/>
<path d="M112.847 29.9476C124.729 21.4701 146.787 8.95899 147.344 8.81067V0.0117188C146.786 0.287758 121.543 12.8593 112.847 29.9476Z" fill="#E97300"/>
<path d="M50.7054 98.07H48.1716L53.5969 84.8008H55.9807L61.4625 98.07H58.8723L54.7978 87.9677L50.7054 98.07Z" fill="#F89A0F"/>
<path d="M75.1625 91.3985C75.1625 90.7366 75.0565 90.1117 74.8434 89.5239C74.6301 88.9375 74.3234 88.4252 73.9231 87.9872C73.5228 87.5505 73.0413 87.2029 72.4773 86.9475C71.9147 86.6907 71.2833 86.563 70.5818 86.563C69.8815 86.563 69.2488 86.6907 68.6862 86.9475C68.1222 87.2029 67.6407 87.5505 67.2404 87.9872C66.8401 88.4252 66.5334 88.9375 66.3201 89.5239C66.107 90.1117 66.0011 90.7366 66.0011 91.3985C66.0011 92.0728 66.1111 92.7114 66.3298 93.3102C66.5486 93.9103 66.8553 94.4294 67.2501 94.8661C67.6435 95.3029 68.1222 95.6504 68.6862 95.9058C69.2488 96.1626 69.8815 96.2903 70.5818 96.2903C71.2696 96.2903 71.8982 96.1626 72.469 95.9058C73.0385 95.6504 73.52 95.3029 73.9134 94.8661C74.3082 94.4294 74.6149 93.9103 74.8337 93.3102C75.0524 92.7114 75.1625 92.0728 75.1625 91.3985ZM77.6784 91.3985C77.6784 92.4353 77.4995 93.3816 77.1433 94.2372C76.7871 95.0942 76.2919 95.8343 75.6605 96.4592C75.0276 97.0841 74.2765 97.5675 73.4072 97.9108C72.5378 98.2555 71.5956 98.4272 70.5818 98.4272C69.5679 98.4272 68.6298 98.2555 67.766 97.9108C66.902 97.5675 66.151 97.0841 65.5128 96.4592C64.8744 95.8343 64.3779 95.0942 64.0202 94.2372C63.664 93.3816 63.4865 92.4353 63.4865 91.3985C63.4865 90.3616 63.664 89.4154 64.0202 88.5598C64.3779 87.7042 64.8744 86.9722 65.5128 86.3666C66.151 85.7609 66.902 85.2886 67.766 84.9521C68.6298 84.6142 69.5679 84.4453 70.5818 84.4453C71.5956 84.4453 72.5378 84.6142 73.4072 84.9521C74.2765 85.2886 75.0276 85.7609 75.6605 86.3666C76.2919 86.9722 76.7871 87.7042 77.1433 88.5598C77.4995 89.4154 77.6784 90.3616 77.6784 91.3985Z" fill="#F89A0F"/>
<path d="M84.109 90.6484H85.8931C86.2934 90.6484 86.6621 90.6113 87.0005 90.5358C87.3389 90.4602 87.6291 90.3407 87.8726 90.1774C88.1174 90.0153 88.3046 89.8079 88.4366 89.5566C88.5672 89.3053 88.6333 89.0045 88.6333 88.6515C88.6333 88.2876 88.5646 87.9841 88.4269 87.7383C88.2894 87.4938 88.1009 87.2961 87.863 87.1464C87.6263 86.9953 87.3416 86.8882 87.0101 86.825C86.6786 86.7632 86.3182 86.7316 85.9302 86.7316H84.109V90.6484ZM81.7622 84.8008H86.1174C86.8189 84.8008 87.4695 84.8722 88.0707 85.0164C88.6704 85.1606 89.1877 85.3885 89.6196 85.7003C90.0502 86.0134 90.3886 86.4103 90.6334 86.891C90.8769 87.3717 90.9993 87.9567 90.9993 88.6433C90.9993 89.33 90.8714 89.9205 90.6141 90.4149C90.3569 90.908 90.0075 91.3104 89.5632 91.6221C89.1189 91.9352 88.5961 92.1646 87.9951 92.3074C87.3952 92.4502 86.7501 92.523 86.0609 92.523H84.109V98.0699H81.7622V84.8008Z" fill="#F89A0F"/>
<path d="M94.8605 98.07H92.3267L97.752 84.8008H100.136L105.617 98.07H103.027L98.9529 87.9677L94.8605 98.07Z" fill="#F89A0F"/>
<path d="M112.648 93.1026H117.153L114.919 87.406L112.648 93.1026ZM110.733 98.07H108.16L113.812 84.8008H116.102L121.715 98.07H119.087L117.866 95.0513H111.916L110.733 98.07Z" fill="#F89A0F"/>
<path d="M128.85 98.07H126.484V86.825H122.411V84.8008H132.924V86.825H128.85V98.07Z" fill="#F89A0F"/>
<path d="M138.843 94.7712L145.375 84.8008H148.116V98.0699H145.77V88.0995H145.732L139.18 98.0699H136.46V84.8008H138.806V94.7712H138.843Z" fill="#F89A0F"/>
<path d="M152.905 84.8008H155.252V90.1609H161.389V84.8008H163.736V98.07H161.389V92.1852H155.252V98.07H152.905V84.8008Z" fill="#F89A0F"/>
<path d="M170.9 94.7712L177.433 84.8008H180.173V98.0699H177.826V88.0995H177.789L171.238 98.0699H168.516V84.8008H170.863V94.7712H170.9Z" fill="#F89A0F"/>
<path d="M189.299 96.0456C190.114 96.0456 190.775 95.8808 191.288 95.5499C191.802 95.2175 192.058 94.7148 192.058 94.0405C192.058 93.7027 191.989 93.4101 191.852 93.1588C191.715 92.9103 191.523 92.7071 191.278 92.5505C191.036 92.3939 190.747 92.2786 190.416 92.2044C190.085 92.1288 189.726 92.0917 189.336 92.0917H187.31V96.0456H189.299ZM184.964 98.0699V84.8008H193.561V86.825H187.31V90.0675H189.525C190.225 90.0675 190.875 90.1458 191.477 90.301C192.078 90.4575 192.595 90.702 193.025 91.0329C193.456 91.3639 193.796 91.7801 194.039 92.2786C194.283 92.7784 194.406 93.3663 194.406 94.0405C194.406 94.7285 194.276 95.3246 194.022 95.83C193.764 96.3368 193.413 96.7556 192.969 97.0866C192.525 97.4176 192.002 97.6648 191.401 97.8268C190.801 97.9889 190.156 98.0699 189.468 98.0699H184.964Z" fill="#F89A0F"/>
<path d="M5.13369 70.6276H0L14.5729 36.0566H19.3187L33.8917 70.6276H28.659L16.8715 42.2586L5.13369 70.6276Z" fill="white"/>
<path d="M69.7888 53.294C69.7888 51.407 69.478 49.6244 68.859 47.9476C68.2399 46.2722 67.3596 44.7972 66.2178 43.5296C65.0775 42.2593 63.6909 41.2499 62.0622 40.5014C60.4308 39.7529 58.6054 39.378 56.5832 39.378C54.5625 39.378 52.7371 39.7529 51.1071 40.5014C49.4756 41.2499 48.0904 42.2593 46.9486 43.5296C45.8069 44.7972 44.9279 46.2722 44.3089 47.9476C43.6885 49.6244 43.379 51.407 43.379 53.294C43.379 55.2152 43.6885 57.0226 44.3089 58.7131C44.9279 60.4079 45.8069 61.8883 46.9486 63.1573C48.0904 64.4262 49.4756 65.4274 51.1071 66.1594C52.7371 66.8928 54.5625 67.2594 56.5832 67.2594C58.6054 67.2594 60.4308 66.8928 62.0622 66.1594C63.6909 65.4274 65.0775 64.4262 66.2178 63.1573C67.3596 61.8883 68.2399 60.4079 68.859 58.7131C69.478 57.0226 69.7888 55.2152 69.7888 53.294ZM74.8263 53.294C74.8263 55.9637 74.3695 58.4138 73.4575 60.6427C72.5442 62.873 71.2718 64.7929 69.643 66.4052C68.0116 68.0161 66.0803 69.27 63.8477 70.164C61.6137 71.0594 59.1927 71.5072 56.5832 71.5072C53.9752 71.5072 51.5541 71.0594 49.3215 70.164C47.0876 69.27 45.1563 68.0161 43.5248 66.4052C41.8947 64.7929 40.6237 62.873 39.7116 60.6427C38.7983 58.4138 38.3416 55.9637 38.3416 53.294C38.3416 50.6256 38.7983 48.1838 39.7116 45.97C40.6237 43.7575 41.8947 41.8527 43.5248 40.257C45.1563 38.6625 47.0876 37.4168 49.3215 36.5215C51.5541 35.6274 53.9752 35.1797 56.5832 35.1797C59.1927 35.1797 61.6137 35.6274 63.8477 36.5215C66.0803 37.4168 68.0116 38.6625 69.643 40.257C71.2718 41.8527 72.5442 43.7575 73.4575 45.97C74.3695 48.1838 74.8263 50.6256 74.8263 53.294Z" fill="white"/>
<path d="M88.8633 51.488H94.2157C96.6697 51.488 98.5914 51.0142 99.9821 50.0666C101.374 49.1177 102.069 47.6633 102.069 45.7022C102.069 43.6765 101.365 42.2208 99.9574 41.3378C98.5502 40.4561 96.6518 40.0138 94.2638 40.0138H88.8633V51.488ZM84.1684 36.0586H94.6834C96.4757 36.0586 98.1223 36.2454 99.6231 36.6204C101.122 36.9938 102.411 37.5721 103.487 38.3534C104.563 39.1349 105.395 40.1292 105.981 41.3309C106.568 42.5367 106.861 43.9677 106.861 45.628C106.861 47.2884 106.551 48.729 105.929 49.9499C105.309 51.1708 104.45 52.1802 103.355 52.9768C102.26 53.776 100.952 54.3693 99.4319 54.7593C97.9105 55.1507 96.2694 55.3458 94.5046 55.3458H88.8633V70.6295H84.1684V36.0586Z" fill="white"/>
<path d="M120.408 66.6724H126.502C127.608 66.6724 128.679 66.5667 129.719 66.3551C130.758 66.1437 131.677 65.7921 132.473 65.3045C133.27 64.8157 133.902 64.1894 134.373 63.4258C134.846 62.6609 135.081 61.7092 135.081 60.5693C135.081 58.5189 134.357 57.0042 132.912 56.0277C131.466 55.0513 129.474 54.5637 126.941 54.5637H120.408V66.6724ZM120.408 50.8516H126.841C127.653 50.8516 128.464 50.7541 129.277 50.559C130.089 50.3641 130.803 50.0537 131.421 49.632C132.038 49.2077 132.541 48.6474 132.931 47.947C133.32 47.2466 133.517 46.3924 133.517 45.383C133.517 44.4065 133.328 43.5839 132.956 42.9179C132.581 42.2504 132.053 41.6956 131.371 41.2575C130.688 40.818 129.894 40.4994 128.984 40.3058C128.075 40.1094 127.084 40.0118 126.012 40.0118H120.408V50.8516ZM115.712 36.0566H126.914C128.216 36.0566 129.545 36.1967 130.899 36.4728C132.252 36.7488 133.468 37.2213 134.543 37.8887C135.619 38.5548 136.499 39.4598 137.184 40.5983C137.869 41.7381 138.211 43.1705 138.211 44.8955C138.211 46.7508 137.665 48.3453 136.572 49.6801C135.482 51.015 134.022 51.9104 132.197 52.365V52.4625C133.304 52.593 134.323 52.8786 135.253 53.3168C136.181 53.7576 136.988 54.3357 137.673 55.0513C138.358 55.7682 138.895 56.6223 139.287 57.6139C139.678 58.6082 139.874 59.7069 139.874 60.9113C139.874 62.4727 139.556 63.8571 138.92 65.0601C138.285 66.2659 137.386 67.2821 136.23 68.113C135.073 68.9425 133.696 69.5687 132.099 69.9917C130.498 70.4161 128.756 70.6276 126.865 70.6276H115.712V36.0566Z" fill="white"/>
<path d="M154.399 63.8412L173.083 36.0586H178.755V70.6282H174.061V42.6987H173.963L155.281 70.6282H149.606V36.0586H154.302V63.8412H154.399Z" fill="white"/>
<path d="M189.955 70.6276V36.0566H194.65V50.2171C195.432 50.2171 196.19 50.2418 196.924 50.2899C197.658 50.3393 198.383 50.397 199.1 50.4602L211.621 36.0566H216.807L203.943 51.5849C207.758 52.8868 210.74 55.0993 212.892 58.225C215.044 61.3493 216.543 65.4845 217.393 70.6276H212.16C211.67 67.7628 210.977 65.288 210.081 63.2061C209.184 61.1227 208.034 59.4212 206.632 58.1028C205.229 56.7844 203.543 55.8257 201.571 55.2215C199.598 54.62 197.291 54.3508 194.65 54.4154V70.6276H189.955Z" fill="white"/>
<path d="M231.183 66.6724H237.277C238.381 66.6724 239.454 66.5667 240.494 66.3551C241.533 66.1437 242.45 65.7921 243.249 65.3045C244.045 64.8157 244.678 64.1894 245.148 63.4258C245.62 62.6609 245.857 61.7092 245.857 60.5693C245.857 58.5189 245.133 57.0042 243.687 56.0277C242.24 55.0513 240.25 54.5637 237.716 54.5637H231.183V66.6724ZM231.183 50.8516H237.617C238.429 50.8516 239.239 50.7541 240.052 50.559C240.864 50.3641 241.579 50.0537 242.196 49.632C242.812 49.2077 243.316 48.6474 243.707 47.947C244.096 47.2466 244.291 46.3924 244.291 45.383C244.291 44.4065 244.104 43.5839 243.73 42.9179C243.357 42.2504 242.829 41.6956 242.147 41.2575C241.464 40.818 240.67 40.4994 239.759 40.3058C238.85 40.1094 237.859 40.0118 236.787 40.0118H231.183V50.8516ZM226.488 36.0566H237.688C238.992 36.0566 240.321 36.1967 241.674 36.4728C243.027 36.7488 244.241 37.2213 245.317 37.8887C246.394 38.5548 247.273 39.4598 247.958 40.5983C248.644 41.7381 248.986 43.1705 248.986 44.8955C248.986 46.7508 248.44 48.3453 247.348 49.6801C246.255 51.015 244.796 51.9104 242.97 52.365V52.4625C244.078 52.593 245.098 52.8786 246.027 53.3168C246.957 53.7576 247.763 54.3357 248.449 55.0513C249.134 55.7682 249.67 56.6223 250.063 57.6139C250.454 58.6082 250.649 59.7069 250.649 60.9113C250.649 62.4727 250.331 63.8571 249.696 65.0601C249.059 66.2659 248.162 67.2821 247.005 68.113C245.847 68.9425 244.47 69.5687 242.873 69.9917C241.274 70.4161 239.531 70.6276 237.638 70.6276H226.488V36.0566Z" fill="white"/>
<path d="M266.446 58.03H280.042L273.294 41.3302L266.446 58.03ZM261.409 70.6276H256.224L271.091 36.0566H275.69L290.46 70.6276H285.128L281.606 62.1308H264.88L261.409 70.6276Z" fill="white"/>
<path d="M204.142 102.382H204.852V78.5352H204.142V102.382Z" fill="#FFA500"/>
<path d="M290.279 36.4805C291.749 36.4805 292.928 37.6781 292.928 39.1667C292.928 40.6568 291.749 41.8599 290.279 41.8599C288.833 41.8599 287.655 40.6568 287.655 39.1667C287.655 37.6781 288.833 36.4805 290.279 36.4805ZM290.279 41.2666C291.412 41.2666 292.28 40.3424 292.28 39.1667C292.28 37.9994 291.412 37.0752 290.279 37.0752C289.169 37.0752 288.31 37.9994 288.31 39.1667C288.31 40.3424 289.169 41.2666 290.279 41.2666ZM289.361 37.8086H290.481C291.008 37.8086 291.36 38.1464 291.36 38.6599C291.36 39.0802 291.075 39.3068 290.884 39.3577V39.3714C290.884 39.3714 290.913 39.4016 290.98 39.5266L291.486 40.4948H290.795L290.339 39.5032H289.985V40.4948H289.361V37.8086ZM290.332 39.0637C290.576 39.0637 290.721 38.9086 290.721 38.6599C290.721 38.4032 290.575 38.2631 290.339 38.2631H289.985V39.0637H290.332Z" fill="white"/>
<path d="M212.871 82.2416V81.0908C213.522 81.0908 213.984 80.9822 214.256 80.7666C214.53 80.551 214.758 80.2256 214.939 79.793H216.206V90.119H214.324V82.2416H212.871Z" fill="#FFA500"/>
<path d="M220.55 82.1664V87.7422C220.55 88.4206 220.874 88.7599 221.525 88.7599C222.176 88.7599 222.498 88.4206 222.498 87.7422V82.1664C222.498 81.4881 222.176 81.1488 221.525 81.1488C220.874 81.1488 220.55 81.4881 220.55 82.1664ZM218.669 87.6392V82.2694C218.669 81.4441 218.913 80.8041 219.403 80.3523C219.893 79.9004 220.6 79.6738 221.525 79.6738C222.448 79.6738 223.155 79.9004 223.646 80.3523C224.134 80.8041 224.38 81.4441 224.38 82.2694V87.6392C224.38 88.4646 224.134 89.1045 223.646 89.5564C223.155 90.0096 222.448 90.2348 221.525 90.2348C220.6 90.2348 219.893 90.0096 219.403 89.5564C218.913 89.1045 218.669 88.4646 218.669 87.6392Z" fill="#FFA500"/>
<path d="M227.664 82.1664V87.7422C227.664 88.4206 227.988 88.7599 228.639 88.7599C229.29 88.7599 229.613 88.4206 229.613 87.7422V82.1664C229.613 81.4881 229.29 81.1488 228.639 81.1488C227.988 81.1488 227.664 81.4881 227.664 82.1664ZM225.783 87.6392V82.2694C225.783 81.4441 226.028 80.8041 226.518 80.3523C227.008 79.9004 227.715 79.6738 228.639 79.6738C229.562 79.6738 230.269 79.9004 230.76 80.3523C231.248 80.8041 231.495 81.4441 231.495 82.2694V87.6392C231.495 88.4646 231.248 89.1045 230.76 89.5564C230.269 90.0096 229.562 90.2348 228.639 90.2348C227.715 90.2348 227.008 90.0096 226.518 89.5564C226.028 89.1045 225.783 88.4646 225.783 87.6392Z" fill="#FFA500"/>
<path d="M237.468 83.4922L238.358 88.1972L239.18 83.4922H240.859V90.1186H239.717V85.3668L238.883 90.1186H237.743L236.843 85.4327V90.1186H235.789V83.4922H237.468Z" fill="#FFA500"/>
<path d="M243.174 90.1186H241.966V83.4922H245.149V84.4398H243.174V90.1186Z" fill="#FFA500"/>
<path d="M213.116 95.2992V94.3379H216.391V95.2992H215.283V101.067H214.225V95.2992H213.116Z" fill="#FFA500"/>
<path d="M218.47 95.5299L217.959 98.933H218.98L218.47 95.5299ZM219.299 94.3379L220.377 101.067H219.307L219.126 99.8463H217.825L217.641 101.067H216.669L217.749 94.3379H219.299Z" fill="#FFA500"/>
<path d="M222.032 100.106H222.649C223.009 100.106 223.19 99.8943 223.19 99.4714V98.6158C223.19 98.1928 223.009 97.9813 222.649 97.9813H222.032V100.106ZM222.649 101.067H220.974V94.3379H223.941V95.2992H222.032V97.02H222.649C223.175 97.02 223.573 97.1628 223.843 97.447C224.114 97.7328 224.247 98.1448 224.247 98.6831V99.404C224.247 99.9424 224.114 100.354 223.843 100.64C223.573 100.924 223.175 101.067 222.649 101.067Z" fill="#FFA500"/>
<path d="M224.759 101.077V100.115C225.017 100.115 225.187 100.076 225.274 99.996C225.36 99.915 225.407 99.7255 225.414 99.4233L225.587 94.3379H228.58V101.067H227.502V95.2992H226.578L226.462 99.3656C226.445 99.981 226.315 100.42 226.078 100.683C225.84 100.946 225.455 101.077 224.922 101.077H224.759Z" fill="#FFA500"/>
<path d="M230.545 95.2992V97.1738H232V98.1351H230.545V100.106H232.375V101.067H229.486V94.3379H232.375V95.2992H230.545Z" fill="#FFA500"/>
<path d="M232.818 95.2992V94.3379H236.092V95.2992H234.985V101.067H233.926V95.2992H232.818Z" fill="#FFA500"/>
<path d="M239.067 101.067L238.037 98.3851L237.71 99.0004V101.067H236.65V94.3379H237.71V97.27L239.096 94.3379H240.156L238.683 97.3372L240.156 101.067H239.067Z" fill="#FFA500"/>
<path d="M242.706 97.9813L241.821 101.067H240.733V94.3379H241.677V98.5965L242.061 97.1161L242.928 94.3379H244.093V101.067H243.139V96.3279L242.706 97.9813Z" fill="#FFA500"/>
</g>
<defs>
<clipPath id="clip0_3867_3568">
<rect width="293" height="103" fill="white"/>
</clipPath>
</defs>
</svg>
