<svg width="300" height="300" viewBox="0 0 300 300" fill="none" xmlns="http://www.w3.org/2000/svg">
<rect x="0.5" y="0.5" width="299" height="299" rx="149.5" fill="white" fill-opacity="0.07" stroke="url(#paint0_linear_3867_2033)"/>
<g clip-path="url(#clip0_3867_2033)">
<path d="M135.491 104.375C135.466 86.5059 149.558 72.2009 167.397 72.0001C184.812 71.7993 199.604 86.4055 199.629 103.797C199.629 122.118 185.462 136.649 167.522 136.649C149.857 136.649 135.516 122.218 135.491 104.375ZM144.211 91.5252C143.311 92.4036 141.712 93.2819 141.212 94.6121C140.463 96.5696 141.812 98.0252 143.661 98.753C158.802 104.676 173.969 110.573 189.11 116.496C191.284 117.35 192.833 116.572 193.682 114.514C194.532 112.481 193.582 111.05 191.758 110.122C191.134 109.795 190.484 109.57 189.834 109.319C176.342 104.048 162.875 98.753 149.383 93.4827C147.909 92.9055 146.409 92.3534 144.186 91.5252H144.211Z" fill="#6546A6"/>
<path d="M97.013 135.67C85.4696 147.24 74.0512 158.684 62.5078 170.278C62.0831 169.927 61.4834 169.45 60.9337 168.898C54.1626 162.097 47.3666 155.346 40.6454 148.495C33.2997 141.041 31.1259 132.107 34.6489 122.319C38.2218 112.356 45.8924 106.985 56.3614 106.232C63.3324 105.73 69.5288 108.19 74.5259 113.134C82.0716 120.562 89.4673 128.116 97.013 135.695V135.67Z" fill="#6546A6"/>
<path d="M67.0552 175.046C78.6735 163.377 90.0669 151.933 101.66 140.263C107.432 146.06 113.329 152.008 119.225 157.956C121.249 160.014 123.398 161.996 125.222 164.23C133.642 174.62 132.592 188.975 122.848 198.01C113.478 206.693 98.9368 206.618 89.5672 197.583C81.8716 190.18 74.4509 182.475 67.0802 175.046H67.0552Z" fill="#6546A6"/>
<path d="M187.861 178.986C203.601 188.95 218.993 198.687 234.684 208.625C224.864 222.303 214.42 235.002 197.705 239.996C185.362 243.71 176.067 236.809 175.143 223.884C173.969 207.521 179.89 193.191 187.886 178.986H187.861Z" fill="#6546A6"/>
<path d="M190.359 175.021C198.954 162.674 208.424 151.907 221.941 145.483C226.713 143.224 231.711 141.919 236.958 142.923C244.528 144.404 249.425 151.431 249.925 160.541C250.775 176.678 244.928 190.782 237.132 204.61C221.541 194.747 206.125 184.985 190.359 174.996V175.021Z" fill="#6546A6"/>
</g>
<defs>
<linearGradient id="paint0_linear_3867_2033" x1="234.375" y1="20.625" x2="73.125" y2="277.5" gradientUnits="userSpaceOnUse">
<stop stop-color="white" stop-opacity="0.47"/>
<stop offset="1" stop-color="#6546A6"/>
</linearGradient>
<clipPath id="clip0_3867_2033">
<rect width="217" height="169" fill="white" transform="translate(33 72)"/>
</clipPath>
</defs>
</svg>
