<svg width="300" height="300" viewBox="0 0 300 300" fill="none" xmlns="http://www.w3.org/2000/svg">
<rect x="0.5" y="0.5" width="299" height="299" rx="149.5" fill="white" fill-opacity="0.07" stroke="url(#paint0_linear_3867_2045)"/>
<path d="M58.3054 132V122.028L81.6044 100.455C83.5859 98.5376 85.2479 96.8118 86.5902 95.2777C87.9538 93.7436 88.9872 92.2415 89.6903 90.7713C90.3935 89.2798 90.745 87.6712 90.745 85.9453C90.745 84.0277 90.3082 82.3764 89.4347 80.9915C88.5611 79.5852 87.3679 78.5092 85.8551 77.7635C84.3423 76.9964 82.6271 76.6129 80.7095 76.6129C78.7067 76.6129 76.9595 77.0178 75.468 77.8274C73.9766 78.6371 72.826 79.7983 72.0163 81.3111C71.2067 82.8239 70.8018 84.6243 70.8018 86.7124H57.6662C57.6662 82.4297 58.6357 78.7116 60.5746 75.5582C62.5135 72.4048 65.2301 69.9652 68.7244 68.2393C72.2188 66.5135 76.2457 65.6506 80.8054 65.6506C85.4929 65.6506 89.5732 66.4815 93.0462 68.1435C96.5405 69.7841 99.2571 72.0639 101.196 74.983C103.135 77.902 104.104 81.2472 104.104 85.0185C104.104 87.4901 103.614 89.9297 102.634 92.3374C101.675 94.745 99.9602 97.419 97.4886 100.359C95.017 103.278 91.5334 106.783 87.0376 110.874L77.4815 120.239V120.686H104.967V132H58.3054ZM138.677 65.6506C142.044 65.6506 145.282 66.2152 148.393 67.3445C151.525 68.4737 154.317 70.2741 156.767 72.7457C159.238 75.2173 161.188 78.4986 162.616 82.5895C164.064 86.6591 164.8 91.6555 164.821 97.5788C164.821 103.14 164.192 108.104 162.935 112.472C161.699 116.819 159.92 120.516 157.598 123.562C155.275 126.609 152.474 128.932 149.192 130.53C145.911 132.107 142.246 132.895 138.198 132.895C133.83 132.895 129.974 132.053 126.628 130.37C123.283 128.665 120.588 126.354 118.542 123.435C116.518 120.494 115.293 117.192 114.867 113.527H128.514C129.047 115.913 130.165 117.767 131.87 119.088C133.574 120.388 135.684 121.038 138.198 121.038C142.459 121.038 145.698 119.184 147.914 115.477C150.13 111.748 151.248 106.645 151.27 100.168H150.822C149.842 102.085 148.521 103.737 146.859 105.121C145.197 106.485 143.29 107.54 141.138 108.286C139.008 109.031 136.738 109.404 134.331 109.404C130.474 109.404 127.033 108.499 124.008 106.688C120.982 104.876 118.596 102.384 116.849 99.2088C115.101 96.0341 114.228 92.4119 114.228 88.3423C114.206 83.9531 115.219 80.0433 117.264 76.6129C119.309 73.1825 122.165 70.4979 125.829 68.5589C129.515 66.5987 133.798 65.6293 138.677 65.6506ZM138.773 76.517C136.621 76.517 134.704 77.0284 133.02 78.0511C131.358 79.0739 130.037 80.4482 129.057 82.174C128.099 83.8999 127.63 85.8281 127.651 87.9588C127.651 90.1108 128.12 92.0497 129.057 93.7756C130.016 95.4801 131.316 96.8437 132.957 97.8665C134.618 98.8679 136.515 99.3686 138.645 99.3686C140.243 99.3686 141.724 99.0703 143.088 98.4737C144.452 97.8771 145.634 97.0568 146.635 96.0128C147.658 94.9474 148.457 93.7223 149.032 92.3374C149.608 90.9524 149.895 89.4822 149.895 87.9268C149.874 85.8601 149.384 83.9638 148.425 82.2379C147.466 80.5121 146.145 79.1271 144.462 78.0831C142.779 77.0391 140.883 76.517 138.773 76.517ZM210.236 119.727V116.276C210.236 113.655 210.79 111.247 211.898 109.053C213.028 106.837 214.657 105.068 216.788 103.747C218.94 102.405 221.561 101.734 224.65 101.734C227.782 101.734 230.414 102.394 232.545 103.715C234.697 105.036 236.316 106.805 237.403 109.021C238.51 111.215 239.064 113.634 239.064 116.276V119.727C239.064 122.348 238.51 124.766 237.403 126.982C236.295 129.177 234.665 130.935 232.513 132.256C230.361 133.598 227.74 134.269 224.65 134.269C221.518 134.269 218.887 133.598 216.756 132.256C214.626 130.935 213.006 129.177 211.898 126.982C210.79 124.766 210.236 122.348 210.236 119.727ZM219.537 116.276V119.727C219.537 121.24 219.899 122.668 220.623 124.01C221.369 125.352 222.711 126.023 224.65 126.023C226.589 126.023 227.91 125.363 228.613 124.042C229.338 122.721 229.7 121.283 229.7 119.727V116.276C229.7 114.72 229.359 113.271 228.677 111.929C227.996 110.587 226.653 109.915 224.65 109.915C222.733 109.915 221.401 110.587 220.655 111.929C219.91 113.271 219.537 114.72 219.537 116.276ZM176.646 82.2699V78.8182C176.646 76.1761 177.211 73.7578 178.34 71.5632C179.469 69.3473 181.099 67.5788 183.23 66.2578C185.382 64.9368 187.981 64.2763 191.028 64.2763C194.182 64.2763 196.824 64.9368 198.954 66.2578C201.085 67.5788 202.704 69.3473 203.812 71.5632C204.92 73.7578 205.474 76.1761 205.474 78.8182V82.2699C205.474 84.9119 204.91 87.3303 203.78 89.5249C202.672 91.7195 201.042 93.4773 198.89 94.7983C196.76 96.098 194.139 96.7479 191.028 96.7479C187.917 96.7479 185.286 96.0874 183.134 94.7663C181.003 93.424 179.384 91.6662 178.276 89.4929C177.189 87.2983 176.646 84.8906 176.646 82.2699ZM186.01 78.8182V82.2699C186.01 83.8253 186.373 85.2635 187.097 86.5845C187.843 87.9055 189.153 88.5661 191.028 88.5661C192.988 88.5661 194.32 87.9055 195.023 86.5845C195.748 85.2635 196.11 83.8253 196.11 82.2699V78.8182C196.11 77.2628 195.769 75.8139 195.087 74.4716C194.405 73.1293 193.052 72.4581 191.028 72.4581C189.132 72.4581 187.822 73.1399 187.097 74.5036C186.373 75.8672 186.01 77.3054 186.01 78.8182ZM180.865 132L225.865 66.5455H234.238L189.238 132H180.865Z" fill="#6546A6"/>
<path d="M101.773 239.636C98.5606 239.636 95.697 239.045 93.1818 237.864C90.6818 236.682 88.697 235.053 87.2273 232.977C85.7576 230.902 84.9924 228.523 84.9318 225.841H94.4773C94.5833 227.644 95.3409 229.106 96.75 230.227C98.1591 231.348 99.8333 231.909 101.773 231.909C103.318 231.909 104.682 231.568 105.864 230.886C107.061 230.189 107.992 229.227 108.659 228C109.341 226.758 109.682 225.333 109.682 223.727C109.682 222.091 109.333 220.652 108.636 219.409C107.955 218.167 107.008 217.197 105.795 216.5C104.583 215.803 103.197 215.447 101.636 215.432C100.273 215.432 98.947 215.712 97.6591 216.273C96.3864 216.833 95.3939 217.598 94.6818 218.568L85.9318 217L88.1364 192.455H116.591V200.5H96.25L95.0455 212.159H95.3182C96.1364 211.008 97.3712 210.053 99.0227 209.295C100.674 208.538 102.523 208.159 104.568 208.159C107.371 208.159 109.871 208.818 112.068 210.136C114.265 211.455 116 213.265 117.273 215.568C118.545 217.856 119.174 220.492 119.159 223.477C119.174 226.614 118.447 229.402 116.977 231.841C115.523 234.265 113.485 236.174 110.864 237.568C108.258 238.947 105.227 239.636 101.773 239.636ZM144.273 240.023C140.364 240.008 137 239.045 134.182 237.136C131.379 235.227 129.22 232.462 127.705 228.841C126.205 225.22 125.462 220.864 125.477 215.773C125.477 210.697 126.227 206.371 127.727 202.795C129.242 199.22 131.402 196.5 134.205 194.636C137.023 192.758 140.379 191.818 144.273 191.818C148.167 191.818 151.515 192.758 154.318 194.636C157.136 196.515 159.303 199.242 160.818 202.818C162.333 206.379 163.083 210.697 163.068 215.773C163.068 220.879 162.311 225.242 160.795 228.864C159.295 232.485 157.144 235.25 154.341 237.159C151.538 239.068 148.182 240.023 144.273 240.023ZM144.273 231.864C146.939 231.864 149.068 230.523 150.659 227.841C152.25 225.159 153.038 221.136 153.023 215.773C153.023 212.242 152.659 209.303 151.932 206.955C151.22 204.606 150.205 202.841 148.886 201.659C147.583 200.477 146.045 199.886 144.273 199.886C141.621 199.886 139.5 201.212 137.909 203.864C136.318 206.515 135.515 210.485 135.5 215.773C135.5 219.348 135.856 222.333 136.568 224.727C137.295 227.106 138.318 228.894 139.636 230.091C140.955 231.273 142.5 231.864 144.273 231.864ZM195.562 230.273V227.818C195.562 225.955 195.956 224.242 196.744 222.682C197.547 221.106 198.706 219.848 200.222 218.909C201.752 217.955 203.616 217.477 205.812 217.477C208.04 217.477 209.911 217.947 211.426 218.886C212.956 219.826 214.108 221.083 214.881 222.659C215.669 224.22 216.062 225.939 216.062 227.818V230.273C216.062 232.136 215.669 233.856 214.881 235.432C214.093 236.992 212.934 238.242 211.403 239.182C209.873 240.136 208.009 240.614 205.812 240.614C203.585 240.614 201.714 240.136 200.199 239.182C198.684 238.242 197.532 236.992 196.744 235.432C195.956 233.856 195.562 232.136 195.562 230.273ZM202.176 227.818V230.273C202.176 231.348 202.434 232.364 202.949 233.318C203.479 234.273 204.434 234.75 205.812 234.75C207.191 234.75 208.131 234.28 208.631 233.341C209.146 232.402 209.403 231.379 209.403 230.273V227.818C209.403 226.712 209.161 225.682 208.676 224.727C208.191 223.773 207.237 223.295 205.812 223.295C204.449 223.295 203.502 223.773 202.972 224.727C202.441 225.682 202.176 226.712 202.176 227.818ZM171.676 203.636V201.182C171.676 199.303 172.078 197.583 172.881 196.023C173.684 194.447 174.843 193.189 176.358 192.25C177.888 191.311 179.737 190.841 181.903 190.841C184.146 190.841 186.025 191.311 187.54 192.25C189.055 193.189 190.206 194.447 190.994 196.023C191.782 197.583 192.176 199.303 192.176 201.182V203.636C192.176 205.515 191.775 207.235 190.972 208.795C190.184 210.356 189.025 211.606 187.494 212.545C185.979 213.47 184.116 213.932 181.903 213.932C179.691 213.932 177.82 213.462 176.29 212.523C174.775 211.568 173.623 210.318 172.835 208.773C172.063 207.212 171.676 205.5 171.676 203.636ZM178.335 201.182V203.636C178.335 204.742 178.593 205.765 179.108 206.705C179.638 207.644 180.57 208.114 181.903 208.114C183.297 208.114 184.244 207.644 184.744 206.705C185.259 205.765 185.517 204.742 185.517 203.636V201.182C185.517 200.076 185.275 199.045 184.79 198.091C184.305 197.136 183.343 196.659 181.903 196.659C180.555 196.659 179.623 197.144 179.108 198.114C178.593 199.083 178.335 200.106 178.335 201.182ZM174.676 239L206.676 192.455H212.631L180.631 239H174.676Z" fill="#A1A0B3"/>
<path d="M130.244 149.818L138.017 171.858H138.324L146.097 149.818H149.42L139.807 176H136.534L126.92 149.818H130.244ZM167.817 156.364C167.663 155.068 167.041 154.062 165.95 153.347C164.859 152.631 163.521 152.273 161.936 152.273C160.777 152.273 159.763 152.46 158.893 152.835C158.033 153.21 157.359 153.726 156.874 154.382C156.396 155.038 156.158 155.784 156.158 156.619C156.158 157.318 156.324 157.919 156.656 158.422C156.997 158.916 157.432 159.33 157.96 159.662C158.489 159.986 159.043 160.254 159.622 160.467C160.202 160.672 160.734 160.838 161.22 160.966L163.879 161.682C164.561 161.861 165.32 162.108 166.155 162.423C166.999 162.739 167.804 163.169 168.571 163.714C169.347 164.251 169.986 164.942 170.489 165.786C170.991 166.629 171.243 167.665 171.243 168.892C171.243 170.307 170.872 171.585 170.131 172.727C169.398 173.869 168.324 174.777 166.909 175.45C165.503 176.124 163.794 176.46 161.783 176.46C159.908 176.46 158.284 176.158 156.912 175.553C155.548 174.947 154.474 174.104 153.69 173.021C152.915 171.939 152.476 170.682 152.374 169.25H155.646C155.732 170.239 156.064 171.057 156.643 171.705C157.232 172.344 157.973 172.821 158.868 173.136C159.771 173.443 160.743 173.597 161.783 173.597C162.993 173.597 164.08 173.401 165.043 173.009C166.006 172.608 166.768 172.054 167.331 171.347C167.893 170.631 168.175 169.795 168.175 168.841C168.175 167.972 167.932 167.264 167.446 166.719C166.96 166.173 166.321 165.73 165.528 165.389C164.736 165.048 163.879 164.75 162.959 164.494L159.737 163.574C157.692 162.986 156.072 162.146 154.879 161.055C153.686 159.964 153.089 158.537 153.089 156.773C153.089 155.307 153.486 154.028 154.278 152.938C155.08 151.838 156.153 150.986 157.5 150.381C158.855 149.767 160.368 149.46 162.038 149.46C163.726 149.46 165.226 149.763 166.538 150.368C167.851 150.964 168.891 151.783 169.658 152.822C170.433 153.862 170.842 155.043 170.885 156.364H167.817Z" fill="black"/>
<defs>
<linearGradient id="paint0_linear_3867_2045" x1="234.375" y1="20.625" x2="73.125" y2="277.5" gradientUnits="userSpaceOnUse">
<stop stop-color="white" stop-opacity="0.47"/>
<stop offset="1" stop-color="#6546A6"/>
</linearGradient>
</defs>
</svg>
