<svg width="300" height="300" viewBox="0 0 300 300" fill="none" xmlns="http://www.w3.org/2000/svg">
<rect x="0.5" y="0.5" width="299" height="299" rx="149.5" fill="white" fill-opacity="0.07" stroke="url(#paint0_linear_3867_2657)"/>
<g clip-path="url(#clip0_3867_2657)">
<path d="M189.856 223.25H108.845C108.845 220.682 108.845 218.159 108.845 215.637C108.845 204.47 108.899 193.302 108.833 182.135C108.791 175.171 109.29 168.358 112.711 162.068C118.437 151.542 127.118 145.09 139.035 143.892C147.194 143.072 155.494 142.709 163.615 144.458C176.727 147.28 187.294 158.63 189.279 171.966C189.81 175.537 189.881 179.196 189.897 182.817C189.968 195.804 189.926 208.79 189.922 221.776C189.922 222.234 189.881 222.688 189.852 223.246L189.856 223.25Z" fill="#6546A6"/>
<path d="M192.791 206.705C192.791 200.041 192.837 193.561 192.779 187.076C192.729 181.577 192.957 176.037 192.347 170.597C191.238 160.787 186.156 153.136 178.176 147.455C176.25 146.086 174.107 144.966 171.94 144.009C169.789 143.055 167.485 142.448 165.164 141.661C167.318 138.339 170.192 135.538 173.509 133.212C179.393 129.087 185.94 126.976 193.152 126.997C197.504 127.01 201.859 126.997 206.211 126.997C219.626 126.989 232.501 135.784 237.455 148.283C239.194 152.674 240.004 157.224 240.004 161.931C240.004 176.216 240.004 190.501 240.004 204.786C240.004 205.398 240.004 206.006 240.004 206.705H192.8H192.791Z" fill="#6546A6"/>
<path d="M59 206.667C59 199.675 59 192.823 59 185.972C59 177.714 58.9917 169.46 59.0042 161.202C59.0291 144.424 71.2361 129.823 87.7944 127.496C93.8979 126.639 100.192 126.98 106.4 127.055C109.261 127.092 112.192 127.513 114.953 128.266C122.809 130.41 129.111 134.888 133.944 141.773C132.686 142.097 131.565 142.339 130.473 142.672C116.211 147.009 106.404 159.991 106.242 174.955C106.134 184.819 106.213 194.684 106.209 204.553C106.209 205.215 106.209 205.876 106.209 206.667H59Z" fill="#6546A6"/>
<path d="M97.4728 123.592C84.1945 123.53 73.8518 113.024 73.9099 99.6591C73.9639 86.7102 84.6554 76.0214 97.7385 76.2628C110.892 76.5042 121.09 86.5728 121.09 99.9879C121.09 113.907 109.925 123.617 97.4728 123.592Z" fill="#6546A6"/>
<path d="M201.523 123.588C188.39 123.588 177.682 112.966 177.856 99.8503C178.035 86.5559 188.303 76.4249 201.39 76.2501C214.506 76.0794 225.123 86.8306 225.09 99.9585C225.061 113.095 214.598 123.584 201.523 123.584V123.588Z" fill="#6546A6"/>
<path d="M149.336 139.234C136.045 139.142 125.674 128.57 125.806 115.255C125.939 102.202 136.61 91.6795 149.672 91.9251C162.681 92.1707 173.04 102.268 172.99 115.696C172.936 129.494 161.933 139.305 149.336 139.23V139.234Z" fill="#6546A6"/>
</g>
<defs>
<linearGradient id="paint0_linear_3867_2657" x1="234.375" y1="20.625" x2="73.125" y2="277.5" gradientUnits="userSpaceOnUse">
<stop stop-color="white" stop-opacity="0.47"/>
<stop offset="1" stop-color="#6546A6"/>
</linearGradient>
<clipPath id="clip0_3867_2657">
<rect width="181" height="147" fill="white" transform="translate(59 76.25)"/>
</clipPath>
</defs>
</svg>
