<svg width="300" height="300" viewBox="0 0 300 300" fill="none" xmlns="http://www.w3.org/2000/svg">
<rect x="0.5" y="0.5" width="299" height="299" rx="149.5" fill="white" fill-opacity="0.07" stroke="url(#paint0_linear_3867_2629)"/>
<g clip-path="url(#clip0_3867_2629)">
<path d="M220.366 157.558C216.626 153.401 212.909 149.227 209.143 145.095C204.521 140.02 199.76 140.01 195.141 145.101C190.24 150.501 185.384 155.942 180.543 161.392C174.983 167.651 176.701 173.699 184.702 176.162C185.016 176.259 185.304 176.442 185.787 176.669C185.787 188.401 185.851 200.188 185.675 211.971C185.659 213.017 184.29 214.416 183.199 215.019C163.169 226.103 142.212 228.102 120.714 220.268C89.238 208.795 69.8579 179.406 71.0511 145.794C72.3372 109.578 101.462 78.244 137.362 74.4585C178.362 70.1339 213.734 96.8704 220.583 137.675C221.665 144.11 221.389 150.773 221.741 157.334C221.284 157.411 220.826 157.485 220.369 157.562L220.366 157.558ZM143.6 116.597C143.6 122.882 143.549 129.167 143.629 135.451C143.655 137.578 143.527 139.089 141.079 140.145C139.317 140.905 137.784 142.849 136.812 144.63C135.897 146.304 134.937 146.718 133.206 146.705C124.591 146.632 115.973 146.689 107.354 146.66C105.281 146.654 103.288 146.882 103.384 149.516C103.471 151.915 105.39 152.082 107.316 152.076C115.822 152.047 124.326 152.118 132.832 152.024C134.8 152.002 135.974 152.342 136.93 154.376C138.894 158.55 143.44 160.699 147.781 160.045C152.455 159.339 156.166 155.65 156.921 150.956C157.619 146.628 155.475 142.025 151.364 140.016C149.432 139.073 148.914 138.008 148.93 135.961C149.026 123.28 148.994 110.598 148.965 97.9163C148.962 95.7636 149.599 92.8121 146.211 92.8988C142.864 92.9822 143.639 95.9561 143.619 98.0767C143.565 104.249 143.6 110.422 143.6 116.594V116.597Z" fill="#6546A6"/>
<path d="M151.636 149.23C151.713 152.14 149.327 154.655 146.419 154.732C143.507 154.809 141.012 152.425 140.939 149.5C140.862 146.571 143.226 144.078 146.15 144.001C149.061 143.924 151.56 146.304 151.636 149.23Z" fill="#6546A6"/>
<path d="M213.242 218.901C213.242 224.608 212.992 224.862 207.474 224.862C204.226 224.862 200.979 224.862 197.736 224.862C193.359 224.862 191.17 222.722 191.168 218.442C191.168 203.961 191.168 189.479 191.168 174.998V170.779C189.04 170.779 187.358 170.933 185.713 170.744C182.841 170.413 181.852 168.164 183.749 165.98C189.037 159.884 194.466 153.908 199.869 147.912C201.379 146.237 203.001 146.324 204.482 147.966C209.882 153.965 215.324 159.929 220.606 166.031C222.503 168.222 221.476 170.426 218.565 170.747C216.94 170.927 215.276 170.779 213.248 170.779C213.248 172.489 213.248 173.801 213.248 175.116C213.248 176.509 213.248 177.898 213.248 179.29L213.261 179.771C210.89 177.394 207.08 177.43 204.71 179.81C202.339 182.187 202.339 186.047 204.71 188.424L212.819 196.556L212.096 197.246L204.71 205.007C202.339 207.384 202.339 211.243 204.71 213.62C207.08 215.998 210.929 215.998 213.299 213.62L213.248 218.895L213.242 218.901Z" fill="#6546A6"/>
<path d="M231.732 212.594L206.341 188.331C203.945 186.04 203.622 182.662 205.618 180.782C207.614 178.902 211.178 179.236 213.574 181.527L238.965 205.79C241.362 208.08 241.685 211.458 239.688 213.338C237.692 215.218 234.128 214.885 231.732 212.594Z" fill="#FFA500"/>
<path d="M206.299 204.629L231.72 180.876C234.119 178.633 237.484 178.527 239.234 180.638C240.987 182.749 240.459 186.278 238.06 188.521L212.64 212.274C210.241 214.516 206.875 214.622 205.125 212.511C203.372 210.4 203.9 206.871 206.299 204.629Z" fill="#FFA500"/>
</g>
<defs>
<linearGradient id="paint0_linear_3867_2629" x1="234.375" y1="20.625" x2="73.125" y2="277.5" gradientUnits="userSpaceOnUse">
<stop stop-color="white" stop-opacity="0.47"/>
<stop offset="1" stop-color="#6546A6"/>
</linearGradient>
<clipPath id="clip0_3867_2629">
<rect width="170" height="151" fill="white" transform="translate(71 74)"/>
</clipPath>
</defs>
</svg>
