<svg width="300" height="300" viewBox="0 0 300 300" fill="none" xmlns="http://www.w3.org/2000/svg">
<rect x="0.5" y="0.5" width="299" height="299" rx="149.5" fill="white" fill-opacity="0.07" stroke="url(#paint0_linear_3867_2640)"/>
<path d="M108.056 237.663C108.056 236.579 108.056 235.671 108.056 234.763C108.086 210.454 108.081 186.14 108.161 161.83C108.226 141.399 124.565 123.365 144.866 121.052C158.541 119.492 170.369 123.425 180.046 133.107C187.806 140.872 192.276 150.378 192.336 161.509C192.471 186.405 192.421 211.307 192.436 236.203C192.436 236.614 192.356 237.026 192.296 237.658H108.056V237.663Z" fill="#6546A6"/>
<path d="M193.831 140.815C203.814 138.167 212.517 139.852 220.182 146.012C227.461 151.861 230.987 159.632 230.987 168.987C230.987 185.371 230.967 201.754 231.052 218.138C231.062 220.25 230.626 221.062 228.319 221.027C219.625 220.892 210.932 220.892 202.238 221.027C199.846 221.067 199.344 220.214 199.359 218.012C199.449 202.381 199.309 186.75 199.464 171.119C199.57 160.766 199.244 150.557 193.831 140.81V140.815Z" fill="#6546A6"/>
<path d="M100.963 220.827H69.6656C69.6154 219.824 69.5352 218.941 69.5352 218.053C69.5352 201.68 69.5352 185.306 69.5552 168.933C69.5803 151.26 84.1177 138.032 101.655 139.743C103.215 139.893 104.745 140.35 106.185 140.641C104.825 144.814 103.32 148.772 102.287 152.845C101.555 155.725 101.148 158.77 101.133 161.744C101.043 180.621 101.103 199.503 101.103 218.384C101.103 219.117 101.018 219.854 100.958 220.827H100.963Z" fill="#6546A6"/>
<path d="M150.128 113.171C135.129 113.025 123.28 101.026 123.396 86.0975C123.511 71.2842 135.701 59.3904 150.65 59.5008C165.383 59.6111 177.317 71.9363 177.146 86.86C176.981 101.382 164.726 113.311 150.128 113.171Z" fill="#6546A6"/>
<path d="M67.4336 150.79C64.3284 156.393 62.5928 162.262 62.5526 168.543C62.5025 177.231 62.5526 185.914 62.5627 194.603C62.5627 198.52 62.5627 202.438 62.5627 206.562H42.2063C42.1461 205.889 42.0307 205.172 42.0307 204.455C42.0257 192.842 41.9504 181.234 42.0558 169.621C42.1712 157.15 53.6687 147.715 65.5725 150.188C66.1293 150.303 66.661 150.534 67.4285 150.785L67.4336 150.79Z" fill="#A1A0B3"/>
<path d="M233.039 150.854C243.668 147.222 255.687 154.401 257.975 165.346C258.266 166.731 258.507 168.155 258.512 169.56C258.557 181.338 258.542 193.117 258.537 204.9C258.537 205.392 258.467 205.883 258.411 206.576H238.155C238.1 205.633 238.005 204.674 238 203.716C237.99 194.19 237.859 184.664 238.035 175.148C238.19 166.691 237.679 158.434 233.039 150.859V150.854Z" fill="#ADACBD"/>
<path d="M98.6653 132.148C88.763 132.214 80.5161 124.233 80.5061 114.566C80.4961 104.047 88.1811 96.1209 98.4747 96.0406C108.563 95.9604 116.599 103.966 116.639 114.135C116.679 124.122 108.738 132.083 98.6653 132.148Z" fill="#6546A6"/>
<path d="M220.031 114.48C219.861 124.503 211.8 132.283 201.727 132.148C191.589 132.012 183.778 123.916 183.929 113.712C184.074 103.78 192.326 95.8041 202.243 96.0097C212.427 96.2204 220.207 104.297 220.031 114.48Z" fill="#6546A6"/>
<path d="M250.536 130.473C250.551 137.094 245.239 142.517 238.682 142.572C231.955 142.632 226.432 137.28 226.352 130.638C226.272 123.781 231.669 118.303 238.512 118.298C245.208 118.298 250.526 123.675 250.536 130.468V130.473Z" fill="#ADACBD"/>
<path d="M50.0017 130.461C50.0468 123.634 55.5197 118.186 62.2466 118.282C68.9334 118.372 74.2157 123.779 74.1956 130.511C74.1755 137.178 68.7278 142.591 62.061 142.571C55.3842 142.546 49.9616 137.103 50.0017 130.466V130.461Z" fill="#A1A0B3"/>
<defs>
<linearGradient id="paint0_linear_3867_2640" x1="234.375" y1="20.625" x2="73.125" y2="277.5" gradientUnits="userSpaceOnUse">
<stop stop-color="white" stop-opacity="0.47"/>
<stop offset="1" stop-color="#6546A6"/>
</linearGradient>
</defs>
</svg>
