<svg width="300" height="300" viewBox="0 0 300 300" fill="none" xmlns="http://www.w3.org/2000/svg">
<rect x="0.5" y="0.5" width="299" height="299" rx="149.5" fill="white" fill-opacity="0.07" stroke="url(#paint0_linear_3867_3122)"/>
<g clip-path="url(#clip0_3867_3122)">
<path d="M150.529 224.989C128.736 224.989 106.944 225.003 85.152 224.957C83.5813 224.957 81.8819 224.774 80.4722 224.158C77.4776 222.847 76.0966 220.267 75.932 217.029C75.4025 206.55 74.898 196.071 74.3506 185.596C73.3417 166.315 72.3042 147.037 71.2916 127.76C70.8408 119.129 70.4044 110.495 70.0108 101.862C69.7854 96.9499 73.1914 93.4354 78.1037 93.4247C83.1663 93.4104 88.2253 93.4713 93.2878 93.3745C94.2646 93.3566 95.3916 92.9984 96.1822 92.4252C127.767 69.472 172.113 69.1424 203.759 91.7409C205.455 92.9518 207.068 93.5214 209.14 93.4605C213.662 93.328 218.188 93.4104 222.714 93.4211C227.902 93.4318 231.24 96.8352 230.989 102.016C230.292 116.36 229.533 130.704 228.789 145.045C228.005 160.16 227.2 175.274 226.421 190.389C225.977 198.962 225.537 207.531 225.147 216.108C224.875 222.087 221.898 224.996 215.909 225C194.117 225 172.325 225 150.532 225V224.989H150.529ZM114.576 95.2733C110.529 97.8312 106.547 100.185 102.751 102.807C100.676 104.24 100.515 106.934 102.093 109.202C108.622 118.588 115.17 127.96 121.753 137.311C123.527 139.833 126.082 140.237 128.597 138.471C134.017 134.67 139.971 132.299 146.582 131.707C147.527 131.621 147.935 131.281 148.024 130.317C148.35 126.878 148.733 123.443 149.112 120.007C149.509 116.439 149.928 112.874 150.339 109.306C150.711 109.664 150.818 110.037 150.861 110.417C151.591 117.048 152.293 123.683 153.087 130.307C153.148 130.808 153.831 131.586 154.285 131.632C161.087 132.309 167.18 134.749 172.743 138.675C174.904 140.202 177.559 139.754 179.076 137.601C185.798 128.057 192.485 118.488 199.136 108.894C200.564 106.838 200.281 104.19 198.278 102.807C194.478 100.188 190.503 97.8276 186.467 95.2768C184.153 99.3502 182.052 103.047 179.895 106.841C178.782 106.204 177.834 105.659 176.815 105.075C178.915 101.321 180.911 97.7488 183.094 93.8546C178.564 92.332 174.274 90.8847 169.816 89.3872C168.618 93.8582 167.52 97.9637 166.375 102.238C165.122 101.887 164.074 101.589 162.961 101.278C164.067 97.0323 165.122 92.984 166.264 88.6062C161.484 88.1082 156.976 87.6389 152.232 87.1445V99.3323H148.733V87.1123C143.967 87.6353 139.42 88.1333 134.754 88.6456C135.931 93.113 136.987 97.129 138.089 101.317C136.905 101.625 135.845 101.901 134.643 102.216C133.495 97.9279 132.389 93.8188 131.202 89.3908C126.711 90.899 122.422 92.3392 117.921 93.8474C120.143 97.8061 122.168 101.41 124.236 105.093C123.087 105.731 122.125 106.264 121.112 106.827C118.933 102.976 116.858 99.3108 114.572 95.2697L114.576 95.2733Z" fill="#6546A6"/>
</g>
<defs>
<linearGradient id="paint0_linear_3867_3122" x1="234.375" y1="20.625" x2="73.125" y2="277.5" gradientUnits="userSpaceOnUse">
<stop stop-color="white" stop-opacity="0.47"/>
<stop offset="1" stop-color="#6546A6"/>
</linearGradient>
<clipPath id="clip0_3867_3122">
<rect width="161" height="150" fill="white" transform="translate(70 75)"/>
</clipPath>
</defs>
</svg>
