<svg width="300" height="300" viewBox="0 0 300 300" fill="none" xmlns="http://www.w3.org/2000/svg">
<rect x="0.5" y="0.5" width="299" height="299" rx="149.5" fill="white" fill-opacity="0.07" stroke="url(#paint0_linear_3867_3470)"/>
<g clip-path="url(#clip0_3867_3470)">
<path d="M193.49 191.699C193.49 202.344 193.477 212.993 193.498 223.638C193.503 226.158 192.189 227.031 189.839 227.001C185.428 226.944 181.016 226.983 176.605 226.988C143.579 226.988 110.552 226.988 77.526 226.988C72.1642 226.988 72 226.828 72 221.624C72 180.618 72 139.616 72 98.619C72 97.4694 72 96.3155 72 94.8201C75.6509 94.8201 78.9604 94.8287 82.27 94.8201C89.1829 94.7985 91.382 92.6203 91.4036 85.796C91.4166 81.4914 91.4382 77.1911 91.4728 72.8865C91.4728 72.7007 91.6326 72.5149 91.8659 72.0049H94.8601C126.059 72.0049 157.258 72.0049 188.456 72.0049C193.265 72.0049 193.498 72.2426 193.498 77.1868C193.498 102.262 193.542 127.334 193.416 152.409C193.408 154.255 192.613 156.403 191.489 157.889C185.86 165.362 180.131 172.77 174.168 179.978C171.062 183.739 168.884 187.676 168.37 192.59C167.99 196.216 167.16 199.794 166.577 203.403C166.093 206.398 167.432 207.569 170.167 206.411C175.209 204.276 180.221 202.063 185.186 199.747C186.296 199.228 187.281 198.269 188.102 197.322C189.765 195.408 191.278 193.359 192.85 191.371C193.062 191.483 193.278 191.591 193.49 191.704V191.699ZM85.3548 122.796H99.3621V136.626H116.752V122.705H130.574V105.387H116.545V91.5873H99.1374V105.599H85.3548V122.796ZM133.032 159.13C147.234 159.13 161.436 159.13 175.637 159.13C176.497 159.13 177.499 159.367 178.182 159.009C179.012 158.577 180.096 157.63 180.1 156.9C180.105 156.182 178.986 155.322 178.186 154.782C177.737 154.479 176.929 154.687 176.285 154.687C147.346 154.687 118.403 154.687 89.4637 154.687C88.7119 154.687 87.8305 154.497 87.2429 154.821C86.5084 155.227 85.4801 156.135 85.5449 156.718C85.6357 157.544 86.4652 158.555 87.2516 158.957C88.0293 159.354 89.144 159.125 90.1075 159.125C104.417 159.13 118.727 159.125 133.032 159.125V159.13ZM126.482 174.032C138.731 174.032 150.98 174.032 163.233 174.032C164.093 174.032 165.086 174.278 165.778 173.932C166.594 173.522 167.67 172.588 167.67 171.884C167.67 171.149 166.612 170.285 165.83 169.736C165.389 169.429 164.577 169.632 163.933 169.632C139.003 169.632 114.074 169.632 89.144 169.636C88.3965 169.636 87.4762 169.485 86.9491 169.852C86.2665 170.328 85.4715 171.279 85.5104 171.983C85.5493 172.674 86.4566 173.548 87.1911 173.902C87.8997 174.239 88.8761 174.032 89.7359 174.032C101.985 174.032 114.233 174.032 126.487 174.032H126.482ZM122.062 187.615C111.11 187.615 100.157 187.611 89.2045 187.62C87.4978 187.62 85.3721 187.352 85.4283 189.889C85.4888 192.4 87.6404 192.002 89.3211 192.062C89.5371 192.071 89.7488 192.062 89.9649 192.062C111.226 192.062 132.488 192.062 153.745 192.062C154.605 192.062 155.59 192.296 156.29 191.954C157.132 191.544 158.407 190.459 158.286 189.975C158.061 189.08 157.063 188.203 156.169 187.719C155.499 187.356 154.488 187.62 153.628 187.62C143.103 187.62 132.583 187.62 122.058 187.62L122.062 187.615ZM121.708 206.964C132.682 206.964 143.656 206.964 154.631 206.964C156.247 206.964 158.243 207.202 158.355 204.959C158.48 202.487 156.415 202.56 154.657 202.56C132.816 202.56 110.976 202.56 89.1353 202.565C87.4114 202.565 85.3376 202.374 85.4413 204.937C85.532 207.301 87.5324 206.951 89.1094 206.956C99.9756 206.969 110.842 206.96 121.708 206.964ZM161.41 93.2296C166.555 93.2296 171.71 93.355 176.843 93.1346C178.009 93.0827 179.979 91.959 180.096 91.1249C180.39 88.9899 178.506 88.804 176.778 88.8084C166.594 88.8257 156.406 88.7522 146.223 88.9078C145.095 88.9251 143.168 90.066 143.021 90.9261C142.641 93.1735 144.611 93.234 146.292 93.234C151.33 93.2297 156.372 93.234 161.41 93.234V93.2296ZM161.315 108.162C166.46 108.162 171.606 108.14 176.752 108.175C178.476 108.188 180.373 108.045 180.105 105.901C180.001 105.067 178.014 103.874 176.873 103.857C166.694 103.697 156.506 103.762 146.322 103.766C144.654 103.766 142.671 103.818 143.026 106.066C143.16 106.913 145.065 108.023 146.206 108.071C151.235 108.291 156.277 108.166 161.315 108.166V108.162ZM161.418 121.75C156.255 121.75 151.088 121.637 145.938 121.845C144.883 121.888 143.877 123.137 142.848 123.829C143.894 124.615 144.931 126.072 145.994 126.089C156.316 126.262 166.642 126.262 176.964 126.093C178.07 126.076 179.154 124.684 180.247 123.932C179.133 123.202 178.048 121.897 176.903 121.845C171.753 121.616 166.581 121.745 161.423 121.745L161.418 121.75ZM161.31 141.094C166.456 141.094 171.602 141.073 176.748 141.107C178.467 141.116 180.368 140.982 180.1 138.834C179.997 138 178.014 136.807 176.869 136.786C166.689 136.626 156.501 136.691 146.318 136.695C144.65 136.695 142.667 136.747 143.021 138.994C143.155 139.841 145.061 140.948 146.201 140.999C151.23 141.22 156.272 141.094 161.31 141.094Z" fill="#6546A6"/>
<path d="M206.045 146.509C209.592 149.283 212.785 151.786 216.216 154.474C205.777 167.781 195.464 180.933 184.905 194.4C181.513 191.742 178.273 189.2 174.739 186.434C185.194 173.097 195.507 159.946 206.045 146.509Z" fill="#6546A6"/>
<path d="M218.908 151.051C215.404 148.294 212.215 145.779 208.75 143.047C211.226 139.914 213.485 136.802 216.017 133.933C218.173 131.491 220.601 131.767 223.963 134.438C227.104 136.932 227.851 139.179 226.002 141.842C223.868 144.919 221.435 147.793 218.908 151.047V151.051Z" fill="#6546A6"/>
<path d="M74.4022 90.5581C78.7271 85.3156 82.5033 80.7344 86.8843 75.4229C86.8843 80.3325 87.0485 84.4253 86.7374 88.4836C86.6769 89.2486 84.7845 90.342 83.6482 90.463C80.909 90.7526 78.1179 90.5581 74.3979 90.5581H74.4022Z" fill="#6546A6"/>
<path d="M173.313 190.93C175.961 192.983 178.195 194.711 180.917 196.82C177.664 198.298 174.851 199.578 171.446 201.125C172.107 197.516 172.66 194.474 173.308 190.93H173.313Z" fill="#6546A6"/>
<path d="M126.08 118.521H112.376V132.364H103.821V118.521H89.7229V109.847H103.601V95.9258H112.281V109.63H126.08V118.525V118.521Z" fill="#6546A6"/>
</g>
<defs>
<linearGradient id="paint0_linear_3867_3470" x1="234.375" y1="20.625" x2="73.125" y2="277.5" gradientUnits="userSpaceOnUse">
<stop stop-color="white" stop-opacity="0.47"/>
<stop offset="1" stop-color="#6546A6"/>
</linearGradient>
<clipPath id="clip0_3867_3470">
<rect width="155" height="155" fill="white" transform="translate(72 72)"/>
</clipPath>
</defs>
</svg>
