<svg width="134" height="130" viewBox="0 0 134 130" fill="none" xmlns="http://www.w3.org/2000/svg">
<g filter="url(#filter0_f_3867_2423)">
<rect x="24" y="20" width="90" height="90" rx="45" fill="#E26F00"/>
</g>
<circle cx="60" cy="60" r="59.75" fill="white" fill-opacity="0.1" stroke="url(#paint0_linear_3867_2423)" stroke-width="0.5"/>
<g clip-path="url(#clip0_3867_2423)">
<path d="M96 61.7829C95.8165 63.093 95.6806 64.411 95.4427 65.7109C93.6596 75.4926 88.6945 83.2965 80.6843 89.1342C74.4346 93.6879 67.3873 95.925 59.6581 95.9998C58.5468 96.01 57.7629 95.4309 57.4593 94.4336C57.1999 93.5814 57.508 92.6067 58.3055 92.1353C58.7122 91.895 59.2344 91.7511 59.7079 91.742C63.4666 91.6729 67.1415 91.1028 70.6317 89.7054C81.62 85.3082 88.5484 77.3365 91.0734 65.762C92.8157 57.7755 91.189 50.256 87.1244 43.226C87.0768 43.1444 87.0134 43.0731 86.8922 42.9087C86.3144 43.4833 85.7526 44.0432 85.1896 44.6042C84.8701 44.9226 84.5529 45.2445 84.2301 45.5595C82.8639 46.8923 81.0899 46.4821 80.477 44.6688C79.4598 41.6598 78.4685 38.6418 77.4649 35.6283C77.0083 34.2559 76.5563 32.8823 76.084 31.5155C75.7702 30.6066 75.8415 29.7714 76.5416 29.0778C77.2406 28.3853 78.0607 28.3377 78.9794 28.6471C83.3363 30.1148 87.7055 31.5473 92.0646 33.007C93.9496 33.6382 94.3507 35.4277 92.9369 36.8478C91.9819 37.8066 91.0088 38.7461 90.0244 39.7116C90.1524 39.9428 90.2453 40.1287 90.3541 40.3044C93.475 45.3793 95.4031 50.8532 95.8788 56.8133C95.8936 56.998 95.957 57.1782 95.9989 57.3607V61.7806L96 61.7829Z" fill="white"/>
<path d="M60.0781 23C60.1936 23.0725 60.3058 23.1507 60.4258 23.2153C61.34 23.7027 61.8158 24.6637 61.5949 25.584C61.3536 26.5903 60.5505 27.2601 59.489 27.2726C56.5074 27.3066 53.5666 27.6477 50.7165 28.5408C39.3237 32.1096 31.8188 39.6143 28.4679 51.0608C26.0323 59.3827 27.3226 67.3623 31.4721 74.9181C31.5265 75.0167 31.6035 75.1029 31.7655 75.3273C32.5574 74.5011 33.2971 73.7078 34.0606 72.9405C35.4823 71.5114 37.2574 71.9013 37.8952 73.7984C39.369 78.1798 40.8179 82.5691 42.2804 86.9539C42.5738 87.8322 42.5228 88.6539 41.842 89.3305C41.1487 90.0195 40.324 90.1 39.4075 89.7917C35.0292 88.3195 30.6429 86.87 26.2623 85.4047C24.4566 84.8006 24.0182 83.0055 25.3504 81.6523C26.3994 80.587 27.4721 79.5455 28.5336 78.4949C27.8369 77.1542 27.121 75.8758 26.4945 74.5555C23.7066 68.6781 22.5025 62.4914 23.1878 56.0088C24.2708 45.7773 28.895 37.4282 36.8745 30.9638C42.0436 26.7773 47.975 24.2829 54.5556 23.3332C55.4437 23.2051 56.3364 23.1099 57.2279 23C58.1783 23 59.1288 23 60.0792 23H60.0781Z" fill="white"/>
<path d="M50.0653 53.6465C56.2392 57.5405 62.2771 61.3485 68.4363 65.2323C64.5847 70.5782 60.4793 75.5398 53.9226 77.4982C49.0775 78.9454 45.4344 76.2572 45.0685 71.1969C44.6063 64.8039 46.9297 59.1986 50.0653 53.6465Z" fill="white"/>
<path d="M51.0464 52.0927C54.4177 47.2636 58.1401 43.0624 63.4394 40.551C65.3108 39.6636 67.2774 39.1536 69.3369 39.5548C72.3037 40.134 74.2341 42.8811 74.4244 46.4442C74.7608 52.7488 72.4612 58.2624 69.4049 63.6694C63.291 59.8139 57.235 55.9946 51.0475 52.0915L51.0464 52.0927Z" fill="white"/>
</g>
<defs>
<filter id="filter0_f_3867_2423" x="4" y="0" width="130" height="130" filterUnits="userSpaceOnUse" color-interpolation-filters="sRGB">
<feFlood flood-opacity="0" result="BackgroundImageFix"/>
<feBlend mode="normal" in="SourceGraphic" in2="BackgroundImageFix" result="shape"/>
<feGaussianBlur stdDeviation="10" result="effect1_foregroundBlur_3867_2423"/>
</filter>
<linearGradient id="paint0_linear_3867_2423" x1="93.75" y1="8.25" x2="29.25" y2="111" gradientUnits="userSpaceOnUse">
<stop stop-color="white" stop-opacity="0.47"/>
<stop offset="1" stop-color="#E97300"/>
</linearGradient>
<clipPath id="clip0_3867_2423">
<rect width="73" height="73" fill="white" transform="translate(23 23)"/>
</clipPath>
</defs>
</svg>
