<svg width="134" height="130" viewBox="0 0 134 130" fill="none" xmlns="http://www.w3.org/2000/svg">
<g filter="url(#filter0_f_3867_2433)">
<rect x="24" y="20" width="90" height="90" rx="45" fill="#E26F00"/>
</g>
<circle cx="60" cy="60" r="59.75" fill="white" fill-opacity="0.1" stroke="url(#paint0_linear_3867_2433)" stroke-width="0.5"/>
<g clip-path="url(#clip0_3867_2433)">
<path d="M77.2475 35.8932C81.8619 39.2904 86.6451 45.5936 85.2709 52.8773C85.1063 53.7546 85.0303 54.6508 84.9269 55.5386C84.606 58.3264 85.1337 60.859 86.9871 63.0775C88.1059 64.4165 89.1233 65.8484 90.1239 67.2803C91.7514 69.6126 91.0843 71.8922 88.3148 72.4109C86.4108 72.7673 85.2984 78.5221 83.8651 82.9717C82.8054 86.2656 79.865 88.5895 76.4115 88.8509C74.0706 89.0302 71.8246 88.8067 70.8726 88.8067C70.3427 91.1685 69.8045 93.562 69.2725 95.9554C68.8229 97.9841 68.825 98.0431 66.7352 97.9841C58.7308 97.7542 50.8213 96.8727 43.1925 94.2768C40.5497 93.3785 40.4357 93.292 41.107 90.6455C42.3545 85.7299 41.2906 81.3205 38.747 77.065C37.4762 74.9414 36.5158 72.6323 35.4097 70.3928C37.8477 70.804 40.0051 71.4198 42.1814 71.4915C49.7067 71.7403 56.2357 67.3161 59.0305 60.2517C59.3176 59.5263 59.6215 59.2205 60.4659 59.2121C72.4473 59.1045 80.6629 48.1051 77.4184 36.5659C77.3657 36.3761 77.3213 36.1821 77.2453 35.8848L77.2475 35.8932Z" fill="white"/>
<path d="M42.6671 69.5651C34.0906 69.6347 27.055 62.6968 27.0001 54.1183C26.9452 45.388 33.8309 38.3995 42.5953 38.294C51.0621 38.1928 58.218 45.2699 58.2623 53.7872C58.3088 62.5555 51.4484 69.4955 42.665 69.5651H42.6671ZM42.0929 53.9665V54.0677C39.9187 54.0677 37.7466 54.0719 35.5745 54.0677C34.2826 54.0635 33.9027 54.4578 34.2489 55.6915C34.5338 56.7079 34.8927 57.7285 35.3951 58.6522C36.8199 61.2776 38.9139 62.9942 42.0423 63.1481C46.3379 63.3611 50.1037 59.9196 51.0748 55.2802C51.2837 54.2786 50.8025 53.9412 49.6288 53.958C47.1168 53.9918 44.6049 53.9686 42.095 53.9686L42.0929 53.9665ZM39.0722 50.0062C39.0955 48.8211 38.3883 47.908 37.4659 47.9269C36.6046 47.9438 35.9397 48.8295 35.9418 49.9556C35.9418 51.05 36.6468 51.9842 37.4785 52.0011C38.3081 52.0159 39.0533 51.0859 39.0722 50.0083V50.0062ZM49.3185 49.9703C49.3312 48.8485 48.6768 47.967 47.805 47.929C46.8889 47.889 46.1817 48.7894 46.1838 49.9957C46.1859 51.0711 46.9247 52.0095 47.7585 51.999C48.5818 51.9884 49.3058 51.0437 49.3185 49.9703Z" fill="white"/>
<path d="M59.9974 57.1228C60.6074 52.9327 60.027 48.9935 57.9815 45.3411C59.8771 43.8797 62.9927 44.3563 64.388 46.2858C64.5379 46.4925 64.6076 46.7877 64.7976 46.9248C64.8651 46.9733 64.9369 47.0197 65.0086 47.0618C65.5279 47.3676 66.2182 46.9648 66.1464 46.3659C66.1422 46.3343 66.1359 46.3048 66.1274 46.2753C65.4414 43.8164 62.788 42.1463 60.0101 42.4858C58.9335 42.6165 57.895 43.0425 56.7044 43.3715C54.0236 39.8709 50.3718 37.5913 45.9072 36.6424C47.064 31.3514 53.7576 25.1601 62.2181 26.0943C70.7819 27.039 77.1737 34.677 76.0929 43.5486C75.1114 51.6147 67.5903 57.9811 59.9974 57.1249V57.1228ZM53.8632 37.6714C53.8695 38.7617 54.5576 39.6537 55.4062 39.6685C56.3118 39.6853 57.021 38.7659 57.0063 37.5997C56.9915 36.4905 56.3181 35.6196 55.4653 35.6069C54.5555 35.5922 53.8568 36.4905 53.8632 37.6714ZM67.2589 37.6757C67.2694 36.5116 66.558 35.5922 65.6588 35.6091C64.7828 35.6259 64.1411 36.4547 64.1179 37.5955C64.0946 38.7554 64.8039 39.679 65.7052 39.6663C66.5475 39.6537 67.2483 38.7575 67.2567 37.6757H67.2589Z" fill="white"/>
</g>
<defs>
<filter id="filter0_f_3867_2433" x="4" y="0" width="130" height="130" filterUnits="userSpaceOnUse" color-interpolation-filters="sRGB">
<feFlood flood-opacity="0" result="BackgroundImageFix"/>
<feBlend mode="normal" in="SourceGraphic" in2="BackgroundImageFix" result="shape"/>
<feGaussianBlur stdDeviation="10" result="effect1_foregroundBlur_3867_2433"/>
</filter>
<linearGradient id="paint0_linear_3867_2433" x1="93.75" y1="8.25" x2="29.25" y2="111" gradientUnits="userSpaceOnUse">
<stop stop-color="white" stop-opacity="0.47"/>
<stop offset="1" stop-color="#E97300"/>
</linearGradient>
<clipPath id="clip0_3867_2433">
<rect width="64" height="72" fill="white" transform="translate(27 26)"/>
</clipPath>
</defs>
</svg>
