<svg width="134" height="130" viewBox="0 0 134 130" fill="none" xmlns="http://www.w3.org/2000/svg">
<g filter="url(#filter0_f_3867_2397)">
<rect x="24" y="20" width="90" height="90" rx="45" fill="#6546A6"/>
</g>
<circle cx="60" cy="60" r="59.75" fill="white" fill-opacity="0.1" stroke="url(#paint0_linear_3867_2397)" stroke-width="0.5"/>
<g clip-path="url(#clip0_3867_2397)">
<path d="M31 66.0686C31 65.9915 31 65.9145 31 65.8374C31.2833 65.4568 31.5604 65.0715 31.8513 64.6986C33.8202 62.1758 35.4797 59.4635 36.8698 56.5817C37.287 55.7172 37.3116 54.865 36.8406 54.0482C36.5681 53.5751 36.211 53.1236 35.803 52.7629C34.65 51.7458 34.5699 51.6287 35.2119 50.2202C35.9554 48.5882 36.5389 46.9146 36.9252 45.1608C37.1315 44.2285 37.4394 43.3085 37.8043 42.4254C39.5838 38.112 42.4995 34.9574 47.0223 33.4518C49.6009 32.5934 52.2641 32.1418 54.9304 31.6949C55.6123 31.5809 56.3004 31.4977 57.0809 31.3867C56.3436 32.6797 56.1126 33.9449 56.4005 35.2733C56.9716 37.9162 59.2746 39.5883 62.041 39.425C62.2211 39.4142 62.5151 39.5066 62.5767 39.6361C62.8784 40.2725 63.1201 40.9368 63.3756 41.5732C59.1407 44.2732 57.6536 48.0488 58.7774 52.8847C57.2287 53.572 55.7108 54.2455 54.1914 54.9189C54.0714 54.7679 53.9867 54.6631 53.9051 54.5598C52.1148 52.2806 49.1898 51.4931 46.5128 52.5688C43.5971 53.7415 41.9853 56.9963 42.8197 60.0337C43.671 63.1359 46.6914 65.1393 49.7979 64.6631C53.3571 64.1176 55.6739 60.8967 55.1151 57.2922C55.0889 57.1226 55.1567 56.8206 55.2675 56.7682C56.7238 56.0917 58.197 55.4506 59.6949 54.7879C60.9187 56.7852 62.6136 58.1644 64.7888 58.9689C64.3794 60.8336 63.9899 62.652 63.565 64.4612C63.5311 64.6061 63.2587 64.7664 63.0785 64.7926C61.0958 65.0869 59.544 66.7467 59.4578 68.6946C59.3639 70.8089 60.697 72.6043 62.7106 73.0712C64.658 73.5227 66.6931 72.4887 67.4951 70.6409C68.3003 68.7855 67.6768 66.6465 65.9942 65.4907C65.8557 65.3951 65.7171 65.298 65.5724 65.1979C66.0019 63.2684 66.4252 61.3637 66.8532 59.4404C69.5503 59.6608 71.9087 58.9257 74.0038 57.2336C76.0159 59.1353 78.0048 61.0139 80.0184 62.9171C80.4663 62.3207 80.8727 61.7782 81.2899 61.225C82.5338 62.4008 83.7422 63.5273 84.9276 64.677C85.2324 64.9729 85.4756 65.0777 85.9174 64.9236C87.3568 64.4227 88.9301 65.0931 89.6382 66.4415C90.3541 67.8038 89.9815 69.5036 88.7623 70.4283C87.6986 71.2358 86.1976 71.2851 85.0923 70.5469C83.9747 69.8011 83.4728 68.4557 83.7746 67.1119C83.8238 66.8931 83.81 66.5494 83.6745 66.4169C82.4845 65.2441 81.2622 64.1068 80.043 62.9541C77.9448 65.5631 76.296 68.3648 75.5217 71.638C74.7489 74.9036 74.9106 78.1583 75.5356 81.4177C76.0405 84.0467 76.7148 86.6219 78.0171 88.9905C78.188 89.3033 78.3758 89.6069 78.6067 90.0045H54.7287C54.0283 87.5465 52.7936 85.3181 51.0479 83.324C52.0886 82.9695 53.0338 82.6567 53.9728 82.3238C55.7555 81.6935 57.4858 80.9661 58.8482 79.5884C59.6749 78.7516 60.1813 77.7653 60.1983 76.5633C60.209 75.8467 59.8088 75.3535 59.193 75.3304C58.6065 75.3073 58.1339 75.7527 58.1062 76.4338C58.0769 77.1597 57.7768 77.7545 57.2457 78.1907C56.673 78.6622 56.0665 79.1415 55.3953 79.4374C54.0467 80.0292 52.652 80.5223 51.2619 81.0124C47.4103 82.3685 43.5663 83.7509 39.5808 84.6817C38.44 84.9483 37.581 84.4644 37.1916 83.3687C36.8406 82.3839 36.9099 81.4192 37.1392 80.4237C37.5441 78.673 36.9052 77.3092 35.3458 76.4631C35.235 76.403 35.1334 76.326 35.0179 76.2505C35.0687 76.1472 35.0903 76.0717 35.1349 76.0131C35.9585 74.9714 35.6799 74.4027 34.6654 73.7046C33.8972 73.176 33.9172 73.1467 34.3452 72.3377C35.4258 70.2973 35.1919 68.374 32.7857 67.2228C32.1515 66.9131 31.5927 66.4554 31 66.0686ZM38.4416 47.3276L38.594 47.3784C38.5832 47.9332 38.9126 48.3524 39.436 48.4495C39.9641 48.5481 40.4444 48.2908 40.6168 47.7652C40.7476 47.3661 40.8123 46.9454 40.9139 46.5355C42.0377 41.9724 44.3822 38.4957 49.1775 37.1719C49.4408 37.0995 49.704 36.8483 49.8595 36.611C50.1012 36.2396 50.0134 35.8296 49.7317 35.4891C49.3915 35.0776 48.9466 35.0622 48.4709 35.1947C44.4931 36.3012 41.7098 38.8147 40.0657 42.5533C39.3914 44.0867 38.9758 45.7326 38.4416 47.3291V47.3276ZM39.4176 51.0154C39.4053 50.4251 38.9342 49.9844 38.3354 50.0029C37.7642 50.0214 37.3332 50.4652 37.3332 51.0369C37.3332 51.6195 37.812 52.1018 38.3862 52.0941C38.9634 52.0864 39.4299 51.5994 39.4176 51.0154Z" fill="white"/>
<path d="M62.1133 31C62.2673 31.0632 62.4181 31.1356 62.5767 31.1911C64.0946 31.7228 64.9412 33.1914 64.6503 34.7926C64.3824 36.2612 62.98 37.377 61.4606 37.3307C59.9535 37.2845 58.6327 36.1225 58.4326 34.6693C58.2124 33.0681 59.1315 31.6087 60.6493 31.1433C60.794 31.0986 60.9357 31.0478 61.0788 31C61.4252 31 61.77 31 62.1164 31H62.1133Z" fill="white"/>
<path d="M67.6846 57.3633C63.4773 57.1969 60.3277 53.7819 60.5063 49.5778C60.6756 45.5972 64.1639 42.4426 68.2049 42.6183C72.2844 42.7955 75.4079 46.2321 75.2416 50.3591C75.0831 54.292 71.6024 57.5174 67.6846 57.3618V57.3633ZM62.606 49.8352C62.5953 50.4994 63.0001 50.9925 63.5943 51.0357C64.2116 51.0804 64.6458 50.6273 64.7274 49.8506C64.9198 48.0383 66.0143 46.9657 67.8247 46.8147C68.519 46.7576 68.9331 46.3446 68.9161 45.7313C68.8992 45.1241 68.4389 44.7234 67.7554 44.7219C65.0352 44.7157 62.6522 47.0813 62.6045 49.8352H62.606Z" fill="white"/>
<path d="M81.2592 61.1879C79.2919 59.3247 77.3845 57.5186 75.4648 55.7001C77.8325 52.1896 77.9772 48.6066 75.9097 44.9049C77.0951 43.9541 78.2743 43.0094 79.3242 42.168C80.3202 42.6272 81.2238 43.0279 82.1075 43.4686C82.2799 43.5549 82.4461 43.783 82.4908 43.9741C82.8787 45.6539 83.3436 47.3259 83.5807 49.0304C83.9209 51.4714 83.9994 53.9356 83.4267 56.369C83.0219 58.0857 82.3137 59.6699 81.2592 61.1894V61.1879Z" fill="white"/>
<path d="M77.9848 40.5351C76.9395 41.3734 75.7742 42.3058 74.5904 43.2535C71.9518 40.8094 68.9068 39.9834 65.3615 40.8248C65.0844 40.139 64.7981 39.4563 64.5425 38.7613C64.5087 38.6673 64.6057 38.4762 64.6996 38.3915C66.9795 36.2771 67.3643 34.4509 66.102 31.4551C66.3006 31.4936 66.456 31.5183 66.61 31.5537C70.4632 32.4629 73.9223 34.1735 76.9857 36.6793C77.1735 36.8319 77.2828 37.1324 77.3398 37.3836C77.5645 38.3837 77.7539 39.3916 77.9848 40.5351Z" fill="white"/>
<path d="M48.9329 62.6255C46.5929 62.6347 44.7133 60.7731 44.7056 58.4399C44.6979 56.1067 46.5698 54.2081 48.8897 54.1973C51.2035 54.185 53.1139 56.0805 53.1232 58.3983C53.1324 60.7284 51.2605 62.6178 48.9313 62.6255H48.9329Z" fill="white"/>
<path d="M83.6821 41.5332C81.3453 41.5378 79.4764 39.67 79.4749 37.3307C79.4749 35.0021 81.3576 33.1051 83.6729 33.1035C85.982 33.102 87.8909 35.0083 87.8955 37.323C87.9001 39.6407 86.0097 41.5301 83.6806 41.5332H83.6821Z" fill="white"/>
<path d="M63.6959 66.8693C64.8412 66.8832 65.7772 67.834 65.771 68.9759C65.7648 70.1518 64.8073 71.0826 63.622 71.0641C62.4689 71.0471 61.5437 70.1071 61.5484 68.9605C61.553 67.7893 62.5136 66.8554 63.6943 66.8693H63.6959Z" fill="white"/>
</g>
<defs>
<filter id="filter0_f_3867_2397" x="4" y="0" width="130" height="130" filterUnits="userSpaceOnUse" color-interpolation-filters="sRGB">
<feFlood flood-opacity="0" result="BackgroundImageFix"/>
<feBlend mode="normal" in="SourceGraphic" in2="BackgroundImageFix" result="shape"/>
<feGaussianBlur stdDeviation="10" result="effect1_foregroundBlur_3867_2397"/>
</filter>
<linearGradient id="paint0_linear_3867_2397" x1="93.75" y1="8.25" x2="29.25" y2="111" gradientUnits="userSpaceOnUse">
<stop stop-color="white" stop-opacity="0.47"/>
<stop offset="1" stop-color="#6546A6"/>
</linearGradient>
<clipPath id="clip0_3867_2397">
<rect width="59" height="59" fill="white" transform="translate(31 31)"/>
</clipPath>
</defs>
</svg>
