<svg width="134" height="130" viewBox="0 0 134 130" fill="none" xmlns="http://www.w3.org/2000/svg">
<g filter="url(#filter0_f_3867_2411)">
<rect x="24" y="20" width="90" height="90" rx="45" fill="#6546A6"/>
</g>
<circle cx="60" cy="60" r="59.75" fill="white" fill-opacity="0.1" stroke="url(#paint0_linear_3867_2411)" stroke-width="0.5"/>
<g clip-path="url(#clip0_3867_2411)">
<path d="M37.1776 32.8462C37.8516 28.504 40.5996 25.9233 44.4089 26.0018C48.0281 26.0767 50.7188 28.7395 51.2441 32.8408H68.6842C69.5285 28.454 72.0812 26.0018 75.7686 26C79.4775 25.9982 81.9853 28.4147 82.8493 32.8694C83.4499 32.9176 84.0755 32.914 84.6814 33.0264C87.8184 33.61 89.9749 36.1961 89.9857 39.4639C90.0108 46.2191 89.9946 52.9742 89.9946 59.7294C89.9946 67.4626 89.9982 75.1958 89.9946 82.9289C89.991 87.3693 87.3738 89.9964 82.939 89.9982C67.6284 90.0036 52.316 90.0053 37.0055 89.9982C32.6602 89.9929 30.0036 87.3372 30.0018 83.0128C30 68.8796 30 54.7465 30 40.6151C30 35.5322 32.0364 33.2995 37.1776 32.8462ZM51.2584 37.2402C50.7332 41.3397 48.055 44.1167 44.5792 44.0846C43.8496 44.0774 42.887 43.6384 42.4478 43.0762C41.4421 41.7876 42.455 40.1332 44.2673 39.8744C46.0599 39.6174 46.7895 38.866 46.7769 37.2009C43.2563 37.2009 39.7338 37.1759 36.2131 37.217C35.2021 37.2277 34.4152 37.888 34.3757 38.8446C34.2664 41.4414 34.3381 44.0471 34.3381 46.6813H85.7103C85.7103 44.2702 85.7336 41.9268 85.7031 39.5853C85.678 37.7631 84.6993 37.0242 82.8332 37.3419C82.152 41.2772 79.9883 43.6616 76.6989 44.0988C74.9762 44.3273 73.82 43.6348 73.6605 42.2784C73.5045 40.9452 74.313 40.1243 76.0393 39.8601C77.5253 39.6335 78.2316 38.8535 78.3714 37.2419H51.2584V37.2402ZM52.6961 69.8184C55.5517 69.8184 58.4091 69.8113 61.2647 69.822C62.2775 69.8255 63.12 69.5507 63.5753 68.5709C64.2906 67.0342 63.1738 65.5726 61.2001 65.5636C55.5768 65.5386 49.9534 65.5458 44.33 65.5583C42.6288 65.5618 41.6393 66.356 41.6142 67.6642C41.5891 69.0206 42.5876 69.8077 44.3928 69.8148C47.1605 69.8273 49.9265 69.8184 52.6943 69.8166L52.6961 69.8184ZM73.9455 69.7881V69.7827C74.7898 69.7827 75.6377 69.8398 76.4749 69.7684C77.6831 69.6649 78.3248 68.8725 78.3535 67.7356C78.3822 66.6559 77.796 65.7564 76.6738 65.6761C74.8651 65.5458 73.0349 65.5386 71.2261 65.66C70.0466 65.7385 69.421 66.6505 69.4766 67.7945C69.5321 68.9314 70.2079 69.6917 71.4144 69.7756C72.2533 69.8345 73.1012 69.7863 73.9455 69.7863V69.7881ZM73.8541 80.2965C74.6984 80.2965 75.5499 80.3679 76.3834 80.2804C77.6365 80.1484 78.4485 79.1703 78.3678 78.0352C78.289 76.9162 77.4787 76.122 76.2418 76.0863C74.6876 76.0399 73.1299 76.0399 71.5775 76.0863C70.3639 76.1238 69.5268 76.9484 69.4533 78.0477C69.378 79.1685 70.2079 80.1483 71.4574 80.2822C72.2479 80.3661 73.0546 80.2983 73.8541 80.2965ZM59.7051 56.1707C58.9056 56.1707 58.1025 56.1314 57.3066 56.1796C55.946 56.2617 55.1089 57.138 55.1412 58.3766C55.1716 59.5581 55.9962 60.379 57.3066 60.4147C58.816 60.4576 60.3289 60.4576 61.8383 60.4147C63.1308 60.379 63.984 59.5402 64.0181 58.3784C64.0558 57.1701 63.1828 56.2653 61.8383 56.1778C61.1302 56.1314 60.4168 56.1689 59.7051 56.1707ZM59.5581 76.0881C59.5581 76.0881 59.5581 76.0828 59.5581 76.0792C58.7586 76.0792 57.9573 76.0417 57.1596 76.0881C55.9747 76.1577 55.2595 76.8127 55.1573 77.9906C55.0533 79.1685 55.6359 80.0948 56.7957 80.1894C58.6421 80.3411 60.5208 80.3429 62.3653 80.1805C63.518 80.0787 64.1059 79.1311 63.9912 77.9656C63.8837 76.8734 63.2204 76.1809 62.0875 76.1006C61.2485 76.0417 60.4006 76.0881 59.5581 76.0881ZM73.881 61.482C75.67 61.4998 77.1256 60.081 77.1274 58.3177C77.1292 56.5776 75.6305 55.0927 73.8917 55.1123C72.1941 55.1302 70.7565 56.5472 70.7188 58.2409C70.6794 60.0078 72.0991 61.4659 73.881 61.4838V61.482ZM45.6099 75.0119C43.8604 75.0316 42.4657 76.4165 42.4532 78.1477C42.4406 79.9163 43.9285 81.3977 45.6906 81.3709C47.4689 81.3441 48.8743 79.861 48.8241 78.0656C48.7739 76.3094 47.3864 74.9905 45.6099 75.0119ZM45.5974 60.4201C46.2642 60.4201 46.9347 60.4558 47.5979 60.4129C48.8043 60.3362 49.6182 59.5152 49.6594 58.3944C49.7006 57.2718 48.9477 56.2992 47.7628 56.2171C46.3467 56.1189 44.9144 56.1171 43.4983 56.2206C42.342 56.3045 41.5533 57.3486 41.6178 58.4283C41.6841 59.5313 42.5231 60.3415 43.7277 60.4147C44.3479 60.4522 44.9718 60.4219 45.5956 60.4201H45.5974ZM46.7948 32.8801C46.7446 31.306 45.8466 30.3511 44.3766 30.2744C42.8457 30.1941 41.806 31.1614 41.6232 32.8801H46.7948ZM73.189 32.8337H78.4109C78.0721 31.0704 77.1238 30.2137 75.6628 30.2744C74.209 30.3333 73.3091 31.2578 73.189 32.8337Z" fill="white"/>
</g>
<defs>
<filter id="filter0_f_3867_2411" x="4" y="0" width="130" height="130" filterUnits="userSpaceOnUse" color-interpolation-filters="sRGB">
<feFlood flood-opacity="0" result="BackgroundImageFix"/>
<feBlend mode="normal" in="SourceGraphic" in2="BackgroundImageFix" result="shape"/>
<feGaussianBlur stdDeviation="10" result="effect1_foregroundBlur_3867_2411"/>
</filter>
<linearGradient id="paint0_linear_3867_2411" x1="93.75" y1="8.25" x2="29.25" y2="111" gradientUnits="userSpaceOnUse">
<stop stop-color="white" stop-opacity="0.47"/>
<stop offset="1" stop-color="#6546A6"/>
</linearGradient>
<clipPath id="clip0_3867_2411">
<rect width="60" height="64" fill="white" transform="translate(30 26)"/>
</clipPath>
</defs>
</svg>
