<svg width="134" height="130" viewBox="0 0 134 130" fill="none" xmlns="http://www.w3.org/2000/svg">
<g filter="url(#filter0_f_3867_2117)">
<rect x="24" y="20" width="90" height="90" rx="45" fill="#6546A6"/>
</g>
<circle cx="60" cy="60" r="59.75" fill="white" fill-opacity="0.1" stroke="url(#paint0_linear_3867_2117)" stroke-width="0.5"/>
<g clip-path="url(#clip0_3867_2117)">
<path d="M54.9064 37.9364C49.7768 38.0646 45.1919 39.5626 41.2705 42.7943C37.0381 46.2826 34.443 50.7772 33.7004 56.1863C32.8307 62.5256 34.5652 68.1987 38.8084 73.021C43.0399 77.831 48.4921 80.106 54.9064 80.2806C54.9064 80.485 54.9089 80.634 54.9064 80.7838C54.8806 82.0782 54.8316 83.3725 54.8324 84.6668C54.8341 86.1433 54.8831 87.6188 54.9047 89.0953C54.9131 89.6828 54.7958 89.7524 54.198 89.6357C53.8462 89.567 53.4829 89.5446 53.1236 89.5264C52.3711 89.4884 51.6086 89.5322 50.8678 89.423C49.8009 89.2657 48.7491 89.0042 47.6922 88.7816C47.1725 88.6724 46.647 88.578 46.1398 88.4266C45.5345 88.2453 44.9449 88.0103 44.3496 87.7951C43.8656 87.6197 43.3784 87.4525 42.9019 87.258C42.2234 86.9808 41.5441 86.7019 40.883 86.3866C40.3118 86.1135 39.7413 85.8263 39.215 85.4787C38.1207 84.7562 37.0389 84.0139 35.9846 83.2343C35.2013 82.6558 34.4197 82.0575 33.7295 81.3764C32.6852 80.3452 31.6624 79.2801 30.7394 78.143C29.9029 77.1126 29.1621 75.9946 28.4711 74.8599C27.7768 73.7204 27.1556 72.5311 26.5819 71.327C26.206 70.5383 25.9549 69.6875 25.6747 68.8558C25.4194 68.0977 25.1575 67.3372 24.9754 66.5593C24.7135 65.4428 24.4316 64.3339 24.3884 63.1662C24.341 61.8933 24.1181 60.6288 24.0092 59.3568C23.9726 58.9314 24.0491 58.4953 24.0815 58.0649C24.0973 57.8597 24.1356 57.6569 24.1555 57.4517C24.2678 56.3146 24.3443 55.1733 24.4981 54.0428C24.6154 53.1805 24.7842 52.319 25.0087 51.4773C25.3055 50.365 25.619 49.2503 26.0356 48.1786C26.4622 47.0828 26.9777 46.0153 27.5373 44.9791C28.1102 43.9182 28.7629 42.8977 29.4198 41.8848C29.9112 41.1275 30.4151 40.3686 31.0014 39.6851C31.7722 38.7863 32.5904 37.9206 33.4576 37.1146C34.4821 36.1628 35.5597 35.2633 36.6564 34.3935C37.2136 33.9515 37.8571 33.6147 38.4725 33.2489C39.4212 32.6853 40.3542 32.0862 41.342 31.5979C42.2325 31.1576 43.1846 30.8365 44.1167 30.4823C44.7986 30.2224 45.4821 29.9551 46.1847 29.7623C46.9888 29.5413 47.8195 29.4205 48.6293 29.2177C49.904 28.8983 51.1937 28.7336 52.5083 28.7137C53.1577 28.7038 53.8063 28.6161 54.4541 28.5524C54.7775 28.5209 54.9089 28.6533 54.9081 28.9711C54.9039 30.8158 54.9056 32.6605 54.9056 34.5052C54.9056 35.4859 54.9056 36.4666 54.9056 37.4473C54.9056 37.5979 54.9056 37.7485 54.9056 37.9347L54.9064 37.9364Z" fill="white"/>
<path d="M54.7843 41.1247V77.1321C54.2089 77.1073 53.6135 77.1065 53.024 77.0486C52.3821 76.9857 51.7393 76.9029 51.109 76.7697C50.3948 76.6199 49.6772 76.4527 48.9928 76.2061C48.0649 75.8717 47.1369 75.5134 46.2655 75.0582C45.3849 74.5981 44.5301 74.0618 43.7419 73.4585C42.8879 72.8055 42.0406 72.1087 41.3405 71.3018C40.2903 70.0927 39.28 68.8331 38.6289 67.3418C38.2481 66.4687 37.7957 65.6196 37.4972 64.72C37.2095 63.8519 37.1089 62.9241 36.8686 62.0386C36.5402 60.8246 36.6358 59.5915 36.6291 58.3633C36.6225 57.2204 36.7904 56.0974 37.1147 54.9984C37.2935 54.3909 37.4207 53.7653 37.6436 53.1752C37.9379 52.3948 38.2606 51.6177 38.6505 50.8811C39.097 50.037 39.5851 49.2069 40.1381 48.4281C40.9197 47.3266 41.7945 46.2955 42.8962 45.4819C43.4932 45.0417 44.0628 44.5625 44.6748 44.1454C45.2602 43.7457 45.8589 43.3501 46.4975 43.048C47.4121 42.616 48.3517 42.2179 49.313 41.9043C50.0954 41.6494 50.9419 41.5939 51.731 41.3548C52.7446 41.0477 53.764 41.1768 54.7851 41.123L54.7843 41.1247Z" fill="white"/>
<path d="M61.3138 37.8385C61.3138 40.62 61.3138 43.4007 61.3138 46.1822C61.3138 46.7574 61.5965 47.0843 62.1121 47.0611C62.5644 47.0413 62.9303 46.6316 62.9286 46.1673C62.907 40.6325 62.9195 35.0984 62.9087 29.5635C62.907 28.8857 63.2587 28.414 63.7934 28.1566C64.3705 27.8785 65.0116 27.9729 65.5088 28.4231C65.799 28.6854 65.9545 29.038 65.9536 29.4633C65.9453 34.9982 65.9495 40.5323 65.947 46.0672C65.947 46.774 66.3578 47.1356 67.0271 47.0073C67.3448 46.9461 67.5136 46.764 67.5452 46.4678C67.5909 46.0316 67.63 45.593 67.6308 45.1552C67.6366 40.0399 67.6333 34.9246 67.6375 29.8093C67.6375 29.5296 67.6466 29.2382 67.7223 28.9726C67.8844 28.4032 68.4565 27.9828 68.9695 28.054C69.5657 28.1376 70.0488 28.4289 70.1661 29.1323C70.2018 29.3483 70.2326 29.566 70.2451 29.7845C70.3332 31.332 70.408 32.8805 70.5037 34.428C70.5743 35.585 70.6708 36.7411 70.7523 37.8981C70.8396 39.1387 70.9202 40.3792 71.0067 41.6198C71.0882 42.7908 71.1631 43.9618 71.2628 45.1312C71.321 45.814 71.4782 46.4926 71.4882 47.1745C71.4965 47.7679 71.3784 48.3654 71.282 48.9555C71.2279 49.2857 71.1057 49.6043 71.0117 49.9279C70.7639 50.7795 70.2343 51.4589 69.5582 51.9878C68.7567 52.6142 67.8611 53.1199 67.0446 53.729C66.4792 54.1511 66.0983 54.7453 66.1266 55.4777C66.1807 56.8879 66.2846 58.2956 66.3669 59.705C66.3694 59.7472 66.3694 59.7886 66.3702 59.8308C66.3985 61.1673 66.4101 62.5039 66.4584 63.8396C66.5282 65.7704 66.618 67.7003 66.7103 69.6311C66.7527 70.5149 66.8301 71.3971 66.8733 72.281C66.9648 74.1282 67.0463 75.9762 67.1277 77.8242C67.1618 78.6013 67.181 79.3784 67.2134 80.1555C67.2957 82.1003 67.3198 84.0501 67.4928 85.9858C67.5759 86.9144 67.6142 87.814 67.3764 88.7061C67.1394 89.5966 66.154 90.5285 65.0989 90.732C64.2807 90.8893 63.5822 90.7718 62.9037 90.3911C62.0364 89.9045 61.4485 89.1737 61.4086 88.1558C61.3604 86.9111 61.3662 85.6622 61.4045 84.4167C61.461 82.5737 61.5649 80.7323 61.6506 78.8901C61.7337 77.0976 61.8194 75.3058 61.9034 73.5133C61.9882 71.6992 62.073 69.8851 62.1561 68.0711C62.241 66.2189 62.3241 64.3676 62.4098 62.5155C62.4929 60.6973 62.5777 58.8782 62.6625 57.06C62.6875 56.5345 62.7124 56.0082 62.7474 55.4835C62.8022 54.6468 62.3158 54.1039 61.7063 53.6611C60.9987 53.1472 60.2146 52.7326 59.5344 52.188C58.6131 51.4498 57.9387 50.5014 57.6469 49.3411C57.35 48.1627 57.3176 46.9693 57.5878 45.7759C57.6061 45.6956 57.6028 45.6104 57.6061 45.5268C57.6352 44.6239 57.6452 43.7202 57.6951 42.8181C57.7625 41.5908 57.8581 40.3651 57.9446 39.1387C58.0269 37.9685 58.1134 36.7974 58.1957 35.6272C58.2813 34.4148 58.3586 33.2016 58.4518 31.99C58.5258 31.0283 58.6222 30.0683 58.7004 29.1067C58.7603 28.3701 59.9194 27.809 60.553 28.2005C61.0893 28.5323 61.3163 29.0057 61.3155 29.6189C61.3122 32.3582 61.3138 35.0976 61.3138 37.8369V37.8385Z" fill="white"/>
<path d="M74.7971 85.2764C74.7971 84.41 74.7854 83.5426 74.7996 82.6762C74.8328 80.6866 74.8827 78.698 74.9193 76.7084C74.9659 74.1578 74.9517 71.6055 75.0681 69.0582C75.1554 67.1457 75.0947 65.2364 75.1338 63.3264C75.192 60.4811 75.2494 57.6367 75.3018 54.7915C75.3342 53.0362 75.3517 51.28 75.3883 49.5239C75.4373 47.181 75.5088 44.8381 75.5521 42.4952C75.5928 40.2897 75.5986 38.0842 75.6427 35.8787C75.6818 33.9272 75.7417 31.9758 75.819 30.0251C75.8306 29.7404 75.9537 29.4425 76.0909 29.1843C76.2165 28.9468 76.4742 28.8971 76.6929 29.0775C77.186 29.4839 77.7107 29.8679 78.1306 30.3413C78.6919 30.9752 79.2257 31.6497 79.6631 32.3722C80.1886 33.2378 80.6434 34.1531 81.0508 35.0809C81.4358 35.9589 81.7518 36.8709 82.0387 37.7862C82.2815 38.5633 82.4428 39.3661 82.634 40.1589C82.7929 40.8169 82.9666 41.4723 83.0905 42.1369C83.2178 42.8188 83.2926 43.5115 83.3915 44.1984C83.5237 45.1187 83.6693 46.0364 83.7865 46.9584C83.848 47.4375 83.8771 47.9233 83.8938 48.4067C83.9395 49.7432 83.9977 51.0806 84.0002 52.418C84.0019 53.5799 83.9669 54.7443 83.8855 55.9029C83.8331 56.6494 83.4256 57.2593 82.8386 57.7186C82.0595 58.3278 81.2504 58.8988 80.463 59.498C79.6481 60.1178 79.1558 60.962 78.8598 61.9203C78.7725 62.2042 78.7575 62.5211 78.7617 62.8215C78.7775 64.0886 78.77 65.3573 78.8523 66.621C78.938 67.9236 79.1234 69.2196 79.2556 70.5198C79.3005 70.96 79.3171 71.4028 79.3446 71.8447C79.402 72.7683 79.4435 73.6936 79.5175 74.6163C79.6148 75.8246 79.7387 77.0304 79.846 78.2386C79.9092 78.9529 79.9624 79.6679 80.0189 80.3829C80.1312 81.8006 80.2476 83.2174 80.3507 84.6351C80.3765 84.9967 80.3366 85.3625 80.3607 85.725C80.4014 86.33 80.5262 86.9341 80.5095 87.5358C80.4912 88.2119 80.2667 88.8541 79.9591 89.4698C79.6431 90.1013 79.1791 90.6011 78.5355 90.8254C77.8038 91.0803 77.028 91.0952 76.3428 90.6036C75.2943 89.8513 74.7098 88.8731 74.7871 87.5399C74.8303 86.7876 74.7946 86.0304 74.7946 85.2756L74.7971 85.2764Z" fill="white"/>
</g>
<defs>
<filter id="filter0_f_3867_2117" x="4" y="0" width="130" height="130" filterUnits="userSpaceOnUse" color-interpolation-filters="sRGB">
<feFlood flood-opacity="0" result="BackgroundImageFix"/>
<feBlend mode="normal" in="SourceGraphic" in2="BackgroundImageFix" result="shape"/>
<feGaussianBlur stdDeviation="10" result="effect1_foregroundBlur_3867_2117"/>
</filter>
<linearGradient id="paint0_linear_3867_2117" x1="93.75" y1="8.25" x2="29.25" y2="111" gradientUnits="userSpaceOnUse">
<stop stop-color="white" stop-opacity="0.47"/>
<stop offset="1" stop-color="#6546A6"/>
</linearGradient>
<clipPath id="clip0_3867_2117">
<rect width="60" height="63" fill="white" transform="translate(24 28)"/>
</clipPath>
</defs>
</svg>
