<svg width="134" height="130" viewBox="0 0 134 130" fill="none" xmlns="http://www.w3.org/2000/svg">
<g filter="url(#filter0_f_3867_2940)">
<rect x="24" y="20" width="90" height="90" rx="45" fill="#E26F00"/>
</g>
<circle cx="60" cy="60" r="59.75" fill="white" fill-opacity="0.1" stroke="url(#paint0_linear_3867_2940)" stroke-width="0.5"/>
<g clip-path="url(#clip0_3867_2940)">
<path d="M37.3916 83.5517C36.9901 85.4749 37.522 87.1579 38.9793 88.613C39.5011 88.1998 39.9964 87.8071 40.4856 87.4204C38.4678 84.3759 39.7416 80.9265 43.4675 79.276C44.7189 78.7225 46.0641 78.2747 47.393 78.8466C48.2796 79.2292 49.0297 79.9313 49.9489 80.5662C50.2873 80.3241 50.7968 79.9557 51.3288 79.5731C51.2045 79.3676 51.125 79.219 51.0312 79.0827C50.0814 77.707 50.0672 77.6968 50.9966 76.2865C52.5273 73.9644 54.702 72.4076 57.2437 71.0665C58.4931 72.3567 59.7343 73.6409 60.9654 74.9128C61.4566 74.4122 61.8969 73.9624 62.4349 73.4129C61.3995 72.428 60.3071 71.3901 59.1106 70.2504C61.905 69.2024 64.5526 68.6488 67.3205 69.1393C69.1916 69.471 69.8886 70.0795 70.9893 72.0942C71.5763 71.8235 72.1714 71.5508 72.7768 71.2741C71.6252 67.9202 68.8695 67.1856 66.0691 66.9007C66.7192 64.196 67.3878 61.5362 67.9768 58.858C68.0971 58.3106 67.9238 57.7001 67.881 57.0611C69.4158 57.6553 70.8384 57.4131 71.988 55.9621C71.6109 55.49 71.2196 54.9975 70.8996 54.5966C70.2698 54.8449 69.6441 55.3333 69.163 55.2193C68.5883 55.083 68.0257 54.5091 67.6507 53.9861C66.12 51.8533 65.4413 49.3847 65.0275 46.8348C64.5628 43.9796 64.4446 41.1162 65.1254 38.2773C65.2884 37.5975 65.5452 36.9219 65.8754 36.3073C66.5236 35.0944 67.1024 34.9926 68.2051 35.7802C68.3661 35.8962 68.5251 36.0183 68.7371 36.1771C69.1467 35.6601 69.5442 35.1616 69.9396 34.663C68.3274 32.9169 66.8293 32.7337 64.8461 34.142C65.0112 32.0601 65.5065 30.1675 66.2382 28.3339C66.3055 28.1629 66.6662 28.0123 66.8904 28.0123C74.5174 27.9981 82.1423 28.0001 89.9119 28.0001C90.0199 29.9049 90.128 31.7792 90.2523 33.967C89.0579 32.4915 87.782 31.8952 86.1229 32.6503C86.2737 33.2608 86.4225 33.8733 86.5713 34.4737C88.0857 34.3821 88.2712 34.4859 88.9499 35.9267C90.0607 38.2834 90.4724 40.8252 90.7109 43.3772C91.2714 49.3705 91.0574 55.3434 89.704 61.2228C89.276 63.0808 88.5035 64.8595 87.8676 66.6666C87.7698 66.9475 87.5782 67.1998 87.4029 67.4481C86.4694 68.7689 86.0862 68.775 85.0671 67.4949C84.9836 67.3911 84.9 67.2853 84.7532 67.1042C84.2213 67.5153 83.7056 67.9162 83.1961 68.311C84.8327 70.8141 85.9436 71.0665 88.3588 69.587V74.4895C87.2602 73.8993 87.144 75.2058 86.4062 75.5681C87.3621 76.5266 88.1754 77.4892 89.1374 78.2686C90.2197 79.1458 90.7252 80.2447 90.823 81.5614C90.9086 82.7051 91.0166 83.8671 90.8984 84.9986C90.7068 86.8302 89.4044 87.8905 86.9993 88.149C84.8144 88.383 82.609 88.4359 80.4139 88.5784C74.3299 88.9691 68.2479 89.37 62.1639 89.7587C55.4745 90.1861 48.7872 90.7009 42.0917 90.9798C38.9508 91.11 35.7875 90.7009 32.8138 89.5776C31.7132 89.1624 30.6227 88.497 29.7748 87.685C28.4296 86.3968 28.9045 84.8643 30.6859 84.2965C31.2301 84.1236 31.7988 83.9831 32.3633 83.9323C34.0061 83.7796 35.655 83.6799 37.3916 83.5537V83.5517Z" fill="white"/>
</g>
<defs>
<filter id="filter0_f_3867_2940" x="4" y="0" width="130" height="130" filterUnits="userSpaceOnUse" color-interpolation-filters="sRGB">
<feFlood flood-opacity="0" result="BackgroundImageFix"/>
<feBlend mode="normal" in="SourceGraphic" in2="BackgroundImageFix" result="shape"/>
<feGaussianBlur stdDeviation="10" result="effect1_foregroundBlur_3867_2940"/>
</filter>
<linearGradient id="paint0_linear_3867_2940" x1="93.75" y1="8.25" x2="29.25" y2="111" gradientUnits="userSpaceOnUse">
<stop stop-color="white" stop-opacity="0.47"/>
<stop offset="1" stop-color="#E97300"/>
</linearGradient>
<clipPath id="clip0_3867_2940">
<rect width="62" height="63" fill="white" transform="translate(29 28)"/>
</clipPath>
</defs>
</svg>
