<svg width="134" height="130" viewBox="0 0 134 130" fill="none" xmlns="http://www.w3.org/2000/svg">
<g filter="url(#filter0_f_3867_1768)">
<rect x="24" y="20" width="90" height="90" rx="45" fill="#6546A6"/>
</g>
<circle cx="60" cy="60" r="59.75" fill="white" fill-opacity="0.1" stroke="url(#paint0_linear_3867_1768)" stroke-width="0.5"/>
<path d="M82.0144 90.4887C77.5299 91.2723 73.1717 91.2509 69.006 89.7479C66.2318 88.7472 63.5939 87.2846 61.0297 85.793C59.6758 85.0056 58.3906 84.4238 56.8216 84.3834C44.092 84.0541 33.4815 75.2344 30.6623 62.6732C27.0855 46.74 38.4161 30.8145 54.5112 29.1525C69.8311 27.5713 83.2446 38.4567 84.8323 53.8952C85.5049 60.4396 84.1835 66.671 80.3366 72.0254C76.2772 77.675 76.7435 85.4738 81.8118 90.0684C81.8693 90.1214 81.8868 90.2199 82.0156 90.4899L82.0144 90.4887ZM63.7777 50.3403C63.7777 48.142 63.7877 46.1028 63.7752 44.0635C63.7639 42.0898 63.3439 41.6633 61.4348 41.657C59.1882 41.6507 56.9428 41.6557 54.6962 41.657C52.1345 41.6582 51.8332 41.9687 51.8307 44.6187C51.8282 46.4788 51.8307 48.3389 51.8307 50.3403C49.5816 50.3403 47.5188 50.334 45.4572 50.3428C43.7594 50.3504 43.2206 50.8804 43.2069 52.6156C43.1881 55.0133 43.1969 57.4122 43.2031 59.8111C43.2081 61.9488 43.6694 62.4056 45.7898 62.4044C47.7601 62.4044 49.7317 62.4044 51.622 62.4044C51.7282 62.6795 51.7857 62.759 51.787 62.8385C51.807 64.8866 51.7982 66.936 51.8433 68.9841C51.8783 70.5842 52.3983 71.0865 53.9848 71.0978C56.3602 71.1155 58.7369 71.1029 61.1122 71.1041C63.4614 71.1041 63.7739 70.7861 63.7789 68.3582C63.7827 66.4098 63.7789 64.4601 63.7789 62.4031C66.0818 62.4031 68.1921 62.4157 70.3025 62.3993C71.8377 62.3867 72.4216 61.8138 72.4353 60.2654C72.4578 57.6923 72.4566 55.1193 72.4353 52.5474C72.4216 50.9132 71.854 50.3555 70.2387 50.3441C68.1684 50.3302 66.098 50.3403 63.7764 50.3403H63.7777Z" fill="white"/>
<defs>
<filter id="filter0_f_3867_1768" x="4" y="0" width="130" height="130" filterUnits="userSpaceOnUse" color-interpolation-filters="sRGB">
<feFlood flood-opacity="0" result="BackgroundImageFix"/>
<feBlend mode="normal" in="SourceGraphic" in2="BackgroundImageFix" result="shape"/>
<feGaussianBlur stdDeviation="10" result="effect1_foregroundBlur_3867_1768"/>
</filter>
<linearGradient id="paint0_linear_3867_1768" x1="93.75" y1="8.25" x2="29.25" y2="111" gradientUnits="userSpaceOnUse">
<stop stop-color="white" stop-opacity="0.47"/>
<stop offset="1" stop-color="#6546A6"/>
</linearGradient>
</defs>
</svg>
