<svg width="134" height="130" viewBox="0 0 134 130" fill="none" xmlns="http://www.w3.org/2000/svg">
<g filter="url(#filter0_f_3867_3552)">
<rect x="24" y="20" width="90" height="90" rx="45" fill="#E26F00"/>
</g>
<path d="M60 0.25C92.999 0.25 119.75 27.001 119.75 60C119.75 92.999 92.999 119.75 60 119.75C27.001 119.75 0.25 92.999 0.25 60C0.25 27.001 27.001 0.25 60 0.25Z" fill="white" fill-opacity="0.1" stroke="url(#paint0_linear_3867_3552)" stroke-width="0.5"/>
<g clip-path="url(#clip0_3867_3552)">
<path d="M55.7955 97.4832C54.6087 86.4508 43.9129 83.1476 37.1375 89.4673C33.3533 86.6041 30.3912 82.9695 28.2851 78.7069C22.142 66.29 22.4873 53.9719 30.114 42.4105C37.7357 30.8391 48.845 25.7012 62.4397 26.9869C66.6275 27.3825 70.6792 29.3408 74.7843 30.6166C75.9614 30.9825 76.2192 31.749 76.0441 33.0693C75.1734 39.6413 80.1444 45.3181 86.7253 45.0659C88.9676 44.9819 89.8674 45.7978 90.7088 47.7165C99.8287 68.4905 87.0949 92.9535 65.037 96.7612C62.0505 97.2755 58.9668 97.2458 55.7955 97.4782V97.4832ZM66.2724 60.3263C69.2054 57.8933 70.29 54.9708 68.8941 51.539C67.4884 48.0725 64.5166 47.0291 61.0729 47.0143C56.9629 46.9994 52.8528 47.0044 48.7477 46.9549C47.6582 46.9401 47.0599 47.217 47.0648 48.478C47.0939 57.0477 47.055 65.6125 47.1329 74.1822C47.1329 74.6916 47.9208 75.6311 48.3342 75.6311C53.6894 75.6163 59.0544 75.6212 64.3998 75.2949C67.1625 75.1267 69.0935 73.2971 70.1782 70.6812C71.8854 66.5669 70.6646 63.2092 66.2773 60.3263H66.2724Z" fill="white"/>
<path d="M94.3714 34.3655C94.3811 38.8259 90.9812 42.322 86.6085 42.3468C82.3186 42.3715 78.7338 38.7765 78.6998 34.4199C78.6706 30.1227 82.2748 26.4386 86.5599 26.3892C90.811 26.3397 94.3617 29.9694 94.3714 34.3704V34.3655Z" fill="white"/>
<path d="M37.084 97.0292C37.084 92.6133 40.6152 89.0281 44.9246 89.0529C49.1125 89.0825 52.7215 92.7814 52.7945 97.1281C52.8674 101.356 49.1709 105.015 44.8371 105.001C40.4352 104.986 37.084 101.539 37.084 97.0292Z" fill="white"/>
<path d="M33.9954 92.0887C33.9467 94.0419 32.2638 95.6392 30.2842 95.5996C28.3338 95.565 26.6752 93.8392 26.7335 91.9057C26.7919 89.9475 28.4894 88.3403 30.4544 88.3898C32.3952 88.4343 34.044 90.1601 33.9954 92.0837V92.0887Z" fill="white"/>
<path d="M99.4542 44.0732C97.4746 44.1276 95.8354 42.56 95.7771 40.5424C95.7187 38.5446 97.2897 36.8782 99.2742 36.8386C101.239 36.799 102.976 38.4408 103 40.3545C103.024 42.3325 101.419 44.0138 99.4542 44.0732Z" fill="white"/>
<path d="M80.052 23.4858C80.0374 25.2017 78.3155 26.9374 76.6618 26.8978C74.9108 26.8583 73.2619 25.2165 73.2473 23.5056C73.2327 21.6759 74.9497 19.9649 76.7591 19.9995C78.4761 20.0342 80.0666 21.7155 80.0471 23.4858H80.052Z" fill="white"/>
<path d="M53.203 70.4547V63.5119C56.0728 63.5119 58.8403 63.3191 61.5739 63.5713C63.7481 63.774 64.7646 65.3465 64.6138 67.4036C64.4825 69.2284 63.1692 70.3954 61.0291 70.4399C58.4756 70.4943 55.922 70.4547 53.2079 70.4547H53.203Z" fill="white"/>
<path d="M53.1593 58.0659V51.8945C56.0582 52.0379 58.8987 51.9786 61.6468 52.4484C62.4445 52.5868 63.427 54.194 63.5486 55.2225C63.7286 56.7604 62.5613 57.9275 61.0145 58.0214C58.4755 58.1797 55.9171 58.0659 53.1593 58.0659Z" fill="white"/>
</g>
<defs>
<filter id="filter0_f_3867_3552" x="4" y="0" width="130" height="130" filterUnits="userSpaceOnUse" color-interpolation-filters="sRGB">
<feFlood flood-opacity="0" result="BackgroundImageFix"/>
<feBlend mode="normal" in="SourceGraphic" in2="BackgroundImageFix" result="shape"/>
<feGaussianBlur stdDeviation="10" result="effect1_foregroundBlur_3867_3552"/>
</filter>
<linearGradient id="paint0_linear_3867_3552" x1="93.75" y1="8.25" x2="29.25" y2="111" gradientUnits="userSpaceOnUse">
<stop stop-color="white" stop-opacity="0.47"/>
<stop offset="1" stop-color="#E97300"/>
</linearGradient>
<clipPath id="clip0_3867_3552">
<rect width="79" height="85" fill="white" transform="translate(24 20)"/>
</clipPath>
</defs>
</svg>
