<svg width="134" height="130" viewBox="0 0 134 130" fill="none" xmlns="http://www.w3.org/2000/svg">
<g filter="url(#filter0_f_3867_3538)">
<rect x="24" y="20" width="90" height="90" rx="45" fill="#6546A6"/>
</g>
<circle cx="60" cy="60" r="59.75" fill="white" fill-opacity="0.1" stroke="url(#paint0_linear_3867_3538)" stroke-width="0.5"/>
<g clip-path="url(#clip0_3867_3538)">
<path d="M59.3347 71.3546C59.2027 72.1557 59.062 72.9372 58.9459 73.7219C58.5792 76.2006 58.2227 78.6809 57.86 81.1604C57.5439 83.3182 57.5265 85.4705 57.7968 87.6409C58.105 90.1157 58.3366 92.6007 58.546 95.0857C58.7293 97.2584 58.8582 99.4366 58.9672 101.615C59.0281 102.829 58.9743 104.046 58.5681 105.215C57.9675 106.943 56.3869 107.496 54.8118 106.522C53.7702 105.878 53.1783 104.877 52.8653 103.758C52.4275 102.19 52.0513 100.599 51.7676 98.9964C51.1756 95.6561 50.6643 92.3017 50.1135 88.9536C49.7705 86.8696 49.8053 84.7628 49.7049 82.6638C49.5658 79.7669 49.4069 76.8715 49.2773 73.9738C49.1936 72.0945 49.1003 70.2137 49.0916 68.3337C49.0671 62.7281 49.0861 57.1225 49.0719 51.5162C49.0719 51.2667 48.9739 50.974 48.8221 50.7755C46.0387 47.1158 43.3382 43.3981 40.9808 39.4498C40.1501 38.0586 39.393 36.6234 38.6415 35.1875C38.1831 34.3118 37.814 33.375 38.0993 32.3706C38.2574 31.8151 38.5356 31.2792 38.8406 30.7825C41.975 25.672 45.3788 20.7373 48.8435 15.845C49.4354 15.0094 50.1119 14.2475 50.9591 13.6441C52.648 12.4412 54.8821 13.6872 55.1208 15.2165C55.2386 15.9729 55.0687 16.6815 54.6917 17.3249C53.7805 18.8816 52.8471 20.4258 51.9067 21.9661C49.9997 25.0922 48.0745 28.208 46.1738 31.338C45.6799 32.1517 45.3756 33.0234 45.7534 33.9839C45.8387 34.202 45.9375 34.4193 46.0616 34.6171C47.7212 37.2669 49.3793 39.9174 51.0563 42.5562C51.3708 43.0513 51.7771 43.4876 52.12 43.9662C52.4694 44.4543 52.9586 44.6811 53.5307 44.7085C55.0141 44.7791 56.4991 44.8466 57.9841 44.867C59.8263 44.8929 61.6693 44.8756 63.5114 44.8662C63.9184 44.8639 64.3255 44.8152 64.7317 44.7846C65.4983 44.7273 66.0736 44.3609 66.4608 43.7081C67.2883 42.3145 68.1853 40.9555 68.9163 39.5141C69.8663 37.6411 70.6818 35.7015 71.5583 33.7916C71.9708 32.8916 71.9408 32.0073 71.5267 31.1112C70.3934 28.6576 69.3099 26.1797 68.1379 23.7441C67.0504 21.4835 65.876 19.2645 64.7396 17.0275C64.4274 16.4123 64.2109 15.7634 64.2599 15.0729C64.3752 13.4251 66.2617 12.4757 67.7411 13.3059C68.5085 13.7359 69.0728 14.3801 69.5035 15.1192C70.4985 16.8243 71.4793 18.5387 72.4221 20.2728C74.3702 23.8563 76.2677 27.4673 78.2308 31.043C78.9302 32.3157 79.0946 33.6143 78.5517 34.92C77.7463 36.8581 76.892 38.7828 75.9389 40.6534C74.0612 44.3366 71.9092 47.8668 69.7027 51.364C69.6102 51.5107 69.532 51.6959 69.5296 51.8646C69.464 55.9142 69.4118 59.9646 69.3478 64.0149C69.3431 64.3139 69.4134 64.4991 69.6924 64.674C73.6297 67.152 77.269 69.9995 80.4863 73.3602C80.7764 73.663 81.0656 73.9698 81.3169 74.3033C82.1744 75.4411 82.2147 76.6683 81.4845 77.8884C80.9992 78.699 80.2627 79.2459 79.5308 79.8006C76.1744 82.3437 72.8275 84.8985 69.4529 87.4172C68.1497 88.3894 66.7936 89.2981 65.2406 89.8536C64.3824 90.1612 63.5091 90.4099 62.582 90.1973C61.855 90.0309 61.4527 89.6213 61.3745 88.8869C61.2346 87.5703 61.497 86.3478 62.4801 85.3905C65.0162 82.9212 67.5744 80.4746 70.1239 78.0179C70.3033 77.8453 70.4906 77.6789 70.6573 77.4945C71.1133 76.9876 71.0699 76.6432 70.4961 76.2846C70.2519 76.1324 69.9951 75.9958 69.7311 75.8805C66.3415 74.3928 62.9503 72.9106 59.5591 71.4276C59.5007 71.4017 59.4366 71.3875 59.3347 71.3546Z" fill="white"/>
<path d="M51.756 35.4533C51.7591 31.2986 55.1582 27.9316 59.3444 27.9356C63.5307 27.9395 66.9203 31.3119 66.9171 35.4698C66.9139 39.6245 63.5149 42.9931 59.3286 42.9891C55.1448 42.9852 51.752 39.6096 51.756 35.4541V35.4533Z" fill="white"/>
</g>
<defs>
<filter id="filter0_f_3867_3538" x="4" y="0" width="130" height="130" filterUnits="userSpaceOnUse" color-interpolation-filters="sRGB">
<feFlood flood-opacity="0" result="BackgroundImageFix"/>
<feBlend mode="normal" in="SourceGraphic" in2="BackgroundImageFix" result="shape"/>
<feGaussianBlur stdDeviation="10" result="effect1_foregroundBlur_3867_3538"/>
</filter>
<linearGradient id="paint0_linear_3867_3538" x1="93.75" y1="8.25" x2="29.25" y2="111" gradientUnits="userSpaceOnUse">
<stop stop-color="white" stop-opacity="0.47"/>
<stop offset="1" stop-color="#6546A6"/>
</linearGradient>
<clipPath id="clip0_3867_3538">
<rect width="44" height="94" fill="white" transform="translate(38 13)"/>
</clipPath>
</defs>
</svg>
