<svg width="134" height="130" viewBox="0 0 134 130" fill="none" xmlns="http://www.w3.org/2000/svg">
<g filter="url(#filter0_f_3867_2911)">
<rect x="24" y="20" width="90" height="90" rx="45" fill="#6546A6"/>
</g>
<circle cx="60" cy="60" r="59.75" fill="white" fill-opacity="0.1" stroke="url(#paint0_linear_3867_2911)" stroke-width="0.5"/>
<g clip-path="url(#clip0_3867_2911)">
<path d="M60.512 90.9959C51.4431 90.9959 42.3743 91.0018 33.3055 90.9826C32.6519 90.9826 31.9446 90.907 31.358 90.6523C30.1118 90.1104 29.5371 89.0442 29.4686 87.7056C29.2483 83.3743 29.0383 79.0431 28.8105 74.7133C28.3907 66.7438 27.9589 58.7757 27.5375 50.8077C27.3499 47.2405 27.1683 43.6718 27.0045 40.1032C26.9107 38.073 28.3281 36.6204 30.3724 36.6159C32.4792 36.61 34.5844 36.6352 36.6912 36.5952C37.0977 36.5878 37.5667 36.4397 37.8957 36.2028C51.0396 26.7155 69.4944 26.5793 82.6636 35.92C83.3694 36.4205 84.0409 36.6559 84.9029 36.6307C86.7849 36.576 88.6683 36.61 90.5518 36.6145C92.7107 36.6189 94.0998 38.0256 93.9956 40.1668C93.7052 46.0959 93.3896 52.0249 93.0799 57.9524C92.7539 64.1998 92.4188 70.4472 92.0943 76.6946C91.9097 80.2381 91.7265 83.7801 91.5642 87.325C91.4511 89.7965 90.2123 90.9988 87.7199 91.0003C78.6511 91.0003 69.5823 91.0003 60.5134 91.0003V90.9959H60.512ZM45.5501 37.38C43.8662 38.4373 42.209 39.4102 40.6293 40.4941C39.7658 41.0864 39.6988 42.1999 40.3554 43.1373C43.0726 47.0169 45.7973 50.8906 48.5368 54.7554C49.2753 55.7979 50.3384 55.9652 51.3851 55.2352C53.6407 53.6641 56.1182 52.6838 58.8697 52.4395C59.2628 52.4039 67.6154 44.849 68.619 44.1738C68.7738 44.3219 61.8862 52.3877 62.0753 52.4069C64.9057 52.6868 67.4412 53.6952 69.7565 55.3181C70.6558 55.9489 71.7605 55.7638 72.3918 54.8739C75.1894 50.9291 77.9722 46.974 80.74 43.0084C81.3341 42.1585 81.2164 41.0642 80.3827 40.4926C78.8015 39.4102 77.1473 38.4343 75.4678 37.38C74.5045 39.0637 73.6306 40.5918 72.7328 42.16C72.2697 41.8964 71.8752 41.6713 71.4508 41.4299C72.3248 39.8781 73.1556 38.4018 74.0638 36.7922C72.1789 36.1628 70.3937 35.5646 68.5386 34.9456C68.0398 36.7936 67.5827 38.4906 67.1062 40.2572C66.5851 40.112 66.1489 39.9891 65.6858 39.8603C66.1459 38.1056 66.5851 36.4323 67.0601 34.6228C65.0709 34.417 63.1949 34.223 61.2207 34.0187V39.0563H59.7645V34.0053C57.7813 34.2215 55.889 34.4274 53.9474 34.6391C54.4373 36.4856 54.8765 38.1456 55.3351 39.8766C54.8423 40.004 54.4016 40.118 53.9013 40.2483C53.4234 38.4758 52.9633 36.7773 52.469 34.9471C50.6004 35.5705 48.8152 36.1658 46.9422 36.7892C47.8668 38.4254 48.7095 39.9151 49.5701 41.4373C49.0922 41.7009 48.6917 41.9216 48.2703 42.154C47.3636 40.5622 46.5 39.0474 45.5486 37.3771L45.5501 37.38Z" fill="white"/>
<path d="M66.9037 83.3431C66.9037 86.0322 66.7607 86.1506 63.5685 86.1521C61.6911 86.1521 59.8136 86.1521 57.9361 86.1521C55.405 86.1521 54.1394 85.1437 54.1394 83.1269C54.1394 76.3035 54.1394 78.8563 54.1394 72.0329V70.0442C52.9096 70.0442 51.9359 70.1168 50.9845 70.028C49.3243 69.8725 48.7511 68.8122 49.8484 67.7831C52.9066 64.9104 56.0467 62.0954 59.1704 59.2687C60.0429 58.4794 60.9823 58.5209 61.837 59.2953C64.9607 62.1221 68.1067 64.9326 71.1604 67.8083C72.2562 68.8404 71.6636 69.8799 69.9812 70.0309C69.0402 70.1153 68.0784 70.0457 66.9051 70.0457C66.9051 70.8513 66.9051 71.4702 66.9051 72.0892C66.9051 72.7452 66.9051 73.4012 66.9051 74.0557V83.3416L66.9037 83.3431Z" fill="#6546A6"/>
</g>
<defs>
<filter id="filter0_f_3867_2911" x="4" y="0" width="130" height="130" filterUnits="userSpaceOnUse" color-interpolation-filters="sRGB">
<feFlood flood-opacity="0" result="BackgroundImageFix"/>
<feBlend mode="normal" in="SourceGraphic" in2="BackgroundImageFix" result="shape"/>
<feGaussianBlur stdDeviation="10" result="effect1_foregroundBlur_3867_2911"/>
</filter>
<linearGradient id="paint0_linear_3867_2911" x1="93.75" y1="8.25" x2="29.25" y2="111" gradientUnits="userSpaceOnUse">
<stop stop-color="white" stop-opacity="0.47"/>
<stop offset="1" stop-color="#6546A6"/>
</linearGradient>
<clipPath id="clip0_3867_2911">
<rect width="67" height="62" fill="white" transform="translate(27 29)"/>
</clipPath>
</defs>
</svg>
