<svg width="134" height="130" viewBox="0 0 134 130" fill="none" xmlns="http://www.w3.org/2000/svg">
<g filter="url(#filter0_f_3867_1774)">
<rect x="24" y="20" width="90" height="90" rx="45" fill="#6546A6"/>
</g>
<circle cx="60" cy="60" r="59.75" fill="white" fill-opacity="0.1" stroke="url(#paint0_linear_3867_1774)" stroke-width="0.5"/>
<g clip-path="url(#clip0_3867_1774)">
<path d="M72.8395 69.6425C72.3379 69.1601 71.8743 68.7141 71.3686 68.2275C70.8488 68.7464 70.3067 69.2851 69.7663 69.8254C65.1187 74.4792 60.4745 79.1364 55.8229 83.7861C54.2718 85.3368 51.8224 85.2971 50.2696 83.7166C48.6979 82.1162 48.6822 79.714 50.2349 78.1583C55.3105 73.0742 60.3877 67.9909 65.4633 62.9059C65.5592 62.8099 65.6484 62.7065 65.7203 62.6287C65.1667 62.0925 64.6287 61.572 64.0527 61.0142C63.8982 61.1632 63.661 61.3833 63.4321 61.6125C58.4904 66.5576 53.5495 71.5027 48.6094 76.4503C47.1046 77.9572 44.8486 78.0491 43.2372 76.663C41.6588 75.3059 41.3093 72.9509 42.5397 71.3828C43.1727 70.576 43.9528 69.8817 44.6809 69.1518C48.9094 64.9151 53.1421 60.6824 57.3731 56.4489C57.4971 56.3248 57.6268 56.2065 57.764 56.0749C57.8615 56.1544 57.9433 56.2065 58.0061 56.2752C60.3506 58.8239 64.1337 58.9711 66.9673 57.0191C69.9472 54.9661 71.0521 51.0239 69.506 47.9249C68.9762 46.8632 68.1044 46.097 67.2904 45.2794C65.3195 43.2992 63.342 41.3256 61.3678 39.3479C61.2918 39.2718 61.2265 39.1849 61.0926 39.0293C61.9083 38.4071 62.6702 37.7517 63.5023 37.2014C73.6436 30.4912 87.2755 34.776 91.6957 46.1185C93.8476 51.6404 93.2609 57.0332 90.4678 62.2158C89.2249 64.522 87.4722 66.4136 85.6277 68.2432C78.0647 75.7445 70.5199 83.2631 62.9702 90.7784C61.3414 92.4003 58.9532 92.4094 57.3293 90.7784C55.7601 89.2021 55.7452 86.6575 57.3616 85.1573C58.1375 84.4365 58.8623 83.6611 59.611 82.9114C63.9288 78.5869 68.2466 74.2633 72.5644 69.9388C72.6503 69.8527 72.7296 69.7584 72.8379 69.6401L72.8395 69.6425Z" fill="white"/>
<path d="M46.1519 42.029C45.766 42.4237 45.3958 42.8035 44.9966 43.2123C46.4957 44.6885 48.0195 46.1888 49.645 47.7883C49.2285 48.1558 48.8839 48.428 48.5748 48.7367C43.962 53.3466 39.3566 57.9649 34.7413 62.5732C33.6423 63.6705 33.082 64.9821 33.0481 66.5278C33.0464 66.6097 33.0448 66.6925 33.0406 66.7744C33.0406 66.7868 33.0299 66.7992 33.0068 66.8497C32.9316 66.8001 32.8498 66.7653 32.7936 66.7057C28.9798 62.6336 26.8387 57.8689 27.0089 52.2229C27.1734 46.7813 29.4013 42.2565 33.4761 38.6925C39.7682 33.1888 48.7434 32.4772 55.8634 36.8182C57.2286 37.6507 58.3756 38.7264 59.4912 39.8535C61.9208 42.3087 64.3057 44.8127 66.8302 47.1669C69.5052 49.6618 68.7615 53.6727 66.0675 55.5784C64.0098 57.034 61.3927 57.0323 59.6821 55.5172C58.8384 54.7699 58.0682 53.94 57.2708 53.1414C53.6529 49.5195 50.0367 45.8942 46.4196 42.2714C46.3337 42.1854 46.2395 42.1084 46.1519 42.0298V42.029Z" fill="white"/>
<path d="M50.6816 49.042C52.5393 50.9105 54.378 52.7591 56.2464 54.6392C56.1968 54.6938 56.1109 54.7947 56.0167 54.8891C51.1741 59.7382 46.334 64.5898 41.4865 69.434C39.9346 70.9847 37.5017 70.9441 35.9349 69.3636C34.3747 67.7897 34.3392 65.3809 35.8746 63.8409C40.7213 58.9786 45.5754 54.1236 50.4271 49.2662C50.5122 49.181 50.6089 49.1057 50.6808 49.042H50.6816Z" fill="white"/>
</g>
<defs>
<filter id="filter0_f_3867_1774" x="4" y="0" width="130" height="130" filterUnits="userSpaceOnUse" color-interpolation-filters="sRGB">
<feFlood flood-opacity="0" result="BackgroundImageFix"/>
<feBlend mode="normal" in="SourceGraphic" in2="BackgroundImageFix" result="shape"/>
<feGaussianBlur stdDeviation="10" result="effect1_foregroundBlur_3867_1774"/>
</filter>
<linearGradient id="paint0_linear_3867_1774" x1="93.75" y1="8.25" x2="29.25" y2="111" gradientUnits="userSpaceOnUse">
<stop stop-color="white" stop-opacity="0.47"/>
<stop offset="1" stop-color="#6546A6"/>
</linearGradient>
<clipPath id="clip0_3867_1774">
<rect width="66" height="58" fill="white" transform="translate(27 34)"/>
</clipPath>
</defs>
</svg>
