<svg width="134" height="130" viewBox="0 0 134 130" fill="none" xmlns="http://www.w3.org/2000/svg">
<g filter="url(#filter0_f_3867_3530)">
<rect x="24" y="20" width="90" height="90" rx="45" fill="#6546A6"/>
</g>
<circle cx="60" cy="60" r="59.75" fill="white" fill-opacity="0.1" stroke="url(#paint0_linear_3867_3530)" stroke-width="0.5"/>
<g clip-path="url(#clip0_3867_3530)">
<path d="M73.5195 98.0191C73.4388 97.9536 73.3582 97.887 73.2753 97.8239C72.4228 97.1742 72.1867 96.1938 72.7362 95.2801C73.319 94.3101 73.9572 93.3722 74.5827 92.4275C76.5087 89.5163 78.4404 86.6086 80.3687 83.6986C80.3998 83.6515 80.4252 83.6021 80.4655 83.5333C80.4079 83.5034 80.3572 83.4713 80.3019 83.4483C78.4819 82.6815 76.6607 81.917 74.8419 81.1467C74.5113 81.0067 74.1761 80.8666 73.8673 80.6864C72.5208 79.8989 72.2984 78.084 73.4239 76.9797C73.7844 76.6261 74.1853 76.3082 74.5953 76.0108C80.7385 71.5511 86.8851 67.0994 93.0305 62.6443C93.565 62.2563 94.1594 62.0175 94.816 62.1484C95.9644 62.3768 97.023 63.1987 96.5369 64.7129C96.325 65.3729 95.9656 65.9503 95.559 66.5014C93.5869 69.1749 91.6068 71.8427 89.6381 74.5185C89.2834 74.9995 88.9666 75.5081 88.6337 76.0051C88.6037 76.0499 88.5807 76.1004 88.5427 76.1704C88.6256 76.2048 88.6947 76.2347 88.765 76.2645C90.9456 77.1771 93.1215 78.0978 95.3078 78.9955C95.9195 79.2469 96.3768 79.636 96.6855 80.21C97.1613 81.0951 97.1037 81.9491 96.4816 82.7343C96.2536 83.0224 95.969 83.2807 95.6684 83.4954C92.3486 85.8693 89.0023 88.2054 85.7009 90.6034C82.4905 92.9349 79.3239 95.326 76.1366 97.6885C75.9615 97.8182 75.7795 97.941 75.5918 98.0512C75.1609 98.3026 74.7036 98.4059 74.2095 98.2693C74.1772 98.2601 74.1415 98.2682 74.1069 98.2682L73.5218 98.0214L73.5195 98.0191Z" fill="white"/>
<path d="M56.9248 104.93C51.0777 104.282 46.7304 99.2375 46.9689 93.3784C47.0357 91.73 47.1059 90.0827 47.1843 88.4354C47.2741 86.5562 46.4954 85.1764 45.044 84.0641C42.8024 82.3468 40.9363 80.2897 39.5586 77.8136C37.1523 73.4893 34.7436 69.1662 32.3511 64.8339C30.9619 62.3187 29.4713 59.8759 27.52 57.7431C26.3923 56.5102 25.2669 55.2739 24.1403 54.0398L23.9986 53.0262C24.6598 51.6693 25.8624 51.3571 27.1744 51.4375C29.2133 51.5614 31.1105 52.1813 32.8591 53.2581C34.4372 54.2292 35.4014 55.6952 36.3033 57.2495C37.6637 59.5901 39.5759 61.4279 41.8405 62.887C43.1192 63.7112 43.8702 63.8673 44.1478 61.8045C44.3632 60.2077 44.3678 58.5661 44.2987 56.951C44.1375 53.1731 44.0015 49.3861 43.6226 45.6266C43.0892 40.3255 42.3174 35.0472 41.715 29.7518C41.6056 28.7887 41.7208 27.7716 41.9085 26.8131C42.0732 25.9751 42.7252 25.454 43.6007 25.2944C45.0129 25.0361 46.2005 25.7088 46.6982 27.0542C46.8306 27.4123 46.9401 27.7785 47.0529 28.1436C48.6529 33.3219 49.571 38.6529 50.6239 43.9552C50.9844 45.7724 51.2989 47.6045 52.1847 49.2679C52.2953 49.4745 52.4531 49.6559 52.6697 49.9635C52.824 49.6249 52.9692 49.4194 53.0083 49.1955C53.1431 48.4448 53.2928 47.6906 53.3424 46.9318C53.8285 39.4966 54.2904 32.0592 54.7742 24.624C54.8306 23.7504 54.8975 22.8642 55.1002 22.017C55.3939 20.7887 56.2855 20.0506 57.3165 20.0036C58.5329 19.9485 59.3991 20.5328 59.9198 21.761C60.4001 22.8952 60.49 24.1005 60.4796 25.3036C60.4255 31.5897 60.3241 37.8746 60.2895 44.1607C60.2792 46.0089 60.4278 47.8571 60.5234 49.7041C60.5314 49.8659 60.6881 50.0209 60.7768 50.1782C60.9266 50.0783 61.1178 50.0083 61.2168 49.8717C61.3942 49.6272 61.5613 49.3563 61.6546 49.0716C61.9437 48.1831 62.2536 47.2957 62.4551 46.3854C63.7706 40.4357 65.0562 34.4779 66.3613 28.5258C66.6078 27.402 66.9199 26.2942 67.6802 25.3851C68.3264 24.6125 69.1454 24.4472 70.0508 24.8834C70.7443 25.2163 71.2857 25.749 71.3997 26.4963C71.5299 27.3515 71.6094 28.2538 71.4815 29.1009C70.5381 35.3342 69.5256 41.556 68.566 47.7859C68.3806 48.9901 68.3149 50.2138 68.2308 51.4306C68.2147 51.6648 68.376 51.9116 68.4566 52.1515C68.6685 51.9816 68.9438 51.8519 69.0786 51.6349C69.3712 51.1677 69.635 50.6718 69.8343 50.1587C71.4539 45.9928 73.0297 41.8086 74.6769 37.6542C75.2805 36.132 76.0108 34.6581 76.74 33.1899C77.0936 32.4782 77.7398 32.1545 78.5623 32.2899C79.3917 32.4265 80.0172 32.8708 80.2187 33.6824C80.357 34.2391 80.4226 34.8797 80.2879 35.4249C79.4078 38.9847 78.6245 42.5811 77.5002 46.0674C75.489 52.3007 74.1655 58.7314 73.6206 65.2552C73.3914 68.0056 73.1172 70.7561 72.7336 73.487C72.2349 77.041 71.0634 80.4274 69.8504 83.7909C69.3574 85.1592 69.0659 86.5517 69.1293 88.0003C69.2076 89.7888 69.2825 91.5773 69.3574 93.3658C69.6454 100.203 63.7499 105.687 56.9248 104.929V104.93Z" fill="white"/>
</g>
<defs>
<filter id="filter0_f_3867_3530" x="4" y="0" width="130" height="130" filterUnits="userSpaceOnUse" color-interpolation-filters="sRGB">
<feFlood flood-opacity="0" result="BackgroundImageFix"/>
<feBlend mode="normal" in="SourceGraphic" in2="BackgroundImageFix" result="shape"/>
<feGaussianBlur stdDeviation="10" result="effect1_foregroundBlur_3867_3530"/>
</filter>
<linearGradient id="paint0_linear_3867_3530" x1="93.75" y1="8.25" x2="29.25" y2="111" gradientUnits="userSpaceOnUse">
<stop stop-color="white" stop-opacity="0.47"/>
<stop offset="1" stop-color="#6546A6"/>
</linearGradient>
<clipPath id="clip0_3867_3530">
<rect width="73" height="85" fill="white" transform="translate(24 20)"/>
</clipPath>
</defs>
</svg>
